AnekTamil-CondensedSemiBold.ufo
<glyph name="exclam" format="2">
  <advance width="399.3"/>
  <unicode hex="0021"/>
  <outline>
    <contour>
      <point x="289.35" y="400.6333333333333" type="line"/>
      <point x="319.25000000000006" y="1278.0" type="line"/>
      <point x="80.05" y="1278.0" type="line"/>
      <point x="109.95000000000002" y="400.6333333333333" type="line"/>
    </contour>
    <contour>
      <point x="202.41666666666669" y="-21.833333333333332" type="curve" smooth="yes"/>
      <point x="281.5166666666667" y="-21.833333333333332"/>
      <point x="322.33333333333337" y="29.983333333333334"/>
      <point x="322.33333333333337" y="122.55" type="curve" smooth="yes"/>
      <point x="322.33333333333337" y="139.54999999999998" type="line" smooth="yes"/>
      <point x="322.33333333333337" y="230.73333333333332"/>
      <point x="281.5166666666667" y="283.31666666666666"/>
      <point x="202.41666666666669" y="283.31666666666666" type="curve" smooth="yes"/>
      <point x="119.93333333333332" y="283.31666666666666"/>
      <point x="82.5" y="230.73333333333332"/>
      <point x="82.5" y="139.54999999999998" type="curve" smooth="yes"/>
      <point x="82.5" y="122.55" type="line" smooth="yes"/>
      <point x="82.5" y="29.983333333333334"/>
      <point x="119.93333333333332" y="-21.833333333333332"/>
    </contour>
  </outline>
</glyph>
<glyph name="numbersign" format="2">
  <advance width="874.9833333333332"/>
  <unicode hex="0023"/>
  <outline>
    <contour>
      <point x="118.28333333333333" y="0.0" type="line"/>
      <point x="294.3833333333333" y="0.0" type="line"/>
      <point x="416.81666666666666" y="1278.0" type="line"/>
      <point x="240.71666666666664" y="1278.0" type="line"/>
    </contour>
    <contour>
      <point x="38.16666666666667" y="313.6166666666667" type="line"/>
      <point x="795.2833333333333" y="313.6166666666667" type="line"/>
      <point x="795.2833333333333" y="481.56666666666666" type="line"/>
      <point x="38.16666666666667" y="481.56666666666666" type="line"/>
    </contour>
    <contour>
      <point x="459.16666666666663" y="0.0" type="line"/>
      <point x="635.65" y="0.0" type="line"/>
      <point x="756.7" y="1278.0" type="line"/>
      <point x="580.6" y="1278.0" type="line"/>
    </contour>
    <contour>
      <point x="81.69999999999999" y="800.5166666666667" type="line"/>
      <point x="836.8166666666667" y="800.5166666666667" type="line"/>
      <point x="836.8166666666667" y="968.0833333333334" type="line"/>
      <point x="81.69999999999999" y="968.0833333333334" type="line"/>
    </contour>
  </outline>
</glyph>
<glyph name="dollar" format="2">
  <advance width="659.1833333333333"/>
  <unicode hex="0024"/>
  <anchor x="316.7833333333333" y="0.0" name="bottom"/>
  <anchor x="316.7833333333333" y="1278.0" name="top"/>
  <outline>
    <contour>
      <point x="418.71666666666664" y="1174.7" type="line"/>
      <point x="418.71666666666664" y="1440.1666666666667" type="line"/>
      <point x="223.01666666666665" y="1440.1666666666667" type="line"/>
      <point x="223.01666666666665" y="1174.7" type="line"/>
    </contour>
    <contour>
      <point x="418.71666666666664" y="-171.16666666666666" type="line"/>
      <point x="418.71666666666664" y="85.56666666666666" type="line"/>
      <point x="223.01666666666665" y="85.56666666666666" type="line"/>
      <point x="223.01666666666665" y="-171.16666666666666" type="line"/>
    </contour>
    <component base="S"/>
  </outline>
</glyph>
<glyph name="percent" format="2">
  <advance width="1159.6833333333334"/>
  <unicode hex="0025"/>
  <outline>
    <contour>
      <point x="231.70000000000002" y="0.0" type="line"/>
      <point x="399.56666666666666" y="0.0" type="line"/>
      <point x="927.2166666666667" y="1278.0" type="line"/>
      <point x="762.1166666666667" y="1278.0" type="line"/>
    </contour>
    <contour>
      <point x="883.4666666666667" y="-22.766666666666666" type="curve" smooth="yes"/>
      <point x="1035.6000000000001" y="-22.766666666666666"/>
      <point x="1110.2833333333333" y="65.53333333333333"/>
      <point x="1110.2833333333333" y="224.74999999999997" type="curve" smooth="yes"/>
      <point x="1110.2833333333333" y="392.7" type="line" smooth="yes"/>
      <point x="1110.2833333333333" y="551.9166666666666"/>
      <point x="1035.6000000000001" y="640.2166666666666"/>
      <point x="883.4666666666667" y="640.2166666666666" type="curve" smooth="yes"/>
      <point x="731.3333333333334" y="640.2166666666666"/>
      <point x="657.2666666666667" y="551.9166666666666"/>
      <point x="657.2666666666667" y="392.7" type="curve" smooth="yes"/>
      <point x="657.2666666666667" y="224.74999999999997" type="line" smooth="yes"/>
      <point x="657.2666666666667" y="65.53333333333333"/>
      <point x="731.3333333333334" y="-22.766666666666666"/>
    </contour>
    <contour>
      <point x="883.4666666666667" y="114.26666666666667" type="curve" smooth="yes"/>
      <point x="839.0666666666667" y="114.26666666666667"/>
      <point x="821.75" y="146.58333333333334"/>
      <point x="821.75" y="215.98333333333335" type="curve" smooth="yes"/>
      <point x="821.75" y="400.46666666666664" type="line" smooth="yes"/>
      <point x="821.75" y="470.8666666666667"/>
      <point x="839.0666666666666" y="503.18333333333334"/>
      <point x="883.4666666666667" y="503.18333333333334" type="curve" smooth="yes"/>
      <point x="927.8666666666668" y="503.18333333333334"/>
      <point x="945.1833333333333" y="470.8666666666667"/>
      <point x="945.1833333333333" y="400.46666666666664" type="curve" smooth="yes"/>
      <point x="945.1833333333333" y="215.98333333333335" type="line" smooth="yes"/>
      <point x="945.1833333333333" y="146.58333333333334"/>
      <point x="927.8666666666667" y="114.26666666666667"/>
    </contour>
    <contour>
      <point x="276.2166666666667" y="635.4000000000001" type="curve" smooth="yes"/>
      <point x="428.35" y="635.4000000000001"/>
      <point x="502.41666666666663" y="723.7"/>
      <point x="502.41666666666663" y="881.9166666666666" type="curve" smooth="yes"/>
      <point x="502.41666666666663" y="1050.8666666666668" type="line" smooth="yes"/>
      <point x="502.41666666666663" y="1208.4666666666667"/>
      <point x="428.35" y="1296.7666666666667"/>
      <point x="276.2166666666667" y="1296.7666666666667" type="curve" smooth="yes"/>
      <point x="123.46666666666667" y="1296.7666666666667"/>
      <point x="49.400000000000006" y="1208.4666666666667"/>
      <point x="49.400000000000006" y="1050.8666666666668" type="curve" smooth="yes"/>
      <point x="49.400000000000006" y="881.9166666666666" type="line" smooth="yes"/>
      <point x="49.400000000000006" y="723.7"/>
      <point x="123.46666666666667" y="635.4000000000001"/>
    </contour>
    <contour>
      <point x="276.2166666666667" y="772.4333333333333" type="curve" smooth="yes"/>
      <point x="231.81666666666666" y="772.4333333333333"/>
      <point x="214.8833333333333" y="803.75"/>
      <point x="214.8833333333333" y="874.15" type="curve" smooth="yes"/>
      <point x="214.8833333333333" y="1058.6333333333332" type="line" smooth="yes"/>
      <point x="214.8833333333333" y="1128.4166666666667"/>
      <point x="231.81666666666666" y="1160.35"/>
      <point x="276.2166666666667" y="1160.35" type="curve" smooth="yes"/>
      <point x="320.0" y="1160.35"/>
      <point x="337.31666666666666" y="1128.4166666666667"/>
      <point x="337.31666666666666" y="1058.6333333333332" type="curve" smooth="yes"/>
      <point x="337.31666666666666" y="874.15" type="line" smooth="yes"/>
      <point x="337.31666666666666" y="803.75"/>
      <point x="320.0" y="772.4333333333333"/>
    </contour>
  </outline>
</glyph>
<glyph name="ampersand" format="2">
  <advance width="928.8166666666667"/>
  <unicode hex="0026"/>
  <outline>
    <contour>
      <point x="718.1333333333333" y="0.38333333333333336" type="curve"/>
      <point x="946.8166666666666" y="0.38333333333333336" type="line"/>
      <point x="946.8166666666666" y="14.450000000000001" type="line"/>
      <point x="864.4166666666666" y="143.0666666666667"/>
      <point x="776.9333333333333" y="275.8"/>
      <point x="700.6" y="385.8333333333333" type="curve"/>
      <point x="660.6333333333333" y="443.4166666666667" type="line"/>
      <point x="420.90000000000003" y="795.75" type="line" smooth="yes"/>
      <point x="369.1166666666667" y="871.9333333333333"/>
      <point x="349.96666666666664" y="920.0333333333334"/>
      <point x="349.96666666666664" y="976.6833333333334" type="curve" smooth="yes"/>
      <point x="349.96666666666664" y="981.5333333333333" type="line" smooth="yes"/>
      <point x="349.96666666666664" y="1048.4833333333333"/>
      <point x="389.81666666666666" y="1091.5166666666667"/>
      <point x="472.53333333333336" y="1091.5166666666667" type="curve" smooth="yes"/>
      <point x="543.0666666666666" y="1091.5166666666667"/>
      <point x="599.5166666666667" y="1069.4333333333332"/>
      <point x="643.1333333333333" y="1044.0333333333333" type="curve"/>
      <point x="631.9833333333333" y="1244.5333333333333" type="line"/>
      <point x="582.7" y="1274.15"/>
      <point x="507.5" y="1298.15"/>
      <point x="409.3833333333334" y="1298.15" type="curve" smooth="yes"/>
      <point x="223.64999999999998" y="1298.15"/>
      <point x="114.91666666666666" y="1185.4666666666667"/>
      <point x="114.91666666666666" y="1006.7" type="curve" smooth="yes"/>
      <point x="114.91666666666666" y="998.9333333333334" type="line" smooth="yes"/>
      <point x="114.91666666666666" y="885.4833333333333"/>
      <point x="153.21666666666667" y="810.4833333333333"/>
      <point x="225.73333333333335" y="708.5" type="curve"/>
      <point x="263.25" y="654.9833333333333" type="line"/>
      <point x="549.0333333333333" y="247.98333333333335" type="line"/>
      <point x="573.2333333333333" y="220.23333333333335" type="line"/>
      <point x="609.6666666666666" y="168.26666666666668"/>
      <point x="680.4666666666667" y="57.96666666666667"/>
    </contour>
    <contour>
      <point x="367.54999999999995" y="-20.15" type="curve" smooth="yes"/>
      <point x="540.3333333333333" y="-20.15"/>
      <point x="611.6999999999999" y="53.1"/>
      <point x="677.0833333333334" y="187.08333333333334" type="curve"/>
      <point x="749.1833333333334" y="269.75" type="line"/>
      <point x="832.4333333333333" y="414.9"/>
      <point x="867.2666666666668" y="612.4333333333334"/>
      <point x="874.8833333333334" y="831.3833333333333" type="curve"/>
      <point x="658.25" y="831.3833333333333" type="line"/>
      <point x="655.1666666666666" y="670.4666666666666"/>
      <point x="643.6333333333333" y="530.7666666666667"/>
      <point x="606.3499999999999" y="416.5833333333333" type="curve"/>
      <point x="547.4333333333333" y="311.28333333333336" type="line"/>
      <point x="517.3333333333334" y="228.28333333333333"/>
      <point x="475.46666666666664" y="177.55"/>
      <point x="392.98333333333335" y="177.55" type="curve" smooth="yes"/>
      <point x="310.5833333333333" y="177.55"/>
      <point x="270.8833333333333" y="232.71666666666667"/>
      <point x="270.8833333333333" y="339.76666666666665" type="curve" smooth="yes"/>
      <point x="270.8833333333333" y="431.8" type="line" smooth="yes"/>
      <point x="270.8833333333333" y="510.8333333333333"/>
      <point x="281.5833333333333" y="557.2333333333333"/>
      <point x="332.6" y="596.8" type="curve"/>
      <point x="217.36666666666667" y="761.6833333333333" type="line"/>
      <point x="94.93333333333334" y="677.4499999999999"/>
      <point x="49.56666666666666" y="576.85"/>
      <point x="49.56666666666666" y="420.01666666666665" type="curve" smooth="yes"/>
      <point x="49.56666666666666" y="328.31666666666666" type="line" smooth="yes"/>
      <point x="49.56666666666666" y="101.28333333333333"/>
      <point x="152.06666666666666" y="-20.15"/>
    </contour>
  </outline>
</glyph>
<glyph name="quotesingle" format="2">
  <advance width="316.68333333333334"/>
  <unicode hex="0027"/>
  <outline>
    <contour>
      <point x="244.51666666666668" y="853.5999999999999" type="line"/>
      <point x="265.1166666666667" y="1327.0833333333333" type="line"/>
      <point x="51.56666666666666" y="1327.0833333333333" type="line"/>
      <point x="72.78333333333333" y="853.5999999999999" type="line"/>
    </contour>
  </outline>
</glyph>
<glyph name="parenleft" format="2">
  <advance width="463.1166666666666"/>
  <unicode hex="0028"/>
  <outline>
    <contour>
      <point x="295.95000000000005" y="634.3833333333333" type="line" smooth="yes"/>
      <point x="295.95000000000005" y="938.75"/>
      <point x="344.0" y="1141.8666666666668"/>
      <point x="453.1666666666667" y="1352.0" type="curve"/>
      <point x="229.71666666666667" y="1352.0" type="line"/>
      <point x="129.16666666666666" y="1166.7"/>
      <point x="80.5" y="960.2833333333334"/>
      <point x="80.5" y="642.15" type="curve" smooth="yes"/>
      <point x="80.5" y="468.85" type="line" smooth="yes"/>
      <point x="80.5" y="150.95"/>
      <point x="129.16666666666666" y="-54.31666666666667"/>
      <point x="229.7166666666667" y="-239.61666666666667" type="curve"/>
      <point x="453.1666666666667" y="-239.61666666666667" type="line"/>
      <point x="344.0" y="-32.63333333333333"/>
      <point x="295.95000000000005" y="170.48333333333335"/>
      <point x="295.95000000000005" y="477.23333333333335" type="curve" smooth="yes"/>
    </contour>
  </outline>
</glyph>
<glyph name="parenright" format="2">
  <advance width="463.1166666666667"/>
  <unicode hex="0029"/>
  <outline>
    <contour>
      <point x="167.16666666666669" y="634.3833333333333" type="curve" smooth="yes"/>
      <point x="167.16666666666669" y="477.23333333333335" type="line" smooth="yes"/>
      <point x="167.16666666666669" y="170.48333333333335"/>
      <point x="119.11666666666666" y="-32.63333333333333"/>
      <point x="9.949999999999998" y="-239.61666666666667" type="curve"/>
      <point x="233.40000000000003" y="-239.61666666666667" type="line"/>
      <point x="333.95000000000005" y="-54.31666666666667"/>
      <point x="382.61666666666673" y="150.95"/>
      <point x="382.61666666666673" y="468.85" type="curve" smooth="yes"/>
      <point x="382.61666666666673" y="642.15" type="line" smooth="yes"/>
      <point x="382.61666666666673" y="960.2833333333334"/>
      <point x="333.95" y="1166.7"/>
      <point x="233.39999999999998" y="1352.0" type="curve"/>
      <point x="9.949999999999998" y="1352.0" type="line"/>
      <point x="119.11666666666666" y="1141.8666666666668"/>
      <point x="167.16666666666669" y="938.75"/>
    </contour>
  </outline>
</glyph>
<glyph name="asterisk" format="2">
  <advance width="637.9666666666666"/>
  <unicode hex="002A"/>
  <outline>
    <contour>
      <point x="220.86666666666667" y="687.2333333333333" type="line"/>
      <point x="315.98333333333335" y="852.95" type="line"/>
      <point x="320.75" y="852.95" type="line"/>
      <point x="415.8666666666666" y="687.2333333333333" type="line"/>
      <point x="563.0" y="781.9333333333333" type="line"/>
      <point x="440.75" y="933.2166666666667" type="line"/>
      <point x="441.75" y="938.3666666666667" type="line"/>
      <point x="605.7166666666667" y="970.55" type="line"/>
      <point x="566.6666666666666" y="1146.65" type="line"/>
      <point x="396.7" y="1085.5666666666668" type="line"/>
      <point x="393.93333333333334" y="1088.3333333333335" type="line"/>
      <point x="415.45" y="1278.0" type="line"/>
      <point x="222.51666666666668" y="1278.0" type="line"/>
      <point x="243.0333333333333" y="1088.3333333333335" type="line"/>
      <point x="240.26666666666665" y="1085.5666666666668" type="line"/>
      <point x="70.68333333333334" y="1146.65" type="line"/>
      <point x="32.25" y="970.55" type="line"/>
      <point x="195.60000000000002" y="938.3666666666667" type="line"/>
      <point x="196.98333333333335" y="933.2166666666667" type="line"/>
      <point x="74.35000000000001" y="781.9333333333333" type="line"/>
    </contour>
  </outline>
</glyph>
<glyph name="plus" format="2">
  <advance width="694.1500000000001"/>
  <unicode hex="002B"/>
  <outline>
    <contour>
      <point x="444.5" y="305.1666666666667" type="line"/>
      <point x="444.5" y="967.8333333333333" type="line"/>
      <point x="250.03333333333333" y="967.8333333333333" type="line"/>
      <point x="250.03333333333333" y="305.1666666666667" type="line"/>
    </contour>
    <contour>
      <point x="55.46666666666667" y="542.5333333333334" type="line"/>
      <point x="638.6833333333334" y="542.5333333333334" type="line"/>
      <point x="638.6833333333334" y="730.4666666666667" type="line"/>
      <point x="55.46666666666667" y="730.4666666666667" type="line"/>
    </contour>
  </outline>
</glyph>
<glyph name="comma" format="2">
  <advance width="345.5833333333333"/>
  <unicode hex="002C"/>
  <outline>
    <contour>
      <point x="279.33333333333337" y="304.21666666666664" type="curve"/>
      <point x="68.86666666666666" y="304.21666666666664" type="line"/>
      <point x="72.86666666666667" y="256.3833333333333"/>
      <point x="74.86666666666667" y="218.53333333333333"/>
      <point x="74.86666666666667" y="173.0" type="curve" smooth="yes"/>
      <point x="74.86666666666667" y="28.01666666666667"/>
      <point x="42.48333333333334" y="-84.13333333333334"/>
      <point x="-8.75" y="-182.66666666666666" type="curve"/>
      <point x="143.45" y="-227.11666666666667" type="line"/>
      <point x="245.88333333333335" y="-105.05"/>
      <point x="288.33333333333337" y="26.166666666666668"/>
      <point x="288.33333333333337" y="182.29999999999998" type="curve" smooth="yes"/>
      <point x="288.33333333333337" y="230.6833333333333"/>
      <point x="283.7166666666667" y="272.0"/>
    </contour>
  </outline>
</glyph>
<glyph name="hyphen" format="2">
  <advance width="570.7"/>
  <unicode hex="002D"/>
  <outline>
    <contour>
      <point x="77.8" y="414.8666666666667" type="line"/>
      <point x="492.9" y="414.8666666666667" type="line"/>
      <point x="492.9" y="604.4166666666666" type="line"/>
      <point x="77.8" y="604.4166666666666" type="line"/>
    </contour>
  </outline>
</glyph>
<glyph name="period" format="2">
  <advance width="337.1"/>
  <unicode hex="002E"/>
  <outline>
    <contour>
      <point x="168.54999999999998" y="-21.066666666666666" type="curve" smooth="yes"/>
      <point x="247.65000000000003" y="-21.066666666666666"/>
      <point x="288.4666666666667" y="30.75"/>
      <point x="288.4666666666667" y="123.31666666666668" type="curve" smooth="yes"/>
      <point x="288.4666666666667" y="140.31666666666666" type="line" smooth="yes"/>
      <point x="288.4666666666667" y="231.50000000000003"/>
      <point x="247.65000000000003" y="284.0833333333333"/>
      <point x="168.54999999999998" y="284.0833333333333" type="curve" smooth="yes"/>
      <point x="86.06666666666668" y="284.0833333333333"/>
      <point x="48.63333333333333" y="231.50000000000003"/>
      <point x="48.63333333333333" y="140.31666666666666" type="curve" smooth="yes"/>
      <point x="48.63333333333333" y="123.31666666666668" type="line" smooth="yes"/>
      <point x="48.63333333333333" y="30.75"/>
      <point x="86.06666666666668" y="-21.066666666666666"/>
    </contour>
  </outline>
</glyph>
<glyph name="slash" format="2">
  <advance width="566.9833333333333"/>
  <unicode hex="002F"/>
  <outline>
    <contour>
      <point x="15.416666666666668" y="-239.61666666666667" type="line"/>
      <point x="217.96666666666667" y="-239.61666666666667" type="line"/>
      <point x="551.5666666666666" y="1352.0" type="line"/>
      <point x="349.6333333333333" y="1352.0" type="line"/>
    </contour>
  </outline>
</glyph>
<glyph name="zero" format="2">
  <advance width="816.8166666666666"/>
  <unicode hex="0030"/>
  <outline>
    <contour>
      <point x="408.21666666666664" y="-20.15" type="curve" smooth="yes"/>
      <point x="634.3666666666667" y="-20.15"/>
      <point x="747.0166666666667" y="109.20000000000002"/>
      <point x="747.0166666666667" y="365.05" type="curve"/>
      <point x="747.0166666666667" y="912.95" type="line"/>
      <point x="747.0166666666667" y="1168.0333333333333"/>
      <point x="634.3666666666667" y="1298.15"/>
      <point x="408.21666666666664" y="1298.15" type="curve" smooth="yes"/>
      <point x="181.45" y="1298.15"/>
      <point x="69.8" y="1168.0333333333333"/>
      <point x="69.8" y="912.95" type="curve"/>
      <point x="69.8" y="365.05" type="line"/>
      <point x="69.8" y="109.20000000000002"/>
      <point x="181.45" y="-20.15"/>
    </contour>
    <contour>
      <point x="408.21666666666664" y="175.93333333333334" type="curve" smooth="yes"/>
      <point x="333.3333333333333" y="175.93333333333334"/>
      <point x="304.23333333333335" y="229.03333333333336"/>
      <point x="304.23333333333335" y="346.06666666666666" type="curve" smooth="yes"/>
      <point x="304.23333333333335" y="932.55" type="line" smooth="yes"/>
      <point x="304.23333333333335" y="1048.966666666667"/>
      <point x="333.3333333333333" y="1102.6833333333334"/>
      <point x="408.21666666666664" y="1102.6833333333334" type="curve" smooth="yes"/>
      <point x="483.09999999999997" y="1102.6833333333334"/>
      <point x="512.5833333333333" y="1048.9666666666667"/>
      <point x="512.5833333333333" y="932.55" type="curve" smooth="yes"/>
      <point x="512.5833333333333" y="346.06666666666666" type="line" smooth="yes"/>
      <point x="512.5833333333333" y="229.03333333333336"/>
      <point x="483.09999999999997" y="175.93333333333334"/>
    </contour>
  </outline>
</glyph>
<glyph name="one" format="2">
  <advance width="537.4166666666667"/>
  <unicode hex="0031"/>
  <outline>
    <contour>
      <point x="220.95" y="0.0" type="line"/>
      <point x="451.2333333333333" y="0.0" type="line"/>
      <point x="451.2333333333333" y="1278.0" type="line"/>
      <point x="250.11666666666667" y="1278.0" type="line"/>
      <point x="24.15" y="1122.55" type="line"/>
      <point x="21.083333333333332" y="877.4166666666667" type="line"/>
      <point x="207.79999999999998" y="1009.8833333333333" type="line"/>
      <point x="220.95" y="1009.8833333333333" type="line"/>
    </contour>
  </outline>
</glyph>
<glyph name="two" format="2">
  <advance width="639.1666666666666"/>
  <unicode hex="0032"/>
  <outline>
    <contour>
      <point x="38.93333333333334" y="0.0" type="line"/>
      <point x="595.9166666666666" y="0.0" type="line"/>
      <point x="595.9166666666666" y="207.15" type="line"/>
      <point x="169.83333333333331" y="207.15" type="line"/>
      <point x="272.1333333333333" y="174.46666666666667" type="line"/>
      <point x="272.1333333333333" y="216.3" type="line"/>
      <point x="413.76666666666665" y="462.18333333333334" type="line" smooth="yes"/>
      <point x="525.3000000000001" y="654.1666666666667"/>
      <point x="590.45" y="774.4"/>
      <point x="590.45" y="933.9499999999999" type="curve" smooth="yes"/>
      <point x="590.45" y="964.2666666666667" type="line" smooth="yes"/>
      <point x="590.45" y="1169.25"/>
      <point x="491.4833333333333" y="1296.7666666666667"/>
      <point x="285.3833333333333" y="1296.7666666666667" type="curve" smooth="yes"/>
      <point x="185.5" y="1296.7666666666667"/>
      <point x="108.75" y="1264.2333333333333"/>
      <point x="61.766666666666666" y="1230.55" type="curve"/>
      <point x="47.46666666666667" y="1024.0666666666666" type="line"/>
      <point x="95.08333333333333" y="1056.7666666666667"/>
      <point x="151.0" y="1087.15"/>
      <point x="223.15" y="1087.15" type="curve" smooth="yes"/>
      <point x="314.55000000000007" y="1087.15"/>
      <point x="358.1666666666667" y="1034.2"/>
      <point x="358.1666666666667" y="932.0" type="curve" smooth="yes"/>
      <point x="358.1666666666667" y="903.9" type="line" smooth="yes"/>
      <point x="358.1666666666667" y="812.3833333333334"/>
      <point x="326.08333333333337" y="733.7166666666667"/>
      <point x="239.66666666666666" y="578.55" type="curve" smooth="yes"/>
      <point x="38.93333333333334" y="225.45" type="line"/>
    </contour>
  </outline>
</glyph>
<glyph name="three" format="2">
  <advance width="648.4833333333333"/>
  <unicode hex="0033"/>
  <outline>
    <contour>
      <point x="273.25" y="-18.766666666666666" type="curve" smooth="yes"/>
      <point x="500.1833333333334" y="-18.766666666666666"/>
      <point x="598.9166666666666" y="113.28333333333333"/>
      <point x="598.9166666666666" y="317.7166666666667" type="curve" smooth="yes"/>
      <point x="598.9166666666666" y="392.5" type="line" smooth="yes"/>
      <point x="598.9166666666666" y="544.0"/>
      <point x="543.0166666666667" y="634.6166666666667"/>
      <point x="392.2833333333333" y="659.0833333333334" type="curve"/>
      <point x="401.96666666666664" y="633.0333333333333" type="line"/>
      <point x="401.96666666666664" y="667.4666666666667" type="line"/>
      <point x="531.7166666666667" y="693.4666666666666"/>
      <point x="592.9166666666666" y="781.5500000000001"/>
      <point x="592.9166666666666" y="929.5833333333334" type="curve" smooth="yes"/>
      <point x="592.9166666666666" y="988.4166666666667" type="line" smooth="yes"/>
      <point x="592.9166666666666" y="1181.3999999999999"/>
      <point x="501.94999999999993" y="1297.3833333333334"/>
      <point x="293.4666666666667" y="1297.3833333333334" type="curve" smooth="yes"/>
      <point x="187.1166666666667" y="1297.3833333333334"/>
      <point x="108.98333333333333" y="1267.85"/>
      <point x="57.150000000000006" y="1235.4666666666667" type="curve"/>
      <point x="42.85" y="1033.6000000000001" type="line"/>
      <point x="94.23333333333332" y="1062.0666666666666"/>
      <point x="156.23333333333332" y="1089.5333333333333"/>
      <point x="230.68333333333334" y="1089.5333333333333" type="curve" smooth="yes"/>
      <point x="326.55" y="1089.5333333333333"/>
      <point x="362.0166666666666" y="1035.5833333333333"/>
      <point x="362.0166666666666" y="937.9166666666666" type="curve" smooth="yes"/>
      <point x="362.0166666666666" y="902.7833333333333" type="line" smooth="yes"/>
      <point x="362.0166666666666" y="804.4333333333333"/>
      <point x="318.55" y="756.0166666666667"/>
      <point x="205.98333333333332" y="751.0166666666667" type="curve" smooth="yes"/>
      <point x="129.83333333333331" y="747.6333333333333" type="line"/>
      <point x="129.83333333333331" y="549.7833333333333" type="line"/>
      <point x="205.36666666666665" y="546.7833333333333" type="line" smooth="yes"/>
      <point x="320.4666666666667" y="542.1666666666666"/>
      <point x="364.48333333333335" y="498.3"/>
      <point x="364.48333333333335" y="393.7833333333333" type="curve" smooth="yes"/>
      <point x="364.48333333333335" y="343.08333333333337" type="line" smooth="yes"/>
      <point x="364.48333333333335" y="243.64999999999998"/>
      <point x="329.16666666666663" y="191.46666666666667"/>
      <point x="223.00000000000003" y="191.46666666666667" type="curve" smooth="yes"/>
      <point x="151.38333333333333" y="191.46666666666667"/>
      <point x="89.23333333333333" y="218.7"/>
      <point x="33.083333333333336" y="253.4" type="curve"/>
      <point x="47.38333333333334" y="40.766666666666666" type="line"/>
      <point x="95.45" y="9.616666666666667"/>
      <point x="180.5" y="-18.766666666666666"/>
    </contour>
  </outline>
</glyph>
<glyph name="four" format="2">
  <advance width="760.7333333333332"/>
  <unicode hex="0034"/>
  <outline>
    <contour>
      <point x="423.56666666666666" y="0.0" type="line"/>
      <point x="636.1833333333333" y="0.0" type="line"/>
      <point x="636.1833333333333" y="1278.0" type="line"/>
      <point x="262.75" y="1278.0" type="line"/>
      <point x="35.61666666666667" y="423.2" type="line"/>
      <point x="35.61666666666667" y="211.86666666666665" type="line"/>
      <point x="733.7333333333333" y="211.86666666666665" type="line"/>
      <point x="733.7333333333333" y="404.43333333333334" type="line"/>
      <point x="146.15" y="404.43333333333334" type="line"/>
      <point x="241.16666666666666" y="338.4" type="line"/>
      <point x="241.16666666666666" y="414.43333333333334" type="line"/>
      <point x="415.4833333333334" y="1117.8" type="line"/>
      <point x="433.71666666666664" y="1117.8" type="line"/>
      <point x="423.56666666666666" y="763.5166666666667" type="line"/>
    </contour>
  </outline>
</glyph>
<glyph name="five" format="2">
  <advance width="709.3166666666667"/>
  <unicode hex="0035"/>
  <outline>
    <contour>
      <point x="312.95000000000005" y="-18.616666666666667" type="curve" smooth="yes"/>
      <point x="556.55" y="-18.616666666666667"/>
      <point x="652.5166666666667" y="114.35000000000001"/>
      <point x="652.5166666666667" y="362.05" type="curve" smooth="yes"/>
      <point x="652.5166666666667" y="507.54999999999995" type="line" smooth="yes"/>
      <point x="652.5166666666667" y="709.6666666666666"/>
      <point x="599.2833333333334" y="826.2666666666667"/>
      <point x="462.9166666666667" y="826.2666666666667" type="curve" smooth="yes"/>
      <point x="362.6333333333334" y="826.2666666666667"/>
      <point x="315.7166666666667" y="774.2833333333333"/>
      <point x="294.25" y="682.8666666666666" type="curve"/>
      <point x="284.1" y="682.8666666666666" type="line"/>
      <point x="288.1" y="854.95" type="line"/>
      <point x="288.1" y="1072.7666666666667" type="line"/>
      <point x="618.2333333333333" y="1072.7666666666667" type="line"/>
      <point x="618.2333333333333" y="1278.0" type="line"/>
      <point x="71.63333333333333" y="1278.0" type="line"/>
      <point x="71.63333333333333" y="536.9166666666666" type="line"/>
      <point x="281.3333333333333" y="516.7" type="line"/>
      <point x="289.34999999999997" y="591.0166666666667"/>
      <point x="307.6" y="633.4833333333333"/>
      <point x="357.9333333333333" y="633.4833333333333" type="curve" smooth="yes"/>
      <point x="411.20000000000005" y="633.4833333333333"/>
      <point x="427.75" y="587.2166666666667"/>
      <point x="427.75" y="498.3333333333333" type="curve" smooth="yes"/>
      <point x="427.75" y="361.90000000000003" type="line" smooth="yes"/>
      <point x="427.75" y="244.10000000000002"/>
      <point x="385.9" y="190.38333333333333"/>
      <point x="274.9833333333333" y="190.38333333333333" type="curve" smooth="yes"/>
      <point x="194.15" y="190.38333333333333"/>
      <point x="123.55000000000001" y="220.0"/>
      <point x="66.25" y="255.08333333333334" type="curve"/>
      <point x="80.93333333333334" y="40.916666666666664" type="line"/>
      <point x="130.15" y="11.766666666666666"/>
      <point x="208.28333333333336" y="-18.616666666666667"/>
    </contour>
  </outline>
</glyph>
<glyph name="six" format="2">
  <advance width="767.8333333333335"/>
  <unicode hex="0036"/>
  <outline>
    <contour>
      <point x="389.76666666666665" y="-20.0" type="curve" smooth="yes"/>
      <point x="607.3833333333333" y="-20.0"/>
      <point x="712.8833333333332" y="103.73333333333335"/>
      <point x="712.8833333333332" y="345.2" type="curve" smooth="yes"/>
      <point x="712.8833333333332" y="485.81666666666666" type="line" smooth="yes"/>
      <point x="712.8833333333332" y="705.9166666666666"/>
      <point x="652.0333333333333" y="830.35"/>
      <point x="495.98333333333335" y="830.35" type="curve" smooth="yes"/>
      <point x="371.1" y="830.35"/>
      <point x="320.6333333333333" y="754.4"/>
      <point x="303.31666666666666" y="663.2666666666667" type="curve"/>
      <point x="259.18333333333334" y="663.2666666666667" type="line"/>
      <point x="290.7833333333333" y="527.0333333333333" type="line"/>
      <point x="302.1" y="591.8333333333334"/>
      <point x="336.5833333333333" y="639.7166666666667"/>
      <point x="396.15" y="639.7166666666667" type="curve" smooth="yes"/>
      <point x="466.18333333333334" y="639.7166666666667"/>
      <point x="490.20000000000005" y="586.3833333333334"/>
      <point x="490.20000000000005" y="478.35" type="curve" smooth="yes"/>
      <point x="490.20000000000005" y="340.04999999999995" type="line" smooth="yes"/>
      <point x="490.20000000000005" y="227.33333333333334"/>
      <point x="464.33333333333337" y="176.08333333333331"/>
      <point x="392.6833333333333" y="176.08333333333331" type="curve" smooth="yes"/>
      <point x="320.0333333333333" y="176.08333333333331"/>
      <point x="293.55" y="227.33333333333331"/>
      <point x="293.55" y="340.05" type="curve"/>
      <point x="293.55" y="859.2166666666667" type="line" smooth="yes"/>
      <point x="293.55" y="1018.9"/>
      <point x="347.7" y="1087.9166666666665"/>
      <point x="479.46666666666664" y="1087.9166666666665" type="curve" smooth="yes"/>
      <point x="559.5333333333333" y="1087.9166666666665"/>
      <point x="618.8333333333334" y="1062.6833333333334"/>
      <point x="666.8333333333333" y="1034.5166666666667" type="curve"/>
      <point x="649.7666666666667" y="1240.0666666666666" type="line"/>
      <point x="604.7" y="1266.5333333333333"/>
      <point x="526.9499999999999" y="1295.7666666666667"/>
      <point x="422.9" y="1295.7666666666667" type="curve" smooth="yes"/>
      <point x="184.6" y="1295.7666666666667"/>
      <point x="67.41666666666667" y="1148.1166666666666"/>
      <point x="67.41666666666667" y="876.2" type="curve" smooth="yes"/>
      <point x="67.41666666666667" y="352.1166666666667" type="line" smooth="yes"/>
      <point x="67.41666666666667" y="103.73333333333333"/>
      <point x="173.53333333333333" y="-20.0"/>
    </contour>
  </outline>
</glyph>
<glyph name="seven" format="2">
  <advance width="631.6166666666667"/>
  <unicode hex="0037"/>
  <outline>
    <contour>
      <point x="96.71666666666667" y="0.0" type="line"/>
      <point x="334.5333333333333" y="0.0" type="line"/>
      <point x="594.2333333333333" y="1061.7833333333333" type="line"/>
      <point x="594.2333333333333" y="1278.0" type="line"/>
      <point x="31.083333333333332" y="1278.0" type="line"/>
      <point x="31.083333333333332" y="1069.8500000000001" type="line"/>
      <point x="362.8666666666667" y="1069.8500000000001" type="line"/>
    </contour>
  </outline>
</glyph>
<glyph name="eight" format="2">
  <advance width="763.6999999999999"/>
  <unicode hex="0038"/>
  <outline>
    <contour>
      <point x="381.84999999999997" y="-22.766666666666666" type="curve" smooth="yes"/>
      <point x="611.7" y="-22.766666666666666"/>
      <point x="712.1333333333333" y="99.51666666666667"/>
      <point x="712.1333333333333" y="311.18333333333334" type="curve" smooth="yes"/>
      <point x="712.1333333333333" y="380.33333333333337" type="line" smooth="yes"/>
      <point x="712.1333333333333" y="534.5333333333333"/>
      <point x="661.3666666666667" y="628.3166666666667"/>
      <point x="539.8166666666667" y="665.7666666666667" type="curve"/>
      <point x="539.8166666666667" y="673.3000000000001" type="line"/>
      <point x="652.9833333333333" y="708.3666666666667"/>
      <point x="702.5166666666668" y="792.2333333333333"/>
      <point x="702.5166666666668" y="927.2166666666667" type="curve" smooth="yes"/>
      <point x="702.5166666666668" y="983.8833333333333" type="line" smooth="yes"/>
      <point x="702.5166666666668" y="1184.0166666666669"/>
      <point x="607.8499999999999" y="1299.5333333333333"/>
      <point x="381.84999999999997" y="1299.5333333333333" type="curve" smooth="yes"/>
      <point x="157.61666666666667" y="1299.5333333333333"/>
      <point x="61.18333333333334" y="1184.0166666666669"/>
      <point x="61.18333333333334" y="983.8833333333333" type="curve" smooth="yes"/>
      <point x="61.18333333333334" y="923.3833333333333" type="line" smooth="yes"/>
      <point x="61.18333333333334" y="789.4666666666666"/>
      <point x="110.71666666666668" y="706.9833333333333"/>
      <point x="223.88333333333333" y="673.3000000000001" type="curve"/>
      <point x="223.88333333333333" y="665.7666666666667" type="line"/>
      <point x="102.33333333333334" y="629.0833333333334"/>
      <point x="51.56666666666666" y="534.5333333333333"/>
      <point x="51.56666666666666" y="380.33333333333337" type="curve" smooth="yes"/>
      <point x="51.56666666666666" y="311.18333333333334" type="line" smooth="yes"/>
      <point x="51.56666666666666" y="99.51666666666667"/>
      <point x="152.0" y="-22.766666666666666"/>
    </contour>
    <contour>
      <point x="381.84999999999997" y="166.8" type="curve" smooth="yes"/>
      <point x="304.96666666666664" y="166.8"/>
      <point x="275.8666666666667" y="218.51666666666668"/>
      <point x="275.8666666666667" y="316.8666666666667" type="curve" smooth="yes"/>
      <point x="275.8666666666667" y="403.1333333333333" type="line" smooth="yes"/>
      <point x="275.8666666666667" y="497.1"/>
      <point x="307.35" y="539.9666666666666"/>
      <point x="381.85" y="561.6" type="curve"/>
      <point x="455.1166666666667" y="542.1166666666667"/>
      <point x="487.8333333333333" y="497.7166666666667"/>
      <point x="487.8333333333333" y="403.1333333333333" type="curve" smooth="yes"/>
      <point x="487.8333333333333" y="316.8666666666667" type="line" smooth="yes"/>
      <point x="487.8333333333333" y="218.51666666666668"/>
      <point x="458.73333333333335" y="166.8"/>
    </contour>
    <contour>
      <point x="381.84999999999997" y="742.1166666666667" type="curve"/>
      <point x="312.43333333333334" y="764.3666666666667"/>
      <point x="282.4166666666667" y="807.5333333333333"/>
      <point x="282.4166666666667" y="900.6500000000001" type="curve" smooth="yes"/>
      <point x="282.4166666666667" y="968.5166666666667" type="line" smooth="yes"/>
      <point x="282.4166666666667" y="1064.0166666666667"/>
      <point x="310.05" y="1114.6499999999999"/>
      <point x="381.84999999999997" y="1114.6499999999999" type="curve" smooth="yes"/>
      <point x="454.2666666666666" y="1114.6499999999999"/>
      <point x="480.9" y="1064.0166666666667"/>
      <point x="480.9" y="968.5166666666667" type="curve" smooth="yes"/>
      <point x="480.9" y="900.6500000000001" type="line" smooth="yes"/>
      <point x="480.9" y="808.9166666666666"/>
      <point x="449.1166666666666" y="761.75"/>
    </contour>
  </outline>
</glyph>
<glyph name="nine" format="2">
  <advance width="767.4500000000002"/>
  <unicode hex="0039"/>
  <outline>
    <contour>
      <point x="377.68333333333334" y="1295.7666666666667" type="curve" smooth="yes"/>
      <point x="160.45000000000002" y="1295.7666666666667"/>
      <point x="54.949999999999996" y="1171.65"/>
      <point x="54.949999999999996" y="930.1833333333333" type="curve" smooth="yes"/>
      <point x="54.949999999999996" y="783.2666666666667" type="line" smooth="yes"/>
      <point x="54.949999999999996" y="567.7"/>
      <point x="115.8" y="445.4166666666667"/>
      <point x="274.91666666666663" y="445.4166666666667" type="curve" smooth="yes"/>
      <point x="394.05" y="445.4166666666667"/>
      <point x="446.05" y="513.3166666666666"/>
      <point x="464.1333333333333" y="612.1166666666667" type="curve"/>
      <point x="529.7333333333332" y="612.1166666666667" type="line"/>
      <point x="475.90000000000003" y="743.6666666666667" type="line"/>
      <point x="464.5833333333333" y="682.5500000000001"/>
      <point x="430.1" y="636.05"/>
      <point x="370.9166666666667" y="636.05" type="curve" smooth="yes"/>
      <point x="301.26666666666665" y="636.05"/>
      <point x="277.25" y="688.3833333333333"/>
      <point x="277.25" y="795.8" type="curve" smooth="yes"/>
      <point x="277.25" y="935.3333333333334" type="line" smooth="yes"/>
      <point x="277.25" y="1048.4333333333334"/>
      <point x="303.1166666666667" y="1099.6833333333334"/>
      <point x="374.76666666666665" y="1099.6833333333334" type="curve" smooth="yes"/>
      <point x="447.41666666666663" y="1099.6833333333334"/>
      <point x="473.9" y="1048.4333333333332"/>
      <point x="473.9" y="935.3333333333334" type="curve"/>
      <point x="473.9" y="411.94999999999993" type="line" smooth="yes"/>
      <point x="473.9" y="255.71666666666667"/>
      <point x="419.2166666666667" y="187.46666666666667"/>
      <point x="288.4666666666667" y="187.46666666666667" type="curve" smooth="yes"/>
      <point x="208.08333333333337" y="187.46666666666667"/>
      <point x="148.85" y="212.70000000000002"/>
      <point x="100.61666666666666" y="240.86666666666667" type="curve"/>
      <point x="117.68333333333334" y="31.0" type="line"/>
      <point x="161.6" y="5.766666666666667"/>
      <point x="237.4333333333333" y="-20.0"/>
      <point x="338.4166666666667" y="-20.0" type="curve" smooth="yes"/>
      <point x="580.9333333333334" y="-20.0"/>
      <point x="700.0333333333333" y="127.26666666666667"/>
      <point x="700.0333333333333" y="398.4166666666667" type="curve" smooth="yes"/>
      <point x="700.0333333333333" y="923.6500000000001" type="line" smooth="yes"/>
      <point x="700.0333333333333" y="1171.6499999999999"/>
      <point x="595.8333333333334" y="1295.7666666666667"/>
    </contour>
  </outline>
</glyph>
<glyph name="less" format="2">
  <advance width="708.9499999999999"/>
  <unicode hex="003C"/>
  <outline>
    <contour>
      <point x="205.45" y="644.3833333333333" type="line"/>
      <point x="637.9166666666667" y="738.1333333333333" type="line"/>
      <point x="637.9166666666667" y="927.7666666666667" type="line"/>
      <point x="55.46666666666667" y="783.35" type="line"/>
      <point x="55.46666666666667" y="491.0333333333333" type="line"/>
      <point x="637.9166666666667" y="346.6166666666667" type="line"/>
      <point x="637.9166666666667" y="536.25" type="line"/>
      <point x="205.45" y="629.6166666666667" type="line"/>
    </contour>
  </outline>
</glyph>
<glyph name="equal" format="2">
  <advance width="710.3333333333333"/>
  <unicode hex="003D"/>
  <outline>
    <contour>
      <point x="63.25000000000001" y="376.1" type="line"/>
      <point x="647.0833333333334" y="376.1" type="line"/>
      <point x="647.0833333333334" y="561.4333333333334" type="line"/>
      <point x="63.25000000000001" y="561.4333333333334" type="line"/>
    </contour>
    <contour>
      <point x="63.25000000000001" y="711.5666666666667" type="line"/>
      <point x="647.0833333333334" y="711.5666666666667" type="line"/>
      <point x="647.0833333333334" y="896.9" type="line"/>
      <point x="63.25000000000001" y="896.9" type="line"/>
    </contour>
  </outline>
</glyph>
<glyph name="greater" format="2">
  <advance width="708.9499999999999"/>
  <unicode hex="003E"/>
  <outline>
    <contour>
      <point x="503.5" y="644.3833333333333" type="line"/>
      <point x="503.5" y="629.6166666666667" type="line"/>
      <point x="71.03333333333333" y="536.25" type="line"/>
      <point x="71.03333333333333" y="346.6166666666667" type="line"/>
      <point x="653.4833333333333" y="491.0333333333333" type="line"/>
      <point x="653.4833333333333" y="783.35" type="line"/>
      <point x="71.03333333333333" y="927.7666666666667" type="line"/>
      <point x="71.03333333333333" y="738.1333333333333" type="line"/>
    </contour>
  </outline>
</glyph>
<glyph name="question" format="2">
  <advance width="551.1333333333333"/>
  <unicode hex="003F"/>
  <outline>
    <contour>
      <point x="126.46666666666667" y="370.6333333333333" type="line"/>
      <point x="225.2" y="414.01666666666665" type="line" smooth="yes"/>
      <point x="419.66666666666674" y="499.1666666666667"/>
      <point x="501.8666666666667" y="604.5333333333333"/>
      <point x="501.8666666666667" y="830.2666666666667" type="curve" smooth="yes"/>
      <point x="501.8666666666667" y="986.9000000000001" type="line" smooth="yes"/>
      <point x="501.8666666666667" y="1181.95"/>
      <point x="422.4333333333333" y="1298.15"/>
      <point x="243.1" y="1298.15" type="curve" smooth="yes"/>
      <point x="161.58333333333331" y="1298.15"/>
      <point x="92.60000000000001" y="1274.5333333333333"/>
      <point x="46.383333333333326" y="1248.7666666666667" type="curve"/>
      <point x="24.16666666666667" y="1054.8333333333333" type="line"/>
      <point x="66.78333333333335" y="1079.3"/>
      <point x="109.78333333333333" y="1096.15"/>
      <point x="160.48333333333332" y="1096.15" type="curve" smooth="yes"/>
      <point x="245.26666666666665" y="1096.15"/>
      <point x="276.7333333333333" y="1045.7499999999998"/>
      <point x="276.7333333333333" y="948.55" type="curve" smooth="yes"/>
      <point x="276.7333333333333" y="826.5" type="line" smooth="yes"/>
      <point x="276.7333333333333" y="716.6"/>
      <point x="257.41666666666674" y="667.4166666666666"/>
      <point x="165.70000000000002" y="619.7" type="curve" smooth="yes"/>
      <point x="126.46666666666667" y="599.6166666666667" type="line"/>
    </contour>
    <contour>
      <point x="201.26666666666668" y="-21.833333333333332" type="curve" smooth="yes"/>
      <point x="280.3666666666667" y="-21.833333333333332"/>
      <point x="321.18333333333334" y="29.983333333333334"/>
      <point x="321.18333333333334" y="122.55" type="curve" smooth="yes"/>
      <point x="321.18333333333334" y="139.54999999999998" type="line" smooth="yes"/>
      <point x="321.18333333333334" y="230.73333333333332"/>
      <point x="280.3666666666667" y="283.31666666666666"/>
      <point x="201.26666666666668" y="283.31666666666666" type="curve" smooth="yes"/>
      <point x="118.7833333333333" y="283.31666666666666"/>
      <point x="81.35" y="230.73333333333332"/>
      <point x="81.35" y="139.54999999999998" type="curve" smooth="yes"/>
      <point x="81.35" y="122.55" type="line" smooth="yes"/>
      <point x="81.35" y="29.983333333333334"/>
      <point x="118.7833333333333" y="-21.833333333333332"/>
    </contour>
  </outline>
</glyph>
<glyph name="at" format="2">
  <advance width="1313.1333333333332"/>
  <unicode hex="0040"/>
  <outline>
    <contour>
      <point x="532.2333333333333" y="66.08333333333333" type="curve" smooth="yes"/>
      <point x="636.5166666666667" y="66.08333333333333"/>
      <point x="679.6" y="128.2"/>
      <point x="705.3" y="216.65" type="curve"/>
      <point x="738.6666666666666" y="216.65" type="line"/>
      <point x="720.3" y="323.2833333333333" type="line"/>
      <point x="705.1333333333333" y="270.0833333333333"/>
      <point x="678.7333333333333" y="237.75"/>
      <point x="637.7" y="237.75" type="curve" smooth="yes"/>
      <point x="594.9" y="237.75"/>
      <point x="578.5000000000001" y="267.76666666666665"/>
      <point x="578.5000000000001" y="326.48333333333335" type="curve" smooth="yes"/>
      <point x="578.5000000000001" y="357.79999999999995"/>
      <point x="582.2666666666668" y="392.71666666666664"/>
      <point x="607.5833333333333" y="637.6666666666667" type="curve" smooth="yes"/>
      <point x="616.4333333333333" y="726.3166666666666"/>
      <point x="641.5333333333333" y="766.4833333333333"/>
      <point x="690.1" y="766.4833333333333" type="curve" smooth="yes"/>
      <point x="731.6666666666666" y="766.4833333333333"/>
      <point x="753.5333333333334" y="732.7666666666667"/>
      <point x="753.5333333333334" y="673.3499999999999" type="curve" smooth="yes"/>
      <point x="753.5333333333334" y="663.3499999999999"/>
      <point x="753.15" y="653.9666666666666"/>
      <point x="752.15" y="643.5833333333333" type="curve"/>
      <point x="801.4333333333334" y="783.9666666666667" type="line"/>
      <point x="758.3833333333333" y="783.9666666666667" type="line"/>
      <point x="749.5333333333333" y="872.7166666666667"/>
      <point x="714.3666666666667" y="933.6166666666666"/>
      <point x="620.15" y="933.6166666666666" type="curve" smooth="yes"/>
      <point x="485.4" y="933.6166666666666"/>
      <point x="422.54999999999995" y="829.4166666666666"/>
      <point x="400.4" y="614.3" type="curve" smooth="yes"/>
      <point x="375.0833333333333" y="363.81666666666666"/>
      <point x="371.3166666666667" y="331.6666666666667"/>
      <point x="371.3166666666667" y="284.75" type="curve" smooth="yes"/>
      <point x="371.3166666666667" y="141.76666666666665"/>
      <point x="418.93333333333334" y="66.08333333333333"/>
    </contour>
    <contour>
      <point x="696.1500000000001" y="76.46666666666667" type="line"/>
      <point x="883.5" y="77.23333333333333" type="line"/>
      <point x="971.0333333333332" y="921.2333333333333" type="line"/>
      <point x="779.0666666666666" y="921.2333333333333" type="line"/>
      <point x="778.0666666666667" y="912.2333333333333" type="line"/>
      <point x="763.9166666666666" y="751.9333333333334" type="line"/>
      <point x="759.9166666666666" y="721.4833333333333" type="line"/>
      <point x="715.3" y="286.6666666666667" type="line"/>
      <point x="719.9166666666666" y="260.6" type="line"/>
    </contour>
    <contour>
      <point x="841.5166666666667" y="231.2" type="curve"/>
      <point x="696.1500000000001" y="76.46666666666667" type="line"/>
      <point x="745.9833333333332" y="67.08333333333334"/>
      <point x="818.6333333333332" y="61.7"/>
      <point x="877.7000000000002" y="64.08333333333333" type="curve" smooth="yes"/>
      <point x="1105.3333333333333" y="72.0"/>
      <point x="1209.0833333333333" y="159.39999999999998"/>
      <point x="1235.2333333333333" y="406.6666666666667" type="curve" smooth="yes"/>
      <point x="1248.6166666666668" y="537.35"/>
      <point x="1262.85" y="687.25"/>
      <point x="1268.7" y="770.6666666666666" type="curve" smooth="yes"/>
      <point x="1293.7833333333333" y="1140.6499999999999"/>
      <point x="1074.4166666666667" y="1332.4666666666665"/>
      <point x="715.0166666666667" y="1332.4666666666665" type="curve" smooth="yes"/>
      <point x="332.3833333333333" y="1332.4666666666665"/>
      <point x="141.2" y="1134.4666666666665"/>
      <point x="98.66666666666667" y="735.8833333333333" type="curve" smooth="yes"/>
      <point x="88.28333333333333" y="639.4333333333333"/>
      <point x="62.2" y="377.59999999999997"/>
      <point x="54.05" y="255.61666666666667" type="curve" smooth="yes"/>
      <point x="28.11666666666666" y="-121.63333333333333"/>
      <point x="247.16666666666666" y="-314.1666666666667"/>
      <point x="638.7333333333333" y="-314.1666666666667" type="curve" smooth="yes"/>
      <point x="829.0999999999999" y="-314.1666666666667"/>
      <point x="972.3833333333332" y="-268.93333333333334"/>
      <point x="1052.4666666666667" y="-224.3" type="curve"/>
      <point x="1076.5333333333333" y="-57.150000000000006" type="line"/>
      <point x="1003.45" y="-99.01666666666667"/>
      <point x="836.8499999999999" y="-156.48333333333335"/>
      <point x="656.4166666666666" y="-156.48333333333335" type="curve" smooth="yes"/>
      <point x="345.65000000000003" y="-156.48333333333335"/>
      <point x="210.78333333333336" y="1.6833333333333356"/>
      <point x="230.33333333333331" y="267.06666666666666" type="curve" smooth="yes"/>
      <point x="238.48333333333335" y="378.3666666666667"/>
      <point x="262.65" y="613.6833333333333"/>
      <point x="276.56666666666666" y="741.9" type="curve" smooth="yes"/>
      <point x="303.33333333333337" y="989.0166666666667"/>
      <point x="411.58333333333337" y="1176.0166666666667"/>
      <point x="704.8666666666667" y="1176.0166666666667" type="curve" smooth="yes"/>
      <point x="994.4" y="1176.0166666666667"/>
      <point x="1112.5833333333335" y="1009.9333333333334"/>
      <point x="1094.0333333333333" y="777.5" type="curve" smooth="yes"/>
      <point x="1087.1833333333332" y="695.1833333333333"/>
      <point x="1069.5666666666666" y="515.1333333333333"/>
      <point x="1058.8" y="417.8333333333333" type="curve" smooth="yes"/>
      <point x="1042.95" y="270.93333333333334"/>
      <point x="994.55" y="227.36666666666667"/>
      <point x="909.3666666666666" y="227.36666666666667" type="curve" smooth="yes"/>
      <point x="882.1333333333333" y="227.36666666666667"/>
      <point x="870.6666666666667" y="228.13333333333335"/>
    </contour>
  </outline>
</glyph>
<glyph name="A" format="2">
  <advance width="793.9333333333333"/>
  <unicode hex="0041"/>
  <anchor x="397.46666666666664" y="0.0" name="bottom"/>
  <anchor x="801.0000000000001" y="0.0" name="ogonek"/>
  <anchor x="397.46666666666664" y="1278.0" name="top"/>
  <outline>
    <contour>
      <point x="30.333333333333332" y="0.0" type="line"/>
      <point x="257.0833333333333" y="0.0" type="line"/>
      <point x="385.2333333333333" y="1111.8166666666666" type="line"/>
      <point x="406.84999999999997" y="1111.8166666666666" type="line"/>
      <point x="536.8499999999999" y="0.0" type="line"/>
      <point x="763.6000000000001" y="0.0" type="line"/>
      <point x="578.3333333333334" y="1278.0" type="line"/>
      <point x="213.74999999999997" y="1278.0" type="line"/>
    </contour>
    <contour>
      <point x="221.48333333333335" y="320.0" type="line"/>
      <point x="569.6833333333334" y="320.0" type="line"/>
      <point x="569.6833333333334" y="504.73333333333335" type="line"/>
      <point x="221.48333333333335" y="504.73333333333335" type="line"/>
    </contour>
  </outline>
</glyph>
<glyph name="B" format="2">
  <advance width="799.5500000000001"/>
  <unicode hex="0042"/>
  <anchor x="403.16666666666663" y="0.0" name="bottom"/>
  <anchor x="403.16666666666663" y="1278.0" name="top"/>
  <outline>
    <contour>
      <point x="255.6" y="0.0" type="line"/>
      <point x="424.31666666666666" y="0.0" type="line" smooth="yes"/>
      <point x="656.0166666666667" y="0.0"/>
      <point x="751.9833333333333" y="113.23333333333333"/>
      <point x="751.9833333333333" y="340.5" type="curve" smooth="yes"/>
      <point x="751.9833333333333" y="400.0" type="line" smooth="yes"/>
      <point x="751.9833333333333" y="561.2166666666667"/>
      <point x="704.9166666666666" y="656.75"/>
      <point x="546.05" y="681.9000000000001" type="curve"/>
      <point x="546.05" y="690.9000000000001" type="line"/>
      <point x="688.0833333333333" y="708.2166666666667"/>
      <point x="741.2166666666666" y="792.45"/>
      <point x="741.2166666666666" y="933.2833333333334" type="curve" smooth="yes"/>
      <point x="741.2166666666666" y="973.6166666666666" type="line" smooth="yes"/>
      <point x="741.2166666666666" y="1169.3833333333334"/>
      <point x="640.7166666666667" y="1278.0"/>
      <point x="404.6333333333334" y="1278.0" type="curve" smooth="yes"/>
      <point x="245.91666666666669" y="1278.0" type="line"/>
      <point x="245.91666666666669" y="1084.3666666666666" type="line"/>
      <point x="394.4" y="1084.3666666666666" type="line" smooth="yes"/>
      <point x="483.9833333333333" y="1084.3666666666666"/>
      <point x="515.9166666666666" y="1032.7166666666667"/>
      <point x="515.9166666666666" y="931.3666666666667" type="curve" smooth="yes"/>
      <point x="515.9166666666666" y="890.25" type="line" smooth="yes"/>
      <point x="515.9166666666666" y="793.8333333333334"/>
      <point x="484.59999999999997" y="741.5666666666667"/>
      <point x="390.0833333333333" y="741.5666666666667" type="curve" smooth="yes"/>
      <point x="249.61666666666665" y="741.5666666666667" type="line"/>
      <point x="249.61666666666665" y="561.0666666666666" type="line"/>
      <point x="390.61666666666673" y="561.0666666666666" type="line" smooth="yes"/>
      <point x="493.59999999999997" y="561.0666666666666"/>
      <point x="525.1500000000001" y="508.8"/>
      <point x="525.1500000000001" y="408.83333333333337" type="curve" smooth="yes"/>
      <point x="525.1500000000001" y="347.25" type="line" smooth="yes"/>
      <point x="525.1500000000001" y="247.28333333333333"/>
      <point x="493.59999999999997" y="195.01666666666665"/>
      <point x="400.4833333333333" y="195.01666666666665" type="curve" smooth="yes"/>
      <point x="255.6" y="195.01666666666665" type="line"/>
    </contour>
    <contour>
      <point x="88.80000000000001" y="0.0" type="line"/>
      <point x="312.95000000000005" y="0.0" type="line"/>
      <point x="312.95000000000005" y="1278.0" type="line"/>
      <point x="88.80000000000001" y="1278.0" type="line"/>
    </contour>
  </outline>
</glyph>
<glyph name="C" format="2">
  <advance width="628.3666666666668"/>
  <unicode hex="0043"/>
  <anchor x="354.8666666666667" y="0.0" name="bottom"/>
  <anchor x="354.8666666666667" y="1278.0" name="top"/>
  <outline>
    <contour>
      <point x="383.78333333333336" y="-20.150000000000002" type="curve" smooth="yes"/>
      <point x="469.15" y="-20.150000000000002"/>
      <point x="537.9833333333333" y="5.999999999999999"/>
      <point x="576.1333333333333" y="31.15" type="curve"/>
      <point x="590.8166666666666" y="247.54999999999998" type="line"/>
      <point x="554.8833333333333" y="220.00000000000003"/>
      <point x="512.8" y="198.91666666666669"/>
      <point x="452.7166666666667" y="198.91666666666669" type="curve" smooth="yes"/>
      <point x="342.93333333333334" y="198.91666666666669"/>
      <point x="303.6166666666667" y="269.7"/>
      <point x="303.6166666666667" y="392.88333333333327" type="curve" smooth="yes"/>
      <point x="303.6166666666667" y="885.7333333333333" type="line" smooth="yes"/>
      <point x="303.6166666666667" y="1010.9166666666666"/>
      <point x="339.55" y="1083.7"/>
      <point x="444.3333333333333" y="1083.7" type="curve" smooth="yes"/>
      <point x="503.0333333333333" y="1083.7"/>
      <point x="546.1166666666667" y="1061.6166666666666"/>
      <point x="583.4333333333333" y="1034.0666666666666" type="curve"/>
      <point x="569.1333333333333" y="1244.3833333333332" type="line"/>
      <point x="530.75" y="1272.3833333333334"/>
      <point x="466.6833333333333" y="1298.1499999999999"/>
      <point x="380.55" y="1298.1499999999999" type="curve" smooth="yes"/>
      <point x="169.6833333333333" y="1298.1499999999999"/>
      <point x="69.18333333333334" y="1163.3333333333333"/>
      <point x="69.18333333333334" y="903.7166666666666" type="curve" smooth="yes"/>
      <point x="69.18333333333334" y="379.05" type="line" smooth="yes"/>
      <point x="69.18333333333334" y="116.66666666666666"/>
      <point x="163.15" y="-20.150000000000002"/>
    </contour>
  </outline>
</glyph>
<glyph name="D" format="2">
  <advance width="833.0833333333333"/>
  <unicode hex="0044"/>
  <anchor x="403.3166666666667" y="0.0" name="bottom"/>
  <anchor x="418.08333333333337" y="639.0" name="center"/>
  <anchor x="403.3166666666667" y="1278.0" name="top"/>
  <outline>
    <contour>
      <point x="239.2166666666667" y="0.0" type="line"/>
      <point x="407.6833333333333" y="0.0" type="line" smooth="yes"/>
      <point x="655.15" y="0.0"/>
      <point x="763.9" y="129.51666666666665"/>
      <point x="763.9" y="368.93333333333334" type="curve" smooth="yes"/>
      <point x="763.9" y="909.0666666666667" type="line" smooth="yes"/>
      <point x="763.9" y="1148.1"/>
      <point x="652.3833333333333" y="1278.0"/>
      <point x="407.6833333333333" y="1278.0" type="curve" smooth="yes"/>
      <point x="241.0666666666667" y="1278.0" type="line"/>
      <point x="241.0666666666667" y="1079.7666666666667" type="line"/>
      <point x="395.6166666666667" y="1079.7666666666667" type="line" smooth="yes"/>
      <point x="490.96666666666664" y="1079.7666666666667"/>
      <point x="533.3000000000001" y="1026.1166666666668"/>
      <point x="533.3000000000001" y="908.8333333333334" type="curve" smooth="yes"/>
      <point x="533.3000000000001" y="369.93333333333334" type="line" smooth="yes"/>
      <point x="533.3000000000001" y="253.26666666666665"/>
      <point x="490.96666666666664" y="199.61666666666667"/>
      <point x="395.6166666666667" y="199.61666666666667" type="curve" smooth="yes"/>
      <point x="239.2166666666667" y="199.61666666666667" type="line"/>
    </contour>
    <contour>
      <point x="88.80000000000001" y="0.0" type="line"/>
      <point x="317.4" y="0.0" type="line"/>
      <point x="317.4" y="1278.0" type="line"/>
      <point x="88.80000000000001" y="1278.0" type="line"/>
    </contour>
  </outline>
</glyph>
<glyph name="E" format="2">
  <advance width="673.0333333333333"/>
  <unicode hex="0045"/>
  <anchor x="352.4166666666667" y="0.0" name="bottom"/>
  <anchor x="639.9" y="0.0" name="ogonek"/>
  <anchor x="352.4166666666667" y="1278.0" name="top"/>
  <anchor x="20.0" y="1278.0" name="topleft"/>
  <outline>
    <contour>
      <point x="88.80000000000001" y="0.0" type="line"/>
      <point x="314.55" y="0.0" type="line"/>
      <point x="314.55" y="1278.0" type="line"/>
      <point x="88.80000000000001" y="1278.0" type="line"/>
    </contour>
    <contour>
      <point x="235.28333333333333" y="0.0" type="line"/>
      <point x="616.7166666666667" y="0.0" type="line"/>
      <point x="616.7166666666667" y="204.76666666666668" type="line"/>
      <point x="235.28333333333333" y="204.76666666666668" type="line"/>
    </contour>
    <contour>
      <point x="239.60000000000002" y="551.0" type="line"/>
      <point x="607.5666666666666" y="551.0" type="line"/>
      <point x="607.5666666666666" y="750.9333333333334" type="line"/>
      <point x="239.60000000000002" y="750.9333333333334" type="line"/>
    </contour>
    <contour>
      <point x="234.04999999999998" y="1074.7666666666667" type="line"/>
      <point x="616.7166666666667" y="1074.7666666666667" type="line"/>
      <point x="616.7166666666667" y="1278.0" type="line"/>
      <point x="234.04999999999998" y="1278.0" type="line"/>
    </contour>
  </outline>
</glyph>
<glyph name="F" format="2">
  <advance width="638.5833333333334"/>
  <unicode hex="0046"/>
  <anchor x="319.4833333333334" y="0.0" name="bottom"/>
  <anchor x="319.4833333333334" y="1278.0" name="top"/>
  <outline>
    <contour>
      <point x="88.80000000000001" y="0.0" type="line"/>
      <point x="320.31666666666666" y="0.0" type="line"/>
      <point x="320.31666666666666" y="1278.0" type="line"/>
      <point x="88.80000000000001" y="1278.0" type="line"/>
    </contour>
    <contour>
      <point x="239.60000000000002" y="496.5" type="line"/>
      <point x="583.7333333333333" y="496.5" type="line"/>
      <point x="583.7333333333333" y="705.1833333333333" type="line"/>
      <point x="239.60000000000002" y="705.1833333333333" type="line"/>
    </contour>
    <contour>
      <point x="234.04999999999998" y="1069.3166666666666" type="line"/>
      <point x="594.1166666666667" y="1069.3166666666666" type="line"/>
      <point x="594.1166666666667" y="1278.0" type="line"/>
      <point x="234.04999999999998" y="1278.0" type="line"/>
    </contour>
  </outline>
</glyph>
<glyph name="G" format="2">
  <advance width="788.85"/>
  <unicode hex="0047"/>
  <anchor x="395.84999999999997" y="0.0" name="bottom"/>
  <anchor x="395.84999999999997" y="1278.0" name="top"/>
  <outline>
    <contour>
      <point x="316.7666666666667" y="-20.15" type="curve" smooth="yes"/>
      <point x="451.49999999999994" y="-20.15"/>
      <point x="493.58333333333337" y="60.43333333333334"/>
      <point x="512.7333333333332" y="159.16666666666669" type="curve"/>
      <point x="721.9999999999999" y="159.16666666666669" type="line"/>
      <point x="721.9999999999999" y="744.5" type="line"/>
      <point x="419.9333333333333" y="744.5" type="line"/>
      <point x="419.9333333333333" y="555.4499999999999" type="line"/>
      <point x="554.3333333333334" y="555.4499999999999" type="line"/>
      <point x="515.2" y="651.5666666666666" type="line"/>
      <point x="515.2" y="289.5333333333333" type="line"/>
      <point x="501.73333333333335" y="232.88333333333333"/>
      <point x="471.33333333333337" y="187.0"/>
      <point x="407.0666666666666" y="187.0" type="curve" smooth="yes"/>
      <point x="331.95" y="187.0"/>
      <point x="300.1666666666667" y="240.18333333333334"/>
      <point x="300.1666666666667" y="345.53333333333336" type="curve" smooth="yes"/>
      <point x="300.1666666666667" y="864.0333333333333" type="line" smooth="yes"/>
      <point x="300.1666666666667" y="1012.5166666666667"/>
      <point x="355.78333333333336" y="1087.1499999999999"/>
      <point x="497.85" y="1087.1499999999999" type="curve" smooth="yes"/>
      <point x="584.2333333333333" y="1087.1499999999999"/>
      <point x="652.7666666666667" y="1054.7666666666667"/>
      <point x="702.4666666666667" y="1019.45" type="curve"/>
      <point x="685.4" y="1231.8500000000001" type="line"/>
      <point x="636.8666666666667" y="1265.6166666666666"/>
      <point x="548.8166666666667" y="1298.1499999999999"/>
      <point x="442.44999999999993" y="1298.1499999999999" type="curve" smooth="yes"/>
      <point x="196.13333333333335" y="1298.1499999999999"/>
      <point x="69.18333333333334" y="1157.8666666666668"/>
      <point x="69.18333333333334" y="874.1666666666666" type="curve" smooth="yes"/>
      <point x="69.18333333333334" y="354.6" type="line" smooth="yes"/>
      <point x="69.18333333333334" y="118.73333333333332"/>
      <point x="135.18333333333334" y="-20.15"/>
    </contour>
    <contour>
      <point x="524.7333333333332" y="209.68333333333334" type="line"/>
      <point x="516.9666666666666" y="0.0" type="line"/>
      <point x="721.9999999999999" y="0.0" type="line"/>
      <point x="721.9999999999999" y="209.68333333333334" type="line"/>
    </contour>
  </outline>
</glyph>
<glyph name="H" format="2">
  <advance width="864.3833333333333"/>
  <unicode hex="0048"/>
  <anchor x="432.3833333333334" y="0.0" name="bottom"/>
  <anchor x="432.3833333333334" y="639.0" name="center"/>
  <anchor x="432.3833333333334" y="1278.0" name="top"/>
  <anchor x="20.0" y="1278.0" name="topleft"/>
  <outline>
    <contour>
      <point x="322.4666666666667" y="0.0" type="line"/>
      <point x="322.4666666666667" y="1278.0" type="line"/>
      <point x="88.80000000000001" y="1278.0" type="line"/>
      <point x="88.80000000000001" y="0.0" type="line"/>
    </contour>
    <contour>
      <point x="775.5833333333333" y="0.0" type="line"/>
      <point x="775.5833333333333" y="1278.0" type="line"/>
      <point x="541.9166666666667" y="1278.0" type="line"/>
      <point x="541.9166666666667" y="0.0" type="line"/>
    </contour>
    <contour>
      <point x="240.83333333333337" y="754.3166666666666" type="line"/>
      <point x="240.83333333333337" y="552.9333333333333" type="line"/>
      <point x="616.7166666666667" y="552.9333333333333" type="line"/>
      <point x="616.7166666666667" y="754.3166666666666" type="line"/>
    </contour>
  </outline>
</glyph>
<glyph name="I" format="2">
  <advance width="412.50000000000006"/>
  <unicode hex="0049"/>
  <anchor x="206.25000000000003" y="0.0" name="bottom"/>
  <anchor x="352.8833333333334" y="0.0" name="ogonek"/>
  <anchor x="206.25" y="1278.0" name="top"/>
  <anchor x="20.0" y="1278.0" name="topleft"/>
  <outline>
    <contour>
      <point x="323.0833333333333" y="0.0" type="line"/>
      <point x="323.0833333333333" y="1278.0" type="line"/>
      <point x="89.41666666666669" y="1278.0" type="line"/>
      <point x="89.41666666666669" y="0.0" type="line"/>
    </contour>
  </outline>
</glyph>
<glyph name="J" format="2">
  <advance width="530.5333333333333"/>
  <unicode hex="004A"/>
  <anchor x="265.8833333333333" y="0.0" name="bottom"/>
  <anchor x="330.51666666666665" y="1278.0" name="top"/>
  <outline>
    <contour>
      <point x="177.36666666666665" y="-17.0" type="curve" smooth="yes"/>
      <point x="376.45" y="-17.0"/>
      <point x="447.7333333333334" y="98.26666666666667"/>
      <point x="447.7333333333334" y="305.4166666666667" type="curve" smooth="yes"/>
      <point x="447.7333333333334" y="1278.0" type="line"/>
      <point x="214.6833333333333" y="1278.0" type="line"/>
      <point x="214.6833333333333" y="306.95" type="line" smooth="yes"/>
      <point x="214.6833333333333" y="234.16666666666669"/>
      <point x="192.98333333333332" y="188.23333333333332"/>
      <point x="118.35" y="188.23333333333332" type="curve" smooth="yes"/>
      <point x="86.18333333333332" y="188.23333333333332"/>
      <point x="59.099999999999994" y="195.46666666666667"/>
      <point x="28.783333333333335" y="208.3166666666667" type="curve"/>
      <point x="43.083333333333336" y="8.533333333333333" type="line"/>
      <point x="78.99999999999999" y="-7.2333333333333325"/>
      <point x="127.30000000000001" y="-17.0"/>
    </contour>
  </outline>
</glyph>
<glyph name="K" format="2">
  <advance width="811.5166666666665"/>
  <unicode hex="004B"/>
  <anchor x="428.2166666666667" y="0.0" name="bottom"/>
  <anchor x="428.2166666666667" y="1278.0" name="top"/>
  <outline>
    <contour>
      <point x="562.5166666666667" y="0.0" type="line"/>
      <point x="801.9499999999999" y="0.0" type="line"/>
      <point x="552.9833333333333" y="703.5833333333334" type="line"/>
      <point x="554.2166666666667" y="646.9166666666667" type="line"/>
      <point x="790.8000000000001" y="1278.0" type="line"/>
      <point x="553.75" y="1278.0" type="line"/>
      <point x="362.9166666666667" y="735.9833333333332" type="line"/>
      <point x="299.15" y="735.9833333333332" type="line"/>
      <point x="299.15" y="571.6333333333333" type="line"/>
      <point x="362.9166666666667" y="571.6333333333333" type="line"/>
    </contour>
    <contour>
      <point x="88.80000000000001" y="0.0" type="line"/>
      <point x="316.31666666666666" y="0.0" type="line"/>
      <point x="316.31666666666666" y="1278.0" type="line"/>
      <point x="88.80000000000001" y="1278.0" type="line"/>
    </contour>
  </outline>
</glyph>
<glyph name="L" format="2">
  <advance width="627.5166666666667"/>
  <unicode hex="004C"/>
  <anchor x="330.66666666666663" y="0.0" name="bottom"/>
  <anchor x="242.16666666666666" y="647.6333333333334" name="center"/>
  <anchor x="205.63333333333335" y="1278.0" name="top"/>
  <anchor x="437.48333333333335" y="1278.0" name="topright"/>
  <outline>
    <contour>
      <point x="321.85" y="0.0" type="line"/>
      <point x="321.85" y="1278.0" type="line"/>
      <point x="88.80000000000001" y="1278.0" type="line"/>
      <point x="88.80000000000001" y="0.0" type="line"/>
    </contour>
    <contour>
      <point x="235.28333333333333" y="207.91666666666669" type="line"/>
      <point x="235.28333333333333" y="0.0" type="line"/>
      <point x="593.3666666666667" y="0.0" type="line"/>
      <point x="593.3666666666667" y="207.91666666666669" type="line"/>
    </contour>
  </outline>
</glyph>
<glyph name="M" format="2">
  <advance width="1112.75"/>
  <unicode hex="004D"/>
  <anchor x="557.1833333333334" y="0.0" name="bottom"/>
  <anchor x="557.1833333333334" y="1278.0" name="top"/>
  <outline>
    <contour>
      <point x="85.56666666666666" y="0.0" type="line"/>
      <point x="300.7166666666667" y="0.0" type="line"/>
      <point x="301.95000000000005" y="367.31666666666666" type="line"/>
      <point x="294.56666666666666" y="987.85" type="line"/>
      <point x="303.71666666666664" y="987.85" type="line"/>
      <point x="452.29999999999995" y="143.3" type="line"/>
      <point x="660.45" y="143.3" type="line"/>
      <point x="809.0333333333333" y="987.85" type="line"/>
      <point x="818.1833333333334" y="987.85" type="line"/>
      <point x="811.4166666666666" y="367.31666666666666" type="line"/>
      <point x="812.0333333333333" y="0.0" type="line"/>
      <point x="1027.1833333333334" y="0.0" type="line"/>
      <point x="1018.1833333333334" y="1278.0" type="line"/>
      <point x="695.3000000000001" y="1278.0" type="line"/>
      <point x="561.95" y="466.0833333333333" type="line"/>
      <point x="553.5666666666667" y="466.0833333333333" type="line"/>
      <point x="417.45" y="1278.0" type="line"/>
      <point x="94.56666666666668" y="1278.0" type="line"/>
    </contour>
  </outline>
</glyph>
<glyph name="N" format="2">
  <advance width="900.35"/>
  <unicode hex="004E"/>
  <anchor x="457.28333333333336" y="0.0" name="bottom"/>
  <anchor x="457.28333333333336" y="1278.0" name="top"/>
  <outline>
    <contour>
      <point x="410.59999999999997" y="1279.3833333333334" type="line"/>
      <point x="88.80000000000001" y="1279.3833333333334" type="line"/>
      <point x="88.80000000000001" y="0.0" type="line"/>
      <point x="302.65000000000003" y="0.0" type="line"/>
      <point x="302.65000000000003" y="395.3833333333333" type="line"/>
      <point x="285.35" y="1025.9" type="line"/>
      <point x="295.35" y="1025.9" type="line"/>
      <point x="491.2833333333333" y="0.0" type="line"/>
      <point x="811.55" y="0.0" type="line"/>
      <point x="811.55" y="1279.3833333333334" type="line"/>
      <point x="599.0833333333334" y="1279.3833333333334" type="line"/>
      <point x="599.0833333333334" y="884.0" type="line"/>
      <point x="615.7666666666667" y="264.1666666666667" type="line"/>
      <point x="605.7666666666667" y="264.1666666666667" type="line"/>
    </contour>
  </outline>
</glyph>
<glyph name="O" format="2">
  <advance width="836.1500000000001"/>
  <unicode hex="004F"/>
  <anchor x="417.7666666666667" y="0.0" name="bottom"/>
  <anchor x="417.7666666666667" y="639.0" name="center"/>
  <anchor x="613.4166666666667" y="3.083333333333333" name="ogonek"/>
  <anchor x="417.7666666666667" y="1278.0" name="top"/>
  <anchor x="20.0" y="1278.0" name="topleft"/>
  <anchor x="804.5500000000001" y="1278.0" name="topright"/>
  <outline>
    <contour>
      <point x="417.7666666666667" y="-20.15" type="curve" smooth="yes"/>
      <point x="652.2333333333333" y="-20.15"/>
      <point x="766.9666666666667" y="114.66666666666667"/>
      <point x="766.9666666666667" y="378.90000000000003" type="curve" smooth="yes"/>
      <point x="766.9666666666667" y="898.4833333333333" type="line" smooth="yes"/>
      <point x="766.9666666666667" y="1161.3333333333333"/>
      <point x="652.2333333333333" y="1298.15"/>
      <point x="417.7666666666667" y="1298.15" type="curve" smooth="yes"/>
      <point x="183.30000000000004" y="1298.15"/>
      <point x="69.18333333333334" y="1161.3333333333333"/>
      <point x="69.18333333333334" y="898.4833333333333" type="curve" smooth="yes"/>
      <point x="69.18333333333334" y="378.90000000000003" type="line" smooth="yes"/>
      <point x="69.18333333333334" y="114.66666666666667"/>
      <point x="183.29999999999998" y="-20.15"/>
    </contour>
    <contour>
      <point x="417.7666666666667" y="176.55" type="curve" smooth="yes"/>
      <point x="333.95" y="176.55"/>
      <point x="303.6166666666667" y="236.58333333333334"/>
      <point x="303.6166666666667" y="355.91666666666663" type="curve" smooth="yes"/>
      <point x="303.6166666666667" y="922.4666666666666" type="line" smooth="yes"/>
      <point x="303.6166666666667" y="1042.0333333333333"/>
      <point x="333.95" y="1101.45"/>
      <point x="417.7666666666667" y="1101.45" type="curve" smooth="yes"/>
      <point x="501.58333333333337" y="1101.45"/>
      <point x="531.9166666666666" y="1042.0333333333333"/>
      <point x="531.9166666666666" y="922.4666666666666" type="curve" smooth="yes"/>
      <point x="531.9166666666666" y="355.91666666666663" type="line" smooth="yes"/>
      <point x="531.9166666666666" y="236.58333333333334"/>
      <point x="501.58333333333337" y="176.55"/>
    </contour>
  </outline>
</glyph>
<glyph name="P" format="2">
  <advance width="783.9833333333333"/>
  <unicode hex="0050"/>
  <anchor x="392.29999999999995" y="0.0" name="bottom"/>
  <anchor x="392.29999999999995" y="1278.0" name="top"/>
  <outline>
    <contour>
      <point x="227.06666666666666" y="382.31666666666666" type="line"/>
      <point x="397.45" y="382.31666666666666" type="line" smooth="yes"/>
      <point x="632.2166666666667" y="382.31666666666666"/>
      <point x="734.8833333333333" y="500.7666666666667"/>
      <point x="734.8833333333333" y="740.6999999999999" type="curve" smooth="yes"/>
      <point x="734.8833333333333" y="920.4666666666667" type="line" smooth="yes"/>
      <point x="734.8833333333333" y="1151.8666666666668"/>
      <point x="632.2166666666667" y="1278.0"/>
      <point x="395.3" y="1278.0" type="curve" smooth="yes"/>
      <point x="228.91666666666666" y="1278.0" type="line"/>
      <point x="228.91666666666666" y="1081.3" type="line"/>
      <point x="386.76666666666665" y="1081.3" type="line" smooth="yes"/>
      <point x="474.79999999999995" y="1081.3"/>
      <point x="506.51666666666665" y="1028.65"/>
      <point x="506.51666666666665" y="916.4666666666667" type="curve" smooth="yes"/>
      <point x="506.51666666666665" y="744.0833333333334" type="line" smooth="yes"/>
      <point x="506.51666666666665" y="631.2833333333333"/>
      <point x="474.79999999999995" y="579.0166666666667"/>
      <point x="386.15" y="579.0166666666667" type="curve" smooth="yes"/>
      <point x="227.06666666666666" y="579.0166666666667" type="line"/>
    </contour>
    <contour>
      <point x="88.80000000000001" y="0.0" type="line"/>
      <point x="317.01666666666665" y="0.0" type="line"/>
      <point x="317.01666666666665" y="410.6833333333333" type="line"/>
      <point x="315.01666666666665" y="523.75" type="line"/>
      <point x="315.01666666666665" y="1278.0" type="line"/>
      <point x="88.80000000000001" y="1278.0" type="line"/>
    </contour>
  </outline>
</glyph>
<glyph name="Q" format="2">
  <advance width="839.9166666666667"/>
  <unicode hex="0051"/>
  <anchor x="420.7666666666667" y="0.0" name="bottom"/>
  <anchor x="420.7666666666667" y="1278.0" name="top"/>
  <outline>
    <contour>
      <point x="829.3" y="-35.36666666666667" type="line"/>
      <point x="829.3" y="161.1" type="line"/>
      <point x="588.4000000000001" y="153.33333333333334" type="line"/>
      <point x="588.4000000000001" y="163.71666666666667" type="line"/>
      <point x="714.1166666666667" y="189.05"/>
      <point x="766.9666666666666" y="274.25"/>
      <point x="766.9666666666666" y="443.46666666666664" type="curve" smooth="yes"/>
      <point x="766.9666666666666" y="892.3166666666667" type="line" smooth="yes"/>
      <point x="766.9666666666666" y="1160.7166666666667"/>
      <point x="651.0" y="1298.15"/>
      <point x="417.7666666666667" y="1298.15" type="curve" smooth="yes"/>
      <point x="184.53333333333336" y="1298.15"/>
      <point x="69.18333333333334" y="1160.7166666666667"/>
      <point x="69.18333333333334" y="892.3166666666667" type="curve" smooth="yes"/>
      <point x="69.18333333333334" y="387.5333333333333" type="line" smooth="yes"/>
      <point x="69.18333333333334" y="119.36666666666667"/>
      <point x="175.53333333333336" y="-9.466666666666667"/>
      <point x="465.3666666666666" y="-20.916666666666668" type="curve" smooth="yes"/>
    </contour>
    <contour>
      <point x="436.3166666666666" y="175.3166666666667" type="line" smooth="yes"/>
      <point x="341.79999999999995" y="175.31666666666666"/>
      <point x="303.6166666666667" y="241.11666666666665"/>
      <point x="303.6166666666667" y="357.8666666666667" type="curve" smooth="yes"/>
      <point x="303.6166666666667" y="915.0666666666666" type="line" smooth="yes"/>
      <point x="303.6166666666667" y="1042.65"/>
      <point x="335.18333333333334" y="1102.0666666666668"/>
      <point x="417.7666666666667" y="1102.0666666666668" type="curve" smooth="yes"/>
      <point x="500.35" y="1102.0666666666668"/>
      <point x="531.9166666666666" y="1042.65"/>
      <point x="531.9166666666666" y="915.0666666666666" type="curve" smooth="yes"/>
      <point x="531.9166666666666" y="371.33333333333337" type="line" smooth="yes"/>
      <point x="531.9166666666666" y="251.4333333333333"/>
      <point x="504.73333333333335" y="197.63333333333333"/>
      <point x="447.7833333333333" y="175.3166666666667" type="curve"/>
    </contour>
  </outline>
</glyph>
<glyph name="R" format="2">
  <advance width="801.1500000000001"/>
  <unicode hex="0052"/>
  <anchor x="412.2333333333333" y="0.0" name="bottom"/>
  <anchor x="402.6166666666666" y="1278.0" name="top"/>
  <outline>
    <contour>
      <point x="523.3000000000001" y="0.0" type="line"/>
      <point x="753.2833333333334" y="0.0" type="line"/>
      <point x="724.9666666666668" y="313.84999999999997" type="line" smooth="yes"/>
      <point x="708.1166666666667" y="497.68333333333334"/>
      <point x="674.5833333333334" y="596.7333333333332"/>
      <point x="484.45000000000005" y="615.9000000000001" type="curve"/>
      <point x="541.0500000000001" y="587.2333333333333" type="line"/>
      <point x="541.0500000000001" y="615.9666666666667" type="line"/>
      <point x="681.1666666666666" y="631.6833333333334"/>
      <point x="741.1999999999999" y="720.0666666666667"/>
      <point x="741.1999999999999" y="868.7166666666667" type="curve" smooth="yes"/>
      <point x="741.1999999999999" y="957.5166666666667" type="line" smooth="yes"/>
      <point x="741.1999999999999" y="1163.6333333333332"/>
      <point x="641.0833333333334" y="1278.0"/>
      <point x="407.76666666666665" y="1278.0" type="curve" smooth="yes"/>
      <point x="249.3666666666667" y="1278.0" type="line"/>
      <point x="249.3666666666667" y="1081.3" type="line"/>
      <point x="391.7" y="1081.3" type="line" smooth="yes"/>
      <point x="483.28333333333336" y="1081.3"/>
      <point x="512.0666666666667" y="1029.2666666666669"/>
      <point x="512.0666666666667" y="917.0833333333333" type="curve" smooth="yes"/>
      <point x="512.0666666666667" y="815.3166666666667" type="line" smooth="yes"/>
      <point x="512.0666666666667" y="711.15"/>
      <point x="480.90000000000003" y="660.7333333333333"/>
      <point x="388.6166666666667" y="660.1166666666667" type="curve" smooth="yes"/>
      <point x="254.45" y="659.5" type="line"/>
      <point x="254.45" y="471.56666666666666" type="line"/>
      <point x="375.68333333333334" y="471.56666666666666" type="line" smooth="yes"/>
      <point x="468.81666666666666" y="471.56666666666666"/>
      <point x="497.43333333333334" y="406.05"/>
      <point x="503.5166666666667" y="308.7" type="curve" smooth="yes"/>
    </contour>
    <contour>
      <point x="88.80000000000001" y="0.0" type="line"/>
      <point x="317.0166666666667" y="0.0" type="line"/>
      <point x="317.0166666666667" y="508.23333333333335" type="line"/>
      <point x="315.6333333333334" y="604.0833333333334" type="line"/>
      <point x="315.6333333333334" y="1278.0" type="line"/>
      <point x="88.80000000000001" y="1278.0" type="line"/>
    </contour>
  </outline>
</glyph>
<glyph name="S" format="2">
  <advance width="659.1833333333333"/>
  <unicode hex="0053"/>
  <anchor x="316.7833333333333" y="0.0" name="bottom"/>
  <anchor x="316.7833333333333" y="1278.0" name="top"/>
  <outline>
    <contour>
      <point x="287.25" y="-20.150000000000002" type="curve" smooth="yes"/>
      <point x="507.5" y="-20.150000000000002"/>
      <point x="612.2333333333333" y="104.45"/>
      <point x="612.2333333333333" y="322.5666666666667" type="curve" smooth="yes"/>
      <point x="612.2333333333333" y="362.3666666666667" type="line" smooth="yes"/>
      <point x="612.2333333333333" y="534.75"/>
      <point x="556.7833333333333" y="612.6666666666666"/>
      <point x="429.01666666666665" y="717.8833333333333" type="curve" smooth="yes"/>
      <point x="322.6166666666667" y="805.7333333333333"/>
      <point x="275.53333333333336" y="850.05"/>
      <point x="275.53333333333336" y="943.6500000000001" type="curve" smooth="yes"/>
      <point x="275.53333333333336" y="959.1333333333333" type="line" smooth="yes"/>
      <point x="275.53333333333336" y="1043.5"/>
      <point x="313.6166666666667" y="1087.9166666666665"/>
      <point x="399.4166666666667" y="1087.9166666666665" type="curve" smooth="yes"/>
      <point x="475.3333333333333" y="1087.9166666666665"/>
      <point x="532.4833333333332" y="1058.15"/>
      <point x="579.1" y="1024.45" type="curve"/>
      <point x="564.8" y="1233.1666666666665" type="line"/>
      <point x="515.35" y="1268.4666666666665"/>
      <point x="441.2166666666667" y="1298.15"/>
      <point x="341.93333333333334" y="1298.15" type="curve" smooth="yes"/>
      <point x="145.98333333333335" y="1298.15"/>
      <point x="42.33333333333333" y="1178.7833333333333"/>
      <point x="42.33333333333333" y="977.7333333333333" type="curve" smooth="yes"/>
      <point x="42.33333333333333" y="947.95" type="line" smooth="yes"/>
      <point x="42.33333333333333" y="778.5666666666667"/>
      <point x="116.69999999999999" y="686.8166666666666"/>
      <point x="245.93333333333334" y="578.75" type="curve" smooth="yes"/>
      <point x="334.8" y="504.43333333333334"/>
      <point x="379.03333333333336" y="464.41666666666663"/>
      <point x="379.03333333333336" y="368.1333333333333" type="curve" smooth="yes"/>
      <point x="379.03333333333336" y="333.8666666666667" type="line" smooth="yes"/>
      <point x="379.03333333333336" y="245.73333333333332"/>
      <point x="338.95" y="194.7"/>
      <point x="244.23333333333332" y="194.7" type="curve" smooth="yes"/>
      <point x="168.25" y="194.7"/>
      <point x="100.10000000000001" y="224.85"/>
      <point x="46.86666666666667" y="257.78333333333336" type="curve"/>
      <point x="61.55" y="39.53333333333334" type="line"/>
      <point x="110.53333333333335" y="8.0"/>
      <point x="189.28333333333333" y="-20.150000000000002"/>
    </contour>
  </outline>
</glyph>
<glyph name="T" format="2">
  <advance width="690.7666666666667"/>
  <unicode hex="0054"/>
  <anchor x="345.3833333333333" y="0.0" name="bottom"/>
  <anchor x="345.3833333333333" y="639.0" name="center"/>
  <anchor x="345.3833333333333" y="1278.0" name="top"/>
  <outline>
    <contour>
      <point x="228.55" y="0.0" type="line"/>
      <point x="462.2166666666667" y="0.0" type="line"/>
      <point x="462.2166666666667" y="1278.0" type="line"/>
      <point x="228.55" y="1278.0" type="line"/>
    </contour>
    <contour>
      <point x="30.0" y="1071.3166666666666" type="line"/>
      <point x="660.7666666666667" y="1071.3166666666666" type="line"/>
      <point x="660.7666666666667" y="1278.0" type="line"/>
      <point x="30.0" y="1278.0" type="line"/>
    </contour>
  </outline>
</glyph>
<glyph name="U" format="2">
  <advance width="850.3833333333333"/>
  <unicode hex="0055"/>
  <anchor x="425.3833333333334" y="0.0" name="bottom"/>
  <anchor x="617.65" y="3.083333333333333" name="ogonek"/>
  <anchor x="425.3833333333334" y="1278.0" name="top"/>
  <anchor x="849.75" y="1278.0" name="topright"/>
  <outline>
    <contour>
      <point x="425.3833333333334" y="-20.15" type="curve" smooth="yes"/>
      <point x="657.2333333333333" y="-20.15"/>
      <point x="768.2" y="114.05000000000001"/>
      <point x="768.2" y="369.6" type="curve" smooth="yes"/>
      <point x="768.2" y="1278.0" type="line"/>
      <point x="534.5333333333334" y="1278.0" type="line"/>
      <point x="534.5333333333334" y="349.23333333333335" type="line" smooth="yes"/>
      <point x="534.5333333333334" y="234.11666666666665"/>
      <point x="505.5833333333333" y="178.3166666666667"/>
      <point x="425.3833333333334" y="178.3166666666667" type="curve" smooth="yes"/>
      <point x="344.8" y="178.3166666666667"/>
      <point x="315.85" y="234.11666666666665"/>
      <point x="315.85" y="349.23333333333335" type="curve" smooth="yes"/>
      <point x="315.85" y="1278.0" type="line"/>
      <point x="82.18333333333334" y="1278.0" type="line"/>
      <point x="82.18333333333334" y="369.6" type="line" smooth="yes"/>
      <point x="82.18333333333334" y="114.05000000000001"/>
      <point x="193.15000000000003" y="-20.15"/>
    </contour>
  </outline>
</glyph>
<glyph name="V" format="2">
  <advance width="798.4499999999999"/>
  <unicode hex="0056"/>
  <anchor x="398.9166666666667" y="0.0" name="bottom"/>
  <anchor x="398.9166666666667" y="1278.0" name="top"/>
  <outline>
    <contour>
      <point x="213.28333333333336" y="0.0" type="line"/>
      <point x="585.1666666666667" y="0.0" type="line"/>
      <point x="769.35" y="1278.0" type="line"/>
      <point x="537.45" y="1278.0" type="line"/>
      <point x="408.9166666666667" y="166.79999999999998" type="line"/>
      <point x="388.9166666666667" y="166.79999999999998" type="line"/>
      <point x="261.0" y="1278.0" type="line"/>
      <point x="29.099999999999998" y="1278.0" type="line"/>
    </contour>
  </outline>
</glyph>
<glyph name="W" format="2">
  <advance width="1180.8333333333333"/>
  <unicode hex="0057"/>
  <anchor x="590.4166666666666" y="0.0" name="bottom"/>
  <anchor x="590.4166666666666" y="1278.0" name="top"/>
  <outline>
    <contour>
      <point x="162.1833333333333" y="0.0" type="line"/>
      <point x="500.9166666666667" y="0.0" type="line"/>
      <point x="559.6" y="716.8166666666667" type="line"/>
      <point x="585.8" y="1061.6" type="line"/>
      <point x="596.1833333333333" y="1061.6" type="line"/>
      <point x="622.0" y="716.8166666666667" type="line"/>
      <point x="681.4499999999999" y="0.0" type="line"/>
      <point x="1020.1833333333334" y="0.0" type="line"/>
      <point x="1142.5" y="1278.0" type="line"/>
      <point x="912.1333333333332" y="1278.0" type="line"/>
      <point x="853.1166666666668" y="451.81666666666666" type="line"/>
      <point x="835.55" y="193.46666666666667" type="line"/>
      <point x="825.1666666666667" y="193.46666666666667" type="line"/>
      <point x="803.1333333333333" y="451.81666666666666" type="line"/>
      <point x="729.5166666666668" y="1254.45" type="line"/>
      <point x="452.08333333333337" y="1254.45" type="line"/>
      <point x="377.70000000000005" y="451.81666666666666" type="line"/>
      <point x="355.66666666666663" y="193.46666666666667" type="line"/>
      <point x="345.2833333333333" y="193.46666666666667" type="line"/>
      <point x="328.09999999999997" y="451.81666666666666" type="line"/>
      <point x="270.23333333333335" y="1278.0" type="line"/>
      <point x="38.333333333333336" y="1278.0" type="line"/>
    </contour>
  </outline>
</glyph>
<glyph name="X" format="2">
  <advance width="768.2333333333335"/>
  <unicode hex="0058"/>
  <anchor x="384.61666666666673" y="0.0" name="bottom"/>
  <anchor x="384.61666666666673" y="1278.0" name="top"/>
  <outline>
    <contour>
      <point x="28.333333333333336" y="0.0" type="line"/>
      <point x="252.86666666666665" y="0.0" type="line"/>
      <point x="377.84999999999997" y="536.25" type="line"/>
      <point x="390.3833333333334" y="536.25" type="line"/>
      <point x="515.3666666666667" y="0.0" type="line"/>
      <point x="739.9" y="0.0" type="line"/>
      <point x="551.2666666666668" y="697.9" type="line"/>
      <point x="551.2666666666668" y="636.25" type="line"/>
      <point x="733.5166666666668" y="1278.0" type="line"/>
      <point x="509.21666666666664" y="1278.0" type="line"/>
      <point x="390.3833333333334" y="783.8333333333334" type="line"/>
      <point x="377.84999999999997" y="783.8333333333334" type="line"/>
      <point x="259.01666666666665" y="1278.0" type="line"/>
      <point x="34.71666666666667" y="1278.0" type="line"/>
      <point x="216.2" y="636.25" type="line"/>
      <point x="216.2" y="697.9" type="line"/>
    </contour>
  </outline>
</glyph>
<glyph name="Y" format="2">
  <advance width="750.0666666666666"/>
  <unicode hex="0059"/>
  <anchor x="375.53333333333336" y="0.0" name="bottom"/>
  <anchor x="375.53333333333336" y="1278.0" name="top"/>
  <anchor x="20.0" y="1278.0" name="topleft"/>
  <outline>
    <contour>
      <point x="268.3833333333333" y="353.31666666666666" type="line"/>
      <point x="484.06666666666666" y="353.31666666666666" type="line"/>
      <point x="737.1166666666667" y="1278.0" type="line"/>
      <point x="505.83333333333337" y="1278.0" type="line"/>
      <point x="424.93333333333334" y="874.5" type="line"/>
      <point x="382.68333333333334" y="647.1166666666667" type="line"/>
      <point x="369.7666666666667" y="647.1166666666667" type="line"/>
      <point x="328.1333333333333" y="874.5" type="line"/>
      <point x="244.23333333333332" y="1278.0" type="line"/>
      <point x="12.95" y="1278.0" type="line"/>
    </contour>
    <contour>
      <point x="264.85" y="0.0" type="line"/>
      <point x="487.59999999999997" y="0.0" type="line"/>
      <point x="487.59999999999997" y="581.7833333333334" type="line"/>
      <point x="264.85" y="581.7833333333334" type="line"/>
    </contour>
  </outline>
</glyph>
<glyph name="Z" format="2">
  <advance width="683.3333333333333"/>
  <unicode hex="005A"/>
  <anchor x="342.1666666666667" y="0.0" name="bottom"/>
  <anchor x="342.1666666666667" y="639.0" name="center"/>
  <anchor x="342.1666666666667" y="1278.0" name="top"/>
  <outline>
    <contour>
      <point x="633.9333333333334" y="208.68333333333334" type="line"/>
      <point x="284.23333333333335" y="208.68333333333334" type="line"/>
      <point x="627.1666666666667" y="1090.6833333333334" type="line"/>
      <point x="627.1666666666667" y="1278.0" type="line"/>
      <point x="53.4" y="1278.0" type="line"/>
      <point x="53.4" y="1070.0833333333335" type="line"/>
      <point x="389.8" y="1070.0833333333335" type="line"/>
      <point x="48.016666666666666" y="188.70000000000002" type="line"/>
      <point x="48.016666666666666" y="0.0" type="line"/>
      <point x="633.9333333333334" y="0.0" type="line"/>
    </contour>
  </outline>
</glyph>
<glyph name="bracketleft" format="2">
  <advance width="483.59999999999997"/>
  <unicode hex="005B"/>
  <outline>
    <contour>
      <point x="92.18333333333334" y="-239.61666666666667" type="line"/>
      <point x="451.6" y="-239.61666666666667" type="line"/>
      <point x="451.6" y="-62.28333333333333" type="line"/>
      <point x="306.4" y="-62.28333333333333" type="line"/>
      <point x="306.4" y="1174.6666666666667" type="line"/>
      <point x="451.6" y="1174.6666666666667" type="line"/>
      <point x="451.6" y="1352.0" type="line"/>
      <point x="92.18333333333334" y="1352.0" type="line"/>
    </contour>
  </outline>
</glyph>
<glyph name="backslash" format="2">
  <advance width="566.9833333333333"/>
  <unicode hex="005C"/>
  <outline>
    <contour>
      <point x="551.5666666666666" y="-239.61666666666667" type="line"/>
      <point x="217.35" y="1352.0" type="line"/>
      <point x="15.416666666666668" y="1352.0" type="line"/>
      <point x="349.01666666666665" y="-239.61666666666667" type="line"/>
    </contour>
  </outline>
</glyph>
<glyph name="bracketright" format="2">
  <advance width="483.59999999999997"/>
  <unicode hex="005D"/>
  <outline>
    <contour>
      <point x="391.41666666666663" y="-239.61666666666667" type="line"/>
      <point x="391.41666666666663" y="1352.0" type="line"/>
      <point x="31.999999999999996" y="1352.0" type="line"/>
      <point x="31.999999999999996" y="1174.6666666666667" type="line"/>
      <point x="177.2" y="1174.6666666666667" type="line"/>
      <point x="177.2" y="-62.28333333333333" type="line"/>
      <point x="31.999999999999996" y="-62.28333333333333" type="line"/>
      <point x="31.999999999999996" y="-239.61666666666667" type="line"/>
    </contour>
  </outline>
</glyph>
<glyph name="asciicircum" format="2">
  <advance width="619.5666666666666"/>
  <unicode hex="005E"/>
  <outline>
    <contour>
      <point x="161.81666666666666" y="1278.0" type="line"/>
      <point x="26.650000000000002" y="621.0833333333334" type="line"/>
      <point x="206.51666666666668" y="621.0833333333334" type="line"/>
      <point x="305.7833333333333" y="1151.6666666666667" type="line"/>
      <point x="313.7833333333333" y="1151.6666666666667" type="line"/>
      <point x="413.05" y="621.0833333333334" type="line"/>
      <point x="592.9166666666666" y="621.0833333333334" type="line"/>
      <point x="457.3666666666667" y="1278.0" type="line"/>
    </contour>
  </outline>
</glyph>
<glyph name="underscore" format="2">
  <advance width="602.05"/>
  <unicode hex="005F"/>
  <outline>
    <contour>
      <point x="27.1" y="-219.53333333333333" type="line"/>
      <point x="574.95" y="-219.53333333333333" type="line"/>
      <point x="574.95" y="-41.516666666666666" type="line"/>
      <point x="27.1" y="-41.516666666666666" type="line"/>
    </contour>
  </outline>
</glyph>
<glyph name="grave" format="2">
  <advance width="535.5333333333333"/>
  <unicode hex="0060"/>
  <anchor x="350.75" y="1001.0666666666666" name="_top"/>
  <anchor x="347.6666666666667" y="1335.7833333333333" name="top"/>
  <outline>
    <contour>
      <point x="321.53333333333336" y="1355.5166666666667" type="line"/>
      <point x="97.53333333333333" y="1355.5166666666667" type="line"/>
      <point x="97.53333333333333" y="1355.5166666666667" type="line"/>
      <point x="263.5" y="1085.8666666666666" type="line"/>
      <point x="438.00000000000006" y="1085.8666666666666" type="line"/>
      <point x="438.00000000000006" y="1085.8666666666666" type="line"/>
    </contour>
  </outline>
</glyph>
<glyph name="a" format="2">
  <advance width="727.7"/>
  <unicode hex="0061"/>
  <anchor x="361.9166666666667" y="0.0" name="bottom"/>
  <anchor x="685.4499999999999" y="0.0" name="ogonek"/>
  <anchor x="361.9166666666667" y="1001.0666666666666" name="top"/>
  <outline>
    <contour>
      <point x="436.2166666666667" y="0.0" type="line"/>
      <point x="655.75" y="0.0" type="line"/>
      <point x="655.75" y="668.8333333333333" type="line" smooth="yes"/>
      <point x="655.75" y="901.9333333333334"/>
      <point x="563.8666666666667" y="1017.8333333333334"/>
      <point x="346.31666666666666" y="1017.8333333333334" type="curve" smooth="yes"/>
      <point x="238.5" y="1017.8333333333334"/>
      <point x="149.98333333333335" y="984.0666666666666"/>
      <point x="90.15" y="947.0666666666667" type="curve"/>
      <point x="75.46666666666667" y="754.2666666666668" type="line"/>
      <point x="138.76666666666668" y="789.5833333333334"/>
      <point x="219.2166666666667" y="824.05"/>
      <point x="299.66666666666663" y="824.05" type="curve" smooth="yes"/>
      <point x="399.1333333333333" y="824.05"/>
      <point x="433.30000000000007" y="774.3333333333334"/>
      <point x="433.30000000000007" y="661.8333333333334" type="curve"/>
      <point x="435.6" y="603.3000000000001" type="line"/>
      <point x="435.6" y="188.48333333333335" type="line"/>
      <point x="444.75" y="188.48333333333332" type="line"/>
    </contour>
    <contour>
      <point x="247.23333333333335" y="-14.383333333333333" type="curve" smooth="yes"/>
      <point x="369.3666666666667" y="-14.383333333333333"/>
      <point x="414.2166666666667" y="60.75"/>
      <point x="433.6" y="159.18333333333334" type="curve"/>
      <point x="464.2" y="159.18333333333334" type="line"/>
      <point x="437.83333333333337" y="274.81666666666666" type="line"/>
      <point x="427.1333333333334" y="214.06666666666666"/>
      <point x="397.41666666666663" y="170.33333333333334"/>
      <point x="342.53333333333336" y="170.33333333333334" type="curve" smooth="yes"/>
      <point x="280.5" y="170.33333333333334"/>
      <point x="259.33333333333337" y="215.66666666666666"/>
      <point x="259.33333333333337" y="294.48333333333335" type="curve" smooth="yes"/>
      <point x="259.33333333333337" y="329.34999999999997" type="line" smooth="yes"/>
      <point x="259.33333333333337" y="398.46666666666664"/>
      <point x="287.0333333333333" y="433.8"/>
      <point x="353.0666666666667" y="452.5833333333333" type="curve" smooth="yes"/>
      <point x="482.65000000000003" y="489.68333333333334" type="line"/>
      <point x="458.51666666666665" y="651.8333333333334" type="line"/>
      <point x="296.2666666666667" y="607.9666666666666" type="line" smooth="yes"/>
      <point x="120.06666666666668" y="561.0333333333333"/>
      <point x="43.25000000000001" y="488.1"/>
      <point x="43.25000000000001" y="312.3" type="curve" smooth="yes"/>
      <point x="43.25000000000001" y="259.05" type="line" smooth="yes"/>
      <point x="43.25000000000001" y="81.68333333333334"/>
      <point x="109.55000000000001" y="-14.383333333333333"/>
    </contour>
  </outline>
</glyph>
<glyph name="b" format="2">
  <advance width="788.5333333333333"/>
  <unicode hex="0062"/>
  <anchor x="394.7666666666666" y="0.0" name="bottom"/>
  <anchor x="394.7666666666666" y="1327.0833333333333" name="top"/>
  <outline>
    <contour>
      <point x="502.2166666666667" y="-14.383333333333333" type="curve" smooth="yes"/>
      <point x="665.1166666666667" y="-14.383333333333333"/>
      <point x="725.8166666666667" y="109.51666666666665"/>
      <point x="725.8166666666667" y="347.0833333333333" type="curve" smooth="yes"/>
      <point x="725.8166666666667" y="647.7" type="line" smooth="yes"/>
      <point x="725.8166666666667" y="888.4833333333332"/>
      <point x="663.9666666666667" y="1015.45"/>
      <point x="503.3666666666667" y="1015.45" type="curve" smooth="yes"/>
      <point x="381.55" y="1015.45"/>
      <point x="330.31666666666666" y="942.55"/>
      <point x="311.08333333333337" y="840.7333333333333" type="curve"/>
      <point x="269.8666666666667" y="840.7333333333333" type="line"/>
      <point x="299.31666666666666" y="725.8833333333333" type="line"/>
      <point x="312.0166666666667" y="787.55"/>
      <point x="345.8833333333333" y="831.2833333333333"/>
      <point x="405.08333333333337" y="831.2833333333333" type="curve" smooth="yes"/>
      <point x="474.8166666666667" y="831.2833333333333"/>
      <point x="499.29999999999995" y="777.7166666666667"/>
      <point x="499.29999999999995" y="670.9833333333333" type="curve" smooth="yes"/>
      <point x="499.29999999999995" y="338.85" type="line" smooth="yes"/>
      <point x="499.29999999999995" y="230.26666666666668"/>
      <point x="473.58333333333337" y="175.31666666666666"/>
      <point x="404.46666666666664" y="175.31666666666666" type="curve" smooth="yes"/>
      <point x="334.1166666666667" y="175.31666666666666"/>
      <point x="301.93333333333334" y="231.81666666666663"/>
      <point x="301.31666666666666" y="325.7" type="curve"/>
      <point x="243.28333333333336" y="162.25" type="line"/>
      <point x="306.55" y="162.25" type="line"/>
      <point x="327.7833333333333" y="61.43333333333334"/>
      <point x="380.01666666666665" y="-14.383333333333333"/>
    </contour>
    <contour>
      <point x="79.56666666666666" y="0.0" type="line"/>
      <point x="303.93333333333334" y="0.0" type="line"/>
      <point x="295.4" y="190.78333333333336" type="line"/>
      <point x="301.31666666666666" y="203.11666666666665" type="line"/>
      <point x="301.31666666666666" y="783.4" type="line"/>
      <point x="300.70000000000005" y="807.6999999999999" type="line"/>
      <point x="304.70000000000005" y="1081.3333333333335" type="line"/>
      <point x="304.70000000000005" y="1327.0833333333333" type="line"/>
      <point x="79.56666666666666" y="1327.0833333333333" type="line"/>
    </contour>
  </outline>
</glyph>
<glyph name="c" format="2">
  <advance width="587.9666666666667"/>
  <unicode hex="0063"/>
  <anchor x="328.25" y="0.0" name="bottom"/>
  <anchor x="328.25" y="1001.0666666666666" name="top"/>
  <outline>
    <contour>
      <point x="358.93333333333334" y="-14.383333333333335" type="curve" smooth="yes"/>
      <point x="434.7666666666667" y="-14.383333333333335"/>
      <point x="499.75000000000006" y="6.85"/>
      <point x="541.5833333333333" y="37.31666666666667" type="curve"/>
      <point x="556.2666666666667" y="231.1" type="line"/>
      <point x="521.5666666666667" y="205.55"/>
      <point x="479.33333333333337" y="186.85000000000002"/>
      <point x="426.6333333333333" y="186.85000000000002" type="curve" smooth="yes"/>
      <point x="328.31666666666666" y="186.85000000000002"/>
      <point x="286.70000000000005" y="248.86666666666667"/>
      <point x="286.70000000000005" y="357.1166666666667" type="curve" smooth="yes"/>
      <point x="286.70000000000005" y="646.8666666666666" type="line" smooth="yes"/>
      <point x="286.70000000000005" y="756.9666666666666"/>
      <point x="322.93333333333334" y="818.9833333333333"/>
      <point x="419.86666666666673" y="818.9833333333333" type="curve" smooth="yes"/>
      <point x="473.41666666666663" y="818.9833333333333"/>
      <point x="512.8833333333333" y="800.2833333333333"/>
      <point x="549.1166666666667" y="774.7333333333333" type="curve"/>
      <point x="534.4333333333333" y="964.3666666666667" type="line"/>
      <point x="492.3666666666666" y="993.6"/>
      <point x="432.9166666666667" y="1015.45"/>
      <point x="358.0833333333333" y="1015.45" type="curve" smooth="yes"/>
      <point x="153.91666666666666" y="1015.45"/>
      <point x="60.95" y="883.1"/>
      <point x="60.95" y="652.7" type="curve" smooth="yes"/>
      <point x="60.95" y="347.3666666666667" type="line" smooth="yes"/>
      <point x="60.95" y="117.35000000000001"/>
      <point x="153.15" y="-14.383333333333335"/>
    </contour>
  </outline>
</glyph>
<glyph name="d" format="2">
  <advance width="788.9166666666666"/>
  <unicode hex="0064"/>
  <anchor x="394.15000000000003" y="0.0" name="bottom"/>
  <anchor x="394.15000000000003" y="500.5333333333333" name="center"/>
  <anchor x="394.15000000000003" y="1327.0833333333333" name="top"/>
  <anchor x="804.3999999999999" y="1327.0833333333333" name="topright"/>
  <outline>
    <contour>
      <point x="285.78333333333336" y="-14.383333333333333" type="curve" smooth="yes"/>
      <point x="411.9" y="-14.383333333333333"/>
      <point x="462.75000000000006" y="62.349999999999994"/>
      <point x="482.3666666666666" y="162.25" type="curve"/>
      <point x="523.9666666666667" y="162.25" type="line"/>
      <point x="489.21666666666664" y="280.3333333333333" type="line"/>
      <point x="476.5166666666666" y="219.04999999999998"/>
      <point x="442.65" y="175.31666666666666"/>
      <point x="384.21666666666664" y="175.31666666666666" type="curve" smooth="yes"/>
      <point x="314.1" y="175.31666666666666"/>
      <point x="289.23333333333335" y="228.88333333333335"/>
      <point x="289.23333333333335" y="335.6166666666667" type="curve" smooth="yes"/>
      <point x="289.23333333333335" y="669.2833333333333" type="line" smooth="yes"/>
      <point x="289.23333333333335" y="777.0999999999999"/>
      <point x="315.33333333333337" y="831.2833333333333"/>
      <point x="384.06666666666666" y="831.2833333333333" type="curve" smooth="yes"/>
      <point x="454.41666666666663" y="831.2833333333333"/>
      <point x="486.59999999999997" y="774.4"/>
      <point x="487.21666666666664" y="680.9" type="curve"/>
      <point x="534.2" y="840.7333333333333" type="line"/>
      <point x="477.45" y="840.7333333333333" type="line"/>
      <point x="455.45000000000005" y="941.9333333333333"/>
      <point x="406.36666666666673" y="1015.45"/>
      <point x="286.7" y="1015.45" type="curve" smooth="yes"/>
      <point x="124.8" y="1015.45"/>
      <point x="62.71666666666667" y="889.6333333333333"/>
      <point x="62.71666666666667" y="647.0833333333333" type="curve" smooth="yes"/>
      <point x="62.71666666666667" y="345.2333333333333" type="line" smooth="yes"/>
      <point x="62.71666666666667" y="110.05"/>
      <point x="125.56666666666665" y="-14.383333333333333"/>
    </contour>
    <contour>
      <point x="484.59999999999997" y="0.0" type="line"/>
      <point x="709.35" y="0.0" type="line"/>
      <point x="709.35" y="1327.0833333333333" type="line"/>
      <point x="484.21666666666664" y="1327.0833333333333" type="line"/>
      <point x="484.21666666666664" y="1081.3333333333335" type="line"/>
      <point x="487.8333333333333" y="806.9333333333334" type="line"/>
      <point x="487.21666666666664" y="777.2666666666667" type="line"/>
      <point x="487.21666666666664" y="206.88333333333333" type="line"/>
      <point x="493.1333333333333" y="192.70000000000002" type="line"/>
    </contour>
  </outline>
</glyph>
<glyph name="e" format="2">
  <advance width="730.1500000000001"/>
  <unicode hex="0065"/>
  <anchor x="380.7" y="0.0" name="bottom"/>
  <anchor x="644.8333333333334" y="10.0" name="ogonek"/>
  <anchor x="376.3833333333334" y="1001.0666666666666" name="top"/>
  <outline>
    <contour>
      <point x="419.28333333333336" y="-14.383333333333331" type="curve" smooth="yes"/>
      <point x="512.4166666666666" y="-14.383333333333331"/>
      <point x="594.6999999999999" y="8.466666666666667"/>
      <point x="652.0666666666666" y="40.233333333333334" type="curve"/>
      <point x="666.3666666666667" y="228.35000000000002" type="line"/>
      <point x="609.6833333333334" y="199.18333333333334"/>
      <point x="542.2333333333333" y="178.25"/>
      <point x="466.9333333333334" y="178.25" type="curve" smooth="yes"/>
      <point x="344.25" y="178.25"/>
      <point x="282.01666666666665" y="230.73333333333332"/>
      <point x="282.01666666666665" y="350.53333333333336" type="curve" smooth="yes"/>
      <point x="282.01666666666665" y="464.7833333333333" type="line"/>
      <point x="280.8666666666667" y="502.45" type="line"/>
      <point x="280.8666666666667" y="685.0" type="line" smooth="yes"/>
      <point x="280.8666666666667" y="788.7166666666666"/>
      <point x="304.96666666666664" y="836.1166666666667"/>
      <point x="373.76666666666665" y="836.1166666666667" type="curve" smooth="yes"/>
      <point x="440.95" y="836.1166666666667"/>
      <point x="466.28333333333336" y="788.7166666666666"/>
      <point x="466.28333333333336" y="685.0" type="curve" smooth="yes"/>
      <point x="466.28333333333336" y="610.9666666666667"/>
      <point x="466.28333333333336" y="523.1166666666667"/>
      <point x="466.28333333333336" y="404.35" type="curve"/>
      <point x="666.2166666666667" y="404.35" type="line"/>
      <point x="675.3666666666667" y="461.35"/>
      <point x="678.1333333333333" y="516.8"/>
      <point x="678.1333333333333" y="573.7166666666667" type="curve" smooth="yes"/>
      <point x="678.1333333333333" y="662.6999999999999" type="line" smooth="yes"/>
      <point x="678.1333333333333" y="893.7833333333334"/>
      <point x="579.7" y="1018.8333333333334"/>
      <point x="373.76666666666665" y="1018.8333333333334" type="curve" smooth="yes"/>
      <point x="161.53333333333333" y="1018.8333333333334"/>
      <point x="60.95" y="893.2666666666667"/>
      <point x="60.95" y="654.7333333333333" type="curve" smooth="yes"/>
      <point x="60.95" y="374.5833333333333" type="line" smooth="yes"/>
      <point x="60.95" y="116.11666666666667"/>
      <point x="179.68333333333334" y="-14.383333333333331"/>
    </contour>
    <contour>
      <point x="201.53333333333333" y="404.35" type="line"/>
      <point x="616.25" y="404.35" type="line"/>
      <point x="616.25" y="567.65" type="line"/>
      <point x="201.53333333333333" y="567.65" type="line"/>
    </contour>
  </outline>
</glyph>
<glyph name="f" format="2">
  <advance width="541.5333333333334"/>
  <unicode hex="0066"/>
  <anchor x="271.26666666666665" y="0.0" name="bottom"/>
  <anchor x="271.26666666666665" y="1334.0" name="top"/>
  <outline>
    <contour>
      <point x="328.05" y="1354.15" type="curve" smooth="yes"/>
      <point x="171.01666666666665" y="1354.15"/>
      <point x="85.95" y="1280.3"/>
      <point x="85.95" y="1154.6833333333334" type="curve" smooth="yes"/>
      <point x="85.95" y="1150.0666666666666" type="line" smooth="yes"/>
      <point x="85.95" y="1074.2333333333333"/>
      <point x="127.46666666666665" y="1017.0"/>
      <point x="180.2" y="989.6833333333333" type="curve"/>
      <point x="180.2" y="965.6999999999999" type="line"/>
      <point x="327.6333333333333" y="963.85" type="line"/>
      <point x="313.7833333333333" y="994.1"/>
      <point x="303.31666666666666" y="1023.6666666666666"/>
      <point x="303.31666666666666" y="1062.1499999999999" type="curve" smooth="yes"/>
      <point x="303.31666666666666" y="1065.3833333333334" type="line" smooth="yes"/>
      <point x="303.31666666666666" y="1132.4166666666667"/>
      <point x="341.1" y="1169.5166666666667"/>
      <point x="416.1166666666667" y="1169.5166666666667" type="curve" smooth="yes"/>
      <point x="459.5166666666667" y="1169.5166666666667"/>
      <point x="493.36666666666673" y="1159.8166666666666"/>
      <point x="522.3000000000001" y="1149.1166666666668" type="curve"/>
      <point x="506.23333333333335" y="1317.5333333333333" type="line"/>
      <point x="466.1666666666667" y="1336.15"/>
      <point x="404.5666666666667" y="1354.15"/>
    </contour>
    <contour>
      <point x="112.56666666666666" y="0.0" type="line"/>
      <point x="336.78333333333336" y="0.0" type="line"/>
      <point x="336.78333333333336" y="916.8" type="line"/>
      <point x="112.56666666666666" y="916.8" type="line"/>
    </contour>
    <contour>
      <point x="15.85" y="797.6666666666666" type="line"/>
      <point x="507.76666666666665" y="797.6666666666666" type="line"/>
      <point x="522.45" y="981.6833333333333" type="line"/>
      <point x="299.03333333333336" y="981.6833333333333" type="line"/>
      <point x="214.95000000000002" y="980.3" type="line"/>
      <point x="15.85" y="981.6833333333333" type="line"/>
    </contour>
  </outline>
</glyph>
<glyph name="g" format="2">
  <advance width="737.4666666666667"/>
  <unicode hex="0067"/>
  <anchor x="372.31666666666666" y="-350.0" name="bottom"/>
  <anchor x="371.0833333333333" y="1001.0666666666666" name="top"/>
  <outline>
    <contour>
      <point x="369.3" y="260.8" type="curve"/>
      <point x="569.2333333333333" y="260.8"/>
      <point x="670.75" y="365.31666666666666"/>
      <point x="670.75" y="549.4166666666667" type="curve" smooth="yes"/>
      <point x="670.75" y="631.7166666666666" type="line" smooth="yes"/>
      <point x="670.75" y="760.0833333333334"/>
      <point x="620.55" y="829.4000000000001"/>
      <point x="508.98333333333335" y="851.3333333333334" type="curve"/>
      <point x="508.98333333333335" y="860.7166666666667" type="line"/>
      <point x="724.0166666666668" y="852.9499999999999" type="line"/>
      <point x="724.0166666666668" y="1027.6" type="line"/>
      <point x="383.53333333333336" y="1013.0666666666667" type="line" smooth="yes"/>
      <point x="141.6" y="1002.5333333333333"/>
      <point x="55.65" y="872.85"/>
      <point x="55.65" y="684.9833333333333" type="curve" smooth="yes"/>
      <point x="55.65" y="565.5166666666668" type="line" smooth="yes"/>
      <point x="55.65" y="364.93333333333334"/>
      <point x="178.85000000000002" y="260.8"/>
    </contour>
    <contour>
      <point x="358.6333333333333" y="-190.96666666666667" type="line" smooth="yes"/>
      <point x="271.3" y="-190.96666666666667"/>
      <point x="229.26666666666668" y="-156.18333333333334"/>
      <point x="229.26666666666668" y="-99.30000000000001" type="curve" smooth="yes"/>
      <point x="229.26666666666668" y="-97.68333333333334" type="line" smooth="yes"/>
      <point x="229.26666666666668" y="-44.56666666666667"/>
      <point x="265.3" y="-12.933333333333334"/>
      <point x="329.5833333333333" y="3.8500000000000023" type="curve"/>
      <point x="286.05" y="4.0" type="line"/>
      <point x="427.9166666666667" y="-23.916666666666668" type="line" smooth="yes"/>
      <point x="493.58333333333337" y="-37.46666666666667"/>
      <point x="527.6666666666667" y="-58.56666666666667"/>
      <point x="527.6666666666667" y="-107.13333333333333" type="curve" smooth="yes"/>
      <point x="527.6666666666667" y="-108.75" type="line" smooth="yes"/>
      <point x="527.6666666666667" y="-162.56666666666666"/>
      <point x="486.25" y="-190.96666666666667"/>
      <point x="398.15000000000003" y="-190.96666666666667" type="curve" smooth="yes"/>
    </contour>
    <contour>
      <point x="345.8" y="-368.5333333333333" type="curve" smooth="yes"/>
      <point x="389.84999999999997" y="-368.5333333333333" type="line" smooth="yes"/>
      <point x="601.8666666666667" y="-368.5333333333333"/>
      <point x="726.9833333333333" y="-281.0166666666667"/>
      <point x="726.9833333333333" y="-118.66666666666666" type="curve" smooth="yes"/>
      <point x="726.9833333333333" y="-109.51666666666667" type="line" smooth="yes"/>
      <point x="726.9833333333333" y="33.36666666666666"/>
      <point x="659.6999999999999" y="107.68333333333335"/>
      <point x="489.5666666666667" y="145.13333333333333" type="curve" smooth="yes"/>
      <point x="347.9166666666667" y="176.73333333333332" type="line" smooth="yes"/>
      <point x="298.1166666666667" y="187.2"/>
      <point x="275.3333333333333" y="199.36666666666665"/>
      <point x="275.3333333333333" y="227.0" type="curve" smooth="yes"/>
      <point x="275.3333333333333" y="227.61666666666665" type="line" smooth="yes"/>
      <point x="275.3333333333333" y="252.48333333333332"/>
      <point x="297.2" y="265.4166666666667"/>
      <point x="334.23333333333335" y="265.4166666666667" type="curve"/>
      <point x="359.78333333333336" y="265.4166666666667" type="line"/>
      <point x="214.5" y="311.16666666666663" type="line"/>
      <point x="214.5" y="282.0333333333333" type="line"/>
      <point x="124.31666666666668" y="274.71666666666664"/>
      <point x="68.71666666666667" y="236.03333333333336"/>
      <point x="68.71666666666667" y="160.75" type="curve" smooth="yes"/>
      <point x="68.71666666666667" y="158.75" type="line" smooth="yes"/>
      <point x="68.71666666666667" y="85.83333333333333"/>
      <point x="118.56666666666668" y="43.06666666666667"/>
      <point x="205.68333333333334" y="24.91666666666667" type="curve"/>
      <point x="205.68333333333334" y="15.91666666666667" type="line"/>
      <point x="106.78333333333335" y="0.2833333333333332"/>
      <point x="32.333333333333336" y="-48.71666666666667"/>
      <point x="32.333333333333336" y="-160.08333333333331" type="curve" smooth="yes"/>
      <point x="32.333333333333336" y="-164.08333333333331" type="line" smooth="yes"/>
      <point x="32.333333333333336" y="-303.15"/>
      <point x="148.23333333333332" y="-368.5333333333333"/>
    </contour>
    <contour>
      <point x="366.6166666666667" y="424.6166666666667" type="curve" smooth="yes"/>
      <point x="298.73333333333335" y="424.6166666666667"/>
      <point x="272.25" y="475.33333333333337"/>
      <point x="272.25" y="569.9000000000001" type="curve" smooth="yes"/>
      <point x="272.25" y="696.2166666666667" type="line" smooth="yes"/>
      <point x="272.25" y="791.5500000000001"/>
      <point x="298.73333333333335" y="840.2666666666667"/>
      <point x="365.84999999999997" y="840.2666666666667" type="curve" smooth="yes"/>
      <point x="367.85" y="840.2666666666667" type="line" smooth="yes"/>
      <point x="432.73333333333335" y="840.2666666666667"/>
      <point x="458.2166666666667" y="788.9333333333333"/>
      <point x="458.2166666666667" y="697.45" type="curve" smooth="yes"/>
      <point x="458.2166666666667" y="569.9000000000001" type="line" smooth="yes"/>
      <point x="458.2166666666667" y="475.33333333333337"/>
      <point x="432.1166666666667" y="424.6166666666667"/>
    </contour>
  </outline>
</glyph>
<glyph name="h" format="2">
  <advance width="795.9166666666667"/>
  <unicode hex="0068"/>
  <anchor x="398.7666666666667" y="0.0" name="bottom"/>
  <anchor x="398.7666666666667" y="667.0" name="center"/>
  <anchor x="192.63333333333333" y="1327.0833333333333" name="top"/>
  <outline>
    <contour>
      <point x="495.0666666666666" y="0.0" type="line"/>
      <point x="721.5833333333334" y="0.0" type="line"/>
      <point x="721.5833333333334" y="724.85" type="line" smooth="yes"/>
      <point x="721.5833333333334" y="917.5333333333333"/>
      <point x="659.2" y="1015.45"/>
      <point x="512.45" y="1015.45" type="curve" smooth="yes"/>
      <point x="382.6333333333333" y="1015.45"/>
      <point x="330.93333333333334" y="940.25"/>
      <point x="311.08333333333337" y="840.7333333333333" type="curve"/>
      <point x="245.9666666666667" y="840.7333333333333" type="line"/>
      <point x="304.0833333333333" y="720.7333333333333" type="line"/>
      <point x="315.40000000000003" y="781.6333333333333"/>
      <point x="348.65" y="826.1333333333333"/>
      <point x="405.8500000000001" y="826.1333333333333" type="curve" smooth="yes"/>
      <point x="472.8166666666667" y="826.1333333333333"/>
      <point x="495.0666666666666" y="779.3333333333333"/>
      <point x="495.0666666666666" y="688.6666666666666" type="curve" smooth="yes"/>
    </contour>
    <contour>
      <point x="79.56666666666666" y="0.0" type="line"/>
      <point x="306.08333333333337" y="0.0" type="line"/>
      <point x="306.08333333333337" y="760.7666666666667" type="line"/>
      <point x="300.70000000000005" y="799.8833333333333" type="line"/>
      <point x="304.70000000000005" y="1081.3333333333333" type="line"/>
      <point x="304.70000000000005" y="1327.0833333333333" type="line"/>
      <point x="79.56666666666666" y="1327.0833333333333" type="line"/>
    </contour>
  </outline>
</glyph>
<glyph name="i" format="2">
  <advance width="388.9666666666667"/>
  <unicode hex="0069"/>
  <anchor x="194.48333333333335" y="0.0" name="bottom"/>
  <anchor x="337.25" y="0.0" name="ogonek"/>
  <outline>
    <contour>
      <point x="81.41666666666666" y="0.0" type="line"/>
      <point x="307.54999999999995" y="0.0" type="line"/>
      <point x="307.54999999999995" y="1001.0666666666666" type="line"/>
      <point x="81.41666666666666" y="1001.0666666666666" type="line"/>
    </contour>
    <contour>
      <point x="194.48333333333335" y="1096.3" type="curve" smooth="yes"/>
      <point x="276.35" y="1096.3"/>
      <point x="313.7833333333333" y="1142.9666666666667"/>
      <point x="313.7833333333333" y="1218.55" type="curve" smooth="yes"/>
      <point x="313.7833333333333" y="1230.1666666666667" type="line" smooth="yes"/>
      <point x="313.7833333333333" y="1305.75"/>
      <point x="276.35" y="1351.8"/>
      <point x="194.48333333333335" y="1351.8" type="curve" smooth="yes"/>
      <point x="112.61666666666667" y="1351.8"/>
      <point x="75.18333333333334" y="1305.75"/>
      <point x="75.18333333333334" y="1230.1666666666667" type="curve" smooth="yes"/>
      <point x="75.18333333333334" y="1218.55" type="line" smooth="yes"/>
      <point x="75.18333333333334" y="1142.9666666666667"/>
      <point x="112.61666666666667" y="1096.3"/>
    </contour>
  </outline>
</glyph>
<glyph name="j" format="2">
  <advance width="393.96666666666664"/>
  <unicode hex="006A"/>
  <outline>
    <contour>
      <point x="86.03333333333332" y="191.11666666666667" type="line"/>
      <point x="312.55" y="191.11666666666667" type="line"/>
      <point x="312.55" y="1001.0666666666666" type="line"/>
      <point x="86.03333333333332" y="1001.0666666666666" type="line"/>
    </contour>
    <contour>
      <point x="199.48333333333332" y="1092.6000000000001" type="curve" smooth="yes"/>
      <point x="281.35" y="1092.6000000000001"/>
      <point x="318.78333333333336" y="1139.2666666666667"/>
      <point x="318.78333333333336" y="1214.85" type="curve" smooth="yes"/>
      <point x="318.78333333333336" y="1226.4666666666667" type="line" smooth="yes"/>
      <point x="318.78333333333336" y="1302.05"/>
      <point x="281.35" y="1348.1"/>
      <point x="199.48333333333332" y="1348.1" type="curve" smooth="yes"/>
      <point x="117.61666666666667" y="1348.1"/>
      <point x="80.18333333333334" y="1302.05"/>
      <point x="80.18333333333334" y="1226.4666666666667" type="curve" smooth="yes"/>
      <point x="80.18333333333334" y="1214.85" type="line" smooth="yes"/>
      <point x="80.18333333333334" y="1139.2666666666667"/>
      <point x="117.61666666666667" y="1092.6000000000001"/>
    </contour>
    <component base="jbottom"/>
  </outline>
</glyph>
<glyph name="k" format="2">
  <advance width="753.7333333333333"/>
  <unicode hex="006B"/>
  <anchor x="383.53333333333336" y="0.0" name="bottom"/>
  <anchor x="377.3666666666666" y="1327.0833333333333" name="top"/>
  <outline>
    <contour>
      <point x="509.2" y="0.0" type="line"/>
      <point x="742.7166666666668" y="0.0" type="line"/>
      <point x="521.9666666666667" y="557.6833333333334" type="line"/>
      <point x="521.9666666666667" y="504.6333333333333" type="line"/>
      <point x="732.8666666666668" y="1001.0666666666666" type="line"/>
      <point x="504.2666666666667" y="1001.0666666666666" type="line"/>
      <point x="339.2833333333333" y="603.0833333333334" type="line"/>
      <point x="293.4666666666667" y="603.0833333333334" type="line"/>
      <point x="293.4666666666667" y="450.40000000000003" type="line"/>
      <point x="336.20000000000005" y="450.40000000000003" type="line"/>
    </contour>
    <contour>
      <point x="79.56666666666666" y="0.0" type="line"/>
      <point x="306.08333333333337" y="0.0" type="line"/>
      <point x="306.08333333333337" y="1327.0833333333333" type="line"/>
      <point x="79.56666666666666" y="1327.0833333333333" type="line"/>
    </contour>
  </outline>
</glyph>
<glyph name="l" format="2">
  <advance width="389.35"/>
  <unicode hex="006C"/>
  <anchor x="195.48333333333335" y="0.0" name="bottom"/>
  <anchor x="195.48333333333335" y="667.0" name="center"/>
  <anchor x="195.48333333333335" y="1327.0833333333333" name="top"/>
  <anchor x="403.6" y="1327.0833333333333" name="topright"/>
  <outline>
    <contour>
      <point x="81.41666666666667" y="0.0" type="line"/>
      <point x="307.93333333333334" y="0.0" type="line"/>
      <point x="307.93333333333334" y="1327.0833333333333" type="line"/>
      <point x="81.41666666666667" y="1327.0833333333333" type="line"/>
    </contour>
  </outline>
</glyph>
<glyph name="m" format="2">
  <advance width="1177.8666666666668"/>
  <unicode hex="006D"/>
  <anchor x="588.8166666666667" y="0.0" name="bottom"/>
  <anchor x="588.8166666666667" y="1001.0666666666666" name="top"/>
  <outline>
    <contour>
      <point x="879.3166666666667" y="0.0" type="line"/>
      <point x="1103.5333333333333" y="0.0" type="line"/>
      <point x="1103.5333333333333" y="727.9333333333333" type="line" smooth="yes"/>
      <point x="1103.5333333333333" y="918.7666666666667"/>
      <point x="1043.3833333333334" y="1015.45"/>
      <point x="898.8666666666666" y="1015.45" type="curve" smooth="yes"/>
      <point x="764.5" y="1015.45"/>
      <point x="715.8833333333333" y="931.25"/>
      <point x="697.0333333333333" y="838.4333333333333" type="curve"/>
      <point x="676.7333333333333" y="838.4333333333333" type="line"/>
      <point x="700.35" y="719.35" type="line"/>
      <point x="710.2833333333333" y="782.4"/>
      <point x="742.9166666666666" y="826.1333333333333"/>
      <point x="796.8833333333333" y="826.1333333333333" type="curve" smooth="yes"/>
      <point x="858.3" y="826.1333333333333"/>
      <point x="879.3166666666667" y="780.5666666666666"/>
      <point x="879.3166666666667" y="696.2166666666667" type="curve" smooth="yes"/>
    </contour>
    <contour>
      <point x="79.56666666666666" y="0.0" type="line"/>
      <point x="303.78333333333336" y="0.0" type="line"/>
      <point x="303.78333333333336" y="813.35" type="line"/>
      <point x="293.09999999999997" y="817.05" type="line"/>
      <point x="301.6333333333334" y="1001.0666666666666" type="line"/>
      <point x="79.56666666666666" y="1001.0666666666666" type="line"/>
    </contour>
    <contour>
      <point x="479.74999999999994" y="0.0" type="line"/>
      <point x="703.35" y="0.0" type="line"/>
      <point x="703.35" y="713.1166666666666" type="line" smooth="yes"/>
      <point x="703.35" y="744.2666666666668"/>
      <point x="698.9666666666667" y="776.7166666666666"/>
      <point x="693.7333333333333" y="801.4833333333332" type="curve"/>
      <point x="679.0333333333333" y="942.7666666666667"/>
      <point x="622.35" y="1015.45"/>
      <point x="499.9166666666667" y="1015.45" type="curve" smooth="yes"/>
      <point x="375.6333333333334" y="1015.45"/>
      <point x="325.6333333333333" y="941.0166666666667"/>
      <point x="304.25" y="840.7333333333333" type="curve"/>
      <point x="257.26666666666665" y="840.7333333333333" type="line"/>
      <point x="301.16666666666663" y="719.5" type="line"/>
      <point x="311.48333333333335" y="782.4"/>
      <point x="344.1166666666667" y="826.1333333333333"/>
      <point x="398.0833333333333" y="826.1333333333333" type="curve" smooth="yes"/>
      <point x="458.7333333333334" y="826.1333333333333"/>
      <point x="479.74999999999994" y="780.5666666666666"/>
      <point x="479.74999999999994" y="696.2166666666667" type="curve" smooth="yes"/>
    </contour>
  </outline>
</glyph>
<glyph name="n" format="2">
  <advance width="795.9166666666667"/>
  <unicode hex="006E"/>
  <anchor x="398.7666666666667" y="0.0" name="bottom"/>
  <anchor x="398.7666666666667" y="1001.0666666666666" name="top"/>
  <outline>
    <contour>
      <point x="495.0666666666666" y="0.0" type="line"/>
      <point x="721.5833333333334" y="0.0" type="line"/>
      <point x="721.5833333333334" y="724.85" type="line" smooth="yes"/>
      <point x="721.5833333333334" y="917.5333333333333"/>
      <point x="659.2" y="1015.45"/>
      <point x="511.6833333333334" y="1015.45" type="curve" smooth="yes"/>
      <point x="379.01666666666665" y="1015.45"/>
      <point x="327.78333333333336" y="939.4833333333333"/>
      <point x="306.55" y="840.7333333333333" type="curve"/>
      <point x="256.5" y="840.7333333333333" type="line"/>
      <point x="303.46666666666664" y="720.1166666666667" type="line"/>
      <point x="314.78333333333336" y="781.6333333333333"/>
      <point x="348.65" y="826.1333333333333"/>
      <point x="406.4666666666667" y="826.1333333333333" type="curve" smooth="yes"/>
      <point x="472.8166666666667" y="826.1333333333333"/>
      <point x="495.0666666666666" y="779.3333333333333"/>
      <point x="495.0666666666666" y="688.6666666666666" type="curve" smooth="yes"/>
    </contour>
    <contour>
      <point x="79.56666666666666" y="0.0" type="line"/>
      <point x="306.08333333333337" y="0.0" type="line"/>
      <point x="306.08333333333337" y="809.1333333333333" type="line"/>
      <point x="295.4" y="813.45" type="line"/>
      <point x="303.93333333333334" y="1001.0666666666666" type="line"/>
      <point x="79.56666666666666" y="1001.0666666666666" type="line"/>
    </contour>
  </outline>
</glyph>
<glyph name="o" format="2">
  <advance width="770.2333333333335"/>
  <unicode hex="006F"/>
  <anchor x="385.6166666666667" y="0.0" name="bottom"/>
  <anchor x="385.6166666666667" y="500.5333333333333" name="center"/>
  <anchor x="585.9333333333334" y="6.916666666666667" name="ogonek"/>
  <anchor x="385.6166666666667" y="1001.0666666666666" name="top"/>
  <anchor x="748.6333333333333" y="1001.0666666666666" name="topright"/>
  <outline>
    <contour>
      <point x="385.6166666666667" y="-18.150000000000002" type="curve" smooth="yes"/>
      <point x="599.7" y="-18.150000000000002"/>
      <point x="709.2833333333333" y="108.58333333333334"/>
      <point x="709.2833333333333" y="347.73333333333335" type="curve"/>
      <point x="709.2833333333333" y="654.3333333333333" type="line"/>
      <point x="709.2833333333333" y="893.4833333333333"/>
      <point x="599.7" y="1019.2166666666667"/>
      <point x="385.6166666666667" y="1019.2166666666667" type="curve" smooth="yes"/>
      <point x="170.53333333333333" y="1019.2166666666667"/>
      <point x="60.95" y="893.4833333333333"/>
      <point x="60.95" y="654.3333333333333" type="curve"/>
      <point x="60.95" y="347.73333333333335" type="line"/>
      <point x="60.95" y="108.58333333333334"/>
      <point x="170.53333333333333" y="-18.150000000000002"/>
    </contour>
    <contour>
      <point x="385.6166666666667" y="167.25" type="curve" smooth="yes"/>
      <point x="313.2666666666667" y="167.25"/>
      <point x="285.93333333333334" y="218.73333333333332"/>
      <point x="285.93333333333334" y="325.5333333333333" type="curve" smooth="yes"/>
      <point x="285.93333333333334" y="676.5333333333333" type="line" smooth="yes"/>
      <point x="285.93333333333334" y="783.3333333333333"/>
      <point x="313.2666666666667" y="833.8166666666667"/>
      <point x="385.6166666666667" y="833.8166666666667" type="curve" smooth="yes"/>
      <point x="456.9666666666667" y="833.8166666666667"/>
      <point x="484.29999999999995" y="783.3333333333333"/>
      <point x="484.29999999999995" y="676.5333333333333" type="curve" smooth="yes"/>
      <point x="484.29999999999995" y="325.5333333333333" type="line" smooth="yes"/>
      <point x="484.29999999999995" y="218.73333333333332"/>
      <point x="456.9666666666667" y="167.25"/>
    </contour>
  </outline>
</glyph>
<glyph name="p" format="2">
  <advance width="788.5333333333333"/>
  <unicode hex="0070"/>
  <anchor x="394.7666666666666" y="0.0" name="bottom"/>
  <anchor x="394.7666666666666" y="1001.0666666666666" name="top"/>
  <outline>
    <contour>
      <point x="502.6" y="-14.383333333333333" type="curve" smooth="yes"/>
      <point x="663.35" y="-14.383333333333333"/>
      <point x="725.8166666666667" y="109.51666666666665"/>
      <point x="725.8166666666667" y="349.0" type="curve" smooth="yes"/>
      <point x="725.8166666666667" y="652.0" type="line" smooth="yes"/>
      <point x="725.8166666666667" y="890.25"/>
      <point x="663.35" y="1015.45"/>
      <point x="502.75" y="1015.45" type="curve" smooth="yes"/>
      <point x="377.0166666666667" y="1015.45"/>
      <point x="325.78333333333336" y="941.0166666666667"/>
      <point x="306.55" y="840.7333333333333" type="curve"/>
      <point x="254.75000000000003" y="840.7333333333333" type="line"/>
      <point x="299.31666666666666" y="725.8833333333333" type="line"/>
      <point x="312.0166666666667" y="787.55"/>
      <point x="345.8833333333333" y="831.2833333333333"/>
      <point x="405.08333333333337" y="831.2833333333333" type="curve" smooth="yes"/>
      <point x="474.8166666666667" y="831.2833333333333"/>
      <point x="499.29999999999995" y="777.7166666666667"/>
      <point x="499.29999999999995" y="670.9833333333333" type="curve" smooth="yes"/>
      <point x="499.29999999999995" y="338.84999999999997" type="line" smooth="yes"/>
      <point x="499.29999999999995" y="230.26666666666668"/>
      <point x="473.58333333333337" y="175.31666666666666"/>
      <point x="404.46666666666664" y="175.31666666666666" type="curve" smooth="yes"/>
      <point x="334.1166666666667" y="175.31666666666666"/>
      <point x="301.93333333333334" y="231.81666666666663"/>
      <point x="301.31666666666666" y="325.7" type="curve"/>
      <point x="255.9333333333333" y="162.25" type="line"/>
      <point x="311.0833333333333" y="162.25" type="line"/>
      <point x="331.1666666666667" y="61.43333333333334"/>
      <point x="382.1666666666667" y="-14.383333333333333"/>
    </contour>
    <contour>
      <point x="79.56666666666666" y="-350.0" type="line"/>
      <point x="304.70000000000005" y="-350.0" type="line"/>
      <point x="304.70000000000005" y="-58.5" type="line"/>
      <point x="300.7" y="202.56666666666666" type="line"/>
      <point x="301.31666666666666" y="232.5666666666667" type="line"/>
      <point x="301.31666666666666" y="765.5" type="line"/>
      <point x="293.4" y="769.35" type="line"/>
      <point x="303.93333333333334" y="1001.0666666666666" type="line"/>
      <point x="79.56666666666666" y="1001.0666666666666" type="line"/>
    </contour>
  </outline>
</glyph>
<glyph name="q" format="2">
  <advance width="788.9166666666666"/>
  <unicode hex="0071"/>
  <anchor x="394.15000000000003" y="0.0" name="bottom"/>
  <anchor x="394.15000000000003" y="1001.0666666666666" name="top"/>
  <outline>
    <contour>
      <point x="285.78333333333336" y="-14.383333333333333" type="curve" smooth="yes"/>
      <point x="408.3666666666667" y="-14.383333333333333"/>
      <point x="458.98333333333335" y="62.349999999999994"/>
      <point x="477.44999999999993" y="162.25" type="curve"/>
      <point x="534.7666666666667" y="162.25" type="line"/>
      <point x="489.21666666666664" y="280.3333333333333" type="line"/>
      <point x="476.5166666666666" y="219.04999999999998"/>
      <point x="442.65" y="175.31666666666666"/>
      <point x="384.83333333333326" y="175.31666666666666" type="curve" smooth="yes"/>
      <point x="314.1" y="175.31666666666666"/>
      <point x="289.23333333333335" y="228.88333333333335"/>
      <point x="289.23333333333335" y="335.6166666666667" type="curve" smooth="yes"/>
      <point x="289.23333333333335" y="669.2833333333334" type="line" smooth="yes"/>
      <point x="289.23333333333335" y="777.0999999999999"/>
      <point x="315.33333333333337" y="831.2833333333333"/>
      <point x="384.06666666666666" y="831.2833333333333" type="curve" smooth="yes"/>
      <point x="454.4166666666667" y="831.2833333333333"/>
      <point x="484.13333333333327" y="776.25"/>
      <point x="487.21666666666664" y="680.9" type="curve"/>
      <point x="539.7833333333333" y="840.7333333333333" type="line"/>
      <point x="482.3666666666666" y="840.7333333333333" type="line"/>
      <point x="461.5166666666667" y="940.4"/>
      <point x="411.1333333333333" y="1015.45"/>
      <point x="287.31666666666666" y="1015.45" type="curve" smooth="yes"/>
      <point x="124.79999999999998" y="1015.45"/>
      <point x="62.71666666666667" y="889.6333333333333"/>
      <point x="62.71666666666667" y="652.0666666666666" type="curve" smooth="yes"/>
      <point x="62.71666666666667" y="345.2333333333333" type="line" smooth="yes"/>
      <point x="62.71666666666667" y="110.05"/>
      <point x="125.56666666666665" y="-14.383333333333333"/>
    </contour>
    <contour>
      <point x="484.21666666666664" y="-350.0" type="line"/>
      <point x="709.35" y="-350.0" type="line"/>
      <point x="709.35" y="1001.0666666666666" type="line"/>
      <point x="484.59999999999997" y="1001.0666666666666" type="line"/>
      <point x="494.3666666666666" y="782.0" type="line"/>
      <point x="487.21666666666664" y="768.1833333333334" type="line"/>
      <point x="487.21666666666664" y="245.21666666666667" type="line"/>
      <point x="487.8333333333333" y="194.13333333333335" type="line"/>
      <point x="484.21666666666664" y="-58.5" type="line"/>
    </contour>
  </outline>
</glyph>
<glyph name="r" format="2">
  <advance width="532.4166666666667"/>
  <unicode hex="0072"/>
  <anchor x="193.25" y="0.0" name="bottom"/>
  <anchor x="293.56666666666666" y="1001.0666666666666" name="top"/>
  <outline>
    <contour>
      <point x="304.0833333333333" y="603.6" type="line"/>
      <point x="323.8333333333333" y="701.9999999999999"/>
      <point x="389.31666666666666" y="753.1999999999999"/>
      <point x="479.3333333333333" y="753.1999999999999" type="curve" smooth="yes"/>
      <point x="496.1833333333333" y="753.1999999999999"/>
      <point x="512.3333333333333" y="751.5833333333333"/>
      <point x="522.1833333333333" y="749.9666666666667" type="curve"/>
      <point x="515.5666666666667" y="1007.45" type="line"/>
      <point x="504.95" y="1008.0666666666667"/>
      <point x="499.25000000000006" y="1008.6833333333334"/>
      <point x="491.9333333333334" y="1008.6833333333334" type="curve" smooth="yes"/>
      <point x="366.8833333333333" y="1008.6833333333334"/>
      <point x="309.2" y="927.55"/>
      <point x="291.35" y="795.3499999999999" type="curve"/>
      <point x="233.1" y="795.3499999999999" type="line"/>
    </contour>
    <contour>
      <point x="79.56666666666666" y="0.0" type="line"/>
      <point x="306.08333333333337" y="0.0" type="line"/>
      <point x="306.08333333333337" y="712.5666666666667" type="line"/>
      <point x="277.20000000000005" y="732.9166666666667" type="line"/>
      <point x="288.34999999999997" y="1001.0666666666666" type="line"/>
      <point x="79.56666666666666" y="1001.0666666666666" type="line"/>
    </contour>
  </outline>
</glyph>
<glyph name="s" format="2">
  <advance width="601.8000000000001"/>
  <unicode hex="0073"/>
  <anchor x="295.0166666666667" y="0.0" name="bottom"/>
  <anchor x="292.25" y="1001.0666666666666" name="top"/>
  <outline>
    <contour>
      <point x="276.8666666666667" y="-14.383333333333333" type="curve" smooth="yes"/>
      <point x="473.5666666666666" y="-14.383333333333333"/>
      <point x="567.4666666666666" y="89.21666666666667"/>
      <point x="567.4666666666666" y="268.95" type="curve" smooth="yes"/>
      <point x="567.4666666666666" y="292.6666666666667" type="line" smooth="yes"/>
      <point x="567.4666666666666" y="437.03333333333336"/>
      <point x="514.1666666666666" y="500.56666666666666"/>
      <point x="390.25000000000006" y="574.8833333333333" type="curve" smooth="yes"/>
      <point x="300.0" y="630.1333333333333"/>
      <point x="255.08333333333331" y="659.2166666666667"/>
      <point x="255.08333333333331" y="723.8000000000001" type="curve" smooth="yes"/>
      <point x="255.08333333333331" y="734.5833333333333" type="line" smooth="yes"/>
      <point x="255.08333333333331" y="791.25"/>
      <point x="284.48333333333335" y="823.6666666666666"/>
      <point x="357.2" y="823.6666666666666" type="curve" smooth="yes"/>
      <point x="431.5" y="823.6666666666666"/>
      <point x="490.7166666666667" y="795.0500000000001"/>
      <point x="542.7166666666666" y="762.1166666666667" type="curve"/>
      <point x="528.4166666666667" y="954.9166666666667" type="line"/>
      <point x="482.8833333333333" y="987.5333333333333"/>
      <point x="411.21666666666664" y="1015.45"/>
      <point x="319.0" y="1015.45" type="curve" smooth="yes"/>
      <point x="133.83333333333331" y="1015.45"/>
      <point x="35.099999999999994" y="920.0"/>
      <point x="35.099999999999994" y="749.2666666666667" type="curve" smooth="yes"/>
      <point x="35.099999999999994" y="731.4833333333332" type="line" smooth="yes"/>
      <point x="35.099999999999994" y="601.25"/>
      <point x="83.39999999999999" y="526.1833333333334"/>
      <point x="205.1" y="451.56666666666666" type="curve" smooth="yes"/>
      <point x="321.7333333333334" y="379.8666666666666"/>
      <point x="346.1" y="353.15000000000003"/>
      <point x="346.1" y="293.7333333333333" type="curve" smooth="yes"/>
      <point x="346.1" y="276.7833333333333" type="line" smooth="yes"/>
      <point x="346.1" y="217.88333333333333"/>
      <point x="317.6166666666666" y="182.93333333333334"/>
      <point x="243.51666666666668" y="182.93333333333334" type="curve" smooth="yes"/>
      <point x="164.15" y="182.93333333333334"/>
      <point x="100.46666666666667" y="212.7"/>
      <point x="38.78333333333333" y="249.01666666666668" type="curve"/>
      <point x="53.083333333333336" y="42.766666666666666" type="line"/>
      <point x="104.06666666666668" y="13.0"/>
      <point x="180.43333333333337" y="-14.383333333333333"/>
    </contour>
  </outline>
</glyph>
<glyph name="t" format="2">
  <advance width="539.6"/>
  <unicode hex="0074"/>
  <anchor x="307.43333333333334" y="0.0" name="bottom"/>
  <anchor x="269.79999999999995" y="500.5333333333333" name="center"/>
  <anchor x="229.54999999999998" y="1225.3833333333334" name="top"/>
  <anchor x="406.9" y="1425.1333333333334" name="topright"/>
  <outline>
    <contour>
      <point x="347.8833333333333" y="-13.766666666666666" type="curve" smooth="yes"/>
      <point x="414.1666666666667" y="-13.766666666666666"/>
      <point x="468.6166666666666" y="0.15000000000000013"/>
      <point x="508.45000000000005" y="20.599999999999998" type="curve"/>
      <point x="523.1333333333333" y="213.31666666666666" type="line"/>
      <point x="494.66666666666663" y="201.23333333333335"/>
      <point x="463.9666666666667" y="192.38333333333333"/>
      <point x="428.2666666666667" y="192.38333333333333" type="curve" smooth="yes"/>
      <point x="359.6333333333333" y="192.38333333333333"/>
      <point x="332.31666666666666" y="220.08333333333334"/>
      <point x="332.31666666666666" y="293.1166666666667" type="curve" smooth="yes"/>
      <point x="332.31666666666666" y="963.0666666666666" type="line"/>
      <point x="109.95" y="963.0666666666666" type="line"/>
      <point x="109.95" y="240.08333333333334" type="line" smooth="yes"/>
      <point x="109.95" y="72.51666666666668"/>
      <point x="183.7" y="-13.766666666666666"/>
    </contour>
    <contour>
      <point x="14.466666666666667" y="812.7333333333333" type="line"/>
      <point x="496.66666666666674" y="812.7333333333333" type="line"/>
      <point x="511.34999999999997" y="995.5166666666667" type="line"/>
      <point x="14.466666666666667" y="995.5166666666667" type="line"/>
    </contour>
    <contour>
      <point x="113.48333333333335" y="979.3666666666667" type="line"/>
      <point x="326.1666666666667" y="979.3666666666667" type="line"/>
      <point x="334.31666666666666" y="1250.2333333333333" type="line"/>
      <point x="113.48333333333335" y="1220.4" type="line"/>
    </contour>
  </outline>
</glyph>
<glyph name="u" format="2">
  <advance width="795.9166666666667"/>
  <unicode hex="0075"/>
  <anchor x="398.7666666666667" y="0.0" name="bottom"/>
  <anchor x="746.0499999999998" y="0.0" name="ogonek"/>
  <anchor x="398.7666666666667" y="1001.0666666666666" name="top"/>
  <anchor x="786.2166666666666" y="1001.0666666666666" name="topright"/>
  <outline>
    <contour>
      <point x="300.85" y="1001.0666666666666" type="line"/>
      <point x="74.33333333333334" y="1001.0666666666666" type="line"/>
      <point x="74.33333333333334" y="276.2166666666667" type="line" smooth="yes"/>
      <point x="74.33333333333334" y="83.53333333333333"/>
      <point x="136.71666666666667" y="-14.383333333333333"/>
      <point x="284.23333333333335" y="-14.383333333333333" type="curve" smooth="yes"/>
      <point x="416.9" y="-14.383333333333333"/>
      <point x="468.1333333333333" y="61.58333333333334"/>
      <point x="489.3666666666667" y="160.33333333333334" type="curve"/>
      <point x="539.4166666666666" y="160.33333333333334" type="line"/>
      <point x="492.44999999999993" y="280.95000000000005" type="line"/>
      <point x="481.1333333333334" y="219.4333333333333"/>
      <point x="447.26666666666665" y="174.93333333333334"/>
      <point x="389.45000000000005" y="174.93333333333334" type="curve" smooth="yes"/>
      <point x="323.1" y="174.93333333333334"/>
      <point x="300.85" y="221.73333333333332"/>
      <point x="300.85" y="312.4" type="curve" smooth="yes"/>
    </contour>
    <contour>
      <point x="716.35" y="1001.0666666666666" type="line"/>
      <point x="489.83333333333337" y="1001.0666666666666" type="line"/>
      <point x="489.83333333333337" y="191.9333333333333" type="line"/>
      <point x="500.51666666666665" y="187.61666666666665" type="line"/>
      <point x="491.98333333333335" y="0.0" type="line"/>
      <point x="716.35" y="0.0" type="line"/>
    </contour>
  </outline>
</glyph>
<glyph name="v" format="2">
  <advance width="736.0"/>
  <unicode hex="0076"/>
  <anchor x="367.99999999999994" y="0.0" name="bottom"/>
  <anchor x="367.99999999999994" y="1001.0666666666666" name="top"/>
  <outline>
    <contour>
      <point x="377.15000000000003" y="152.96666666666667" type="line"/>
      <point x="359.6166666666667" y="152.96666666666667" type="line"/>
      <point x="255.85" y="1001.0666666666666" type="line"/>
      <point x="29.099999999999998" y="1001.0666666666666" type="line"/>
      <point x="184.2166666666667" y="0.0" type="line"/>
      <point x="551.7833333333334" y="0.0" type="line"/>
      <point x="706.9000000000001" y="1001.0666666666666" type="line"/>
      <point x="481.68333333333334" y="1001.0666666666666" type="line"/>
    </contour>
  </outline>
</glyph>
<glyph name="w" format="2">
  <advance width="1123.7166666666667"/>
  <unicode hex="0077"/>
  <anchor x="562.0500000000001" y="0.0" name="bottom"/>
  <anchor x="562.0500000000001" y="1001.0666666666666" name="top"/>
  <outline>
    <contour>
      <point x="154.66666666666666" y="0.0" type="line"/>
      <point x="484.0833333333333" y="0.0" type="line"/>
      <point x="539.0166666666667" y="592.9333333333333" type="line"/>
      <point x="557.8166666666667" y="805.1166666666667" type="line"/>
      <point x="568.8166666666667" y="805.1166666666667" type="line"/>
      <point x="587.2333333333333" y="592.9333333333333" type="line"/>
      <point x="640.6333333333333" y="0.0" type="line"/>
      <point x="970.0500000000001" y="0.0" type="line"/>
      <point x="1090.0" y="1001.0666666666666" type="line"/>
      <point x="874.4666666666668" y="1001.0666666666666" type="line"/>
      <point x="795.65" y="161.65" type="line"/>
      <point x="782.2666666666665" y="161.65" type="line"/>
      <point x="699.2166666666666" y="979.3666666666667" type="line"/>
      <point x="426.65000000000003" y="979.3666666666667" type="line"/>
      <point x="342.8333333333333" y="161.65" type="line"/>
      <point x="329.06666666666666" y="161.65" type="line"/>
      <point x="254.78333333333336" y="1001.0666666666666" type="line"/>
      <point x="33.71666666666667" y="1001.0666666666666" type="line"/>
    </contour>
  </outline>
</glyph>
<glyph name="x" format="2">
  <advance width="722.1333333333333"/>
  <unicode hex="0078"/>
  <anchor x="361.06666666666666" y="0.0" name="bottom"/>
  <anchor x="361.06666666666666" y="1001.0666666666666" name="top"/>
  <outline>
    <contour>
      <point x="26.950000000000003" y="0.0" type="line"/>
      <point x="250.78333333333336" y="0.0" type="line"/>
      <point x="355.3" y="407.4666666666667" type="line"/>
      <point x="367.8333333333333" y="407.4666666666667" type="line"/>
      <point x="471.35" y="0.0" type="line"/>
      <point x="695.1833333333334" y="0.0" type="line"/>
      <point x="530.2500000000001" y="561.6666666666667" type="line"/>
      <point x="530.2500000000001" y="485.6333333333333" type="line"/>
      <point x="692.5666666666667" y="1001.0666666666666" type="line"/>
      <point x="468.58333333333337" y="1001.0666666666666" type="line"/>
      <point x="367.8333333333333" y="617.3166666666666" type="line"/>
      <point x="355.3" y="617.3166666666666" type="line"/>
      <point x="253.55" y="1001.0666666666666" type="line"/>
      <point x="29.566666666666666" y="1001.0666666666666" type="line"/>
      <point x="191.88333333333333" y="485.6333333333333" type="line"/>
      <point x="191.88333333333333" y="561.6666666666667" type="line"/>
    </contour>
  </outline>
</glyph>
<glyph name="y" format="2">
  <advance width="735.3833333333333"/>
  <unicode hex="0079"/>
  <anchor x="509.2166666666667" y="-143.06666666666666" name="bottom"/>
  <anchor x="367.99999999999994" y="1001.0666666666666" name="top"/>
  <outline>
    <contour>
      <point x="472.15000000000003" y="192.28333333333336" type="line"/>
      <point x="351.31666666666666" y="192.28333333333336" type="line"/>
      <point x="255.46666666666667" y="1001.0666666666666" type="line"/>
      <point x="29.099999999999998" y="1001.0666666666666" type="line"/>
      <point x="184.98333333333335" y="36.85" type="line"/>
      <point x="453.55" y="36.85" type="line"/>
      <point x="339.95000000000005" y="106.35000000000001" type="line"/>
      <point x="259.1" y="-350.0" type="line"/>
      <point x="476.31666666666666" y="-350.0" type="line"/>
      <point x="706.2833333333334" y="1001.0666666666666" type="line"/>
      <point x="479.9166666666667" y="1001.0666666666666" type="line"/>
      <point x="364.85" y="179.13333333333335" type="line"/>
    </contour>
  </outline>
</glyph>
<glyph name="z" format="2">
  <advance width="625.5666666666667"/>
  <unicode hex="007A"/>
  <anchor x="312.1666666666667" y="0.0" name="bottom"/>
  <anchor x="312.7833333333333" y="500.5333333333333" name="center"/>
  <anchor x="312.1666666666667" y="1001.0666666666666" name="top"/>
  <outline>
    <contour>
      <point x="579.7" y="197.23333333333332" type="line"/>
      <point x="276.53333333333336" y="197.23333333333332" type="line"/>
      <point x="576.9333333333334" y="820.2833333333334" type="line"/>
      <point x="576.9333333333334" y="1001.0666666666666" type="line"/>
      <point x="47.633333333333326" y="1001.0666666666666" type="line"/>
      <point x="47.633333333333326" y="806.2166666666667" type="line"/>
      <point x="343.8833333333334" y="806.2166666666667" type="line"/>
      <point x="45.25" y="183.16666666666666" type="line"/>
      <point x="45.25" y="0.0" type="line"/>
      <point x="579.7" y="0.0" type="line"/>
    </contour>
  </outline>
</glyph>
<glyph name="braceleft" format="2">
  <advance width="536.7666666666667"/>
  <unicode hex="007B"/>
  <outline>
    <contour>
      <point x="504.76666666666665" y="1338.7666666666667" type="line"/>
      <point x="460.55" y="1350.7666666666667"/>
      <point x="421.4833333333333" y="1358.15"/>
      <point x="383.09999999999997" y="1358.15" type="curve" smooth="yes"/>
      <point x="215.7" y="1358.15"/>
      <point x="132.11666666666667" y="1274.7833333333333"/>
      <point x="132.11666666666667" y="1076.85" type="curve" smooth="yes"/>
      <point x="132.11666666666667" y="1001.2666666666667"/>
      <point x="146.49999999999997" y="849.3333333333334"/>
      <point x="146.49999999999997" y="790.8333333333333" type="curve" smooth="yes"/>
      <point x="146.49999999999997" y="706.1833333333333"/>
      <point x="117.11666666666667" y="667.55"/>
      <point x="39.4" y="659.3166666666666" type="curve"/>
      <point x="39.4" y="456.3" type="line"/>
      <point x="117.11666666666667" y="448.06666666666666"/>
      <point x="146.49999999999997" y="409.43333333333334"/>
      <point x="146.49999999999997" y="324.78333333333336" type="curve" smooth="yes"/>
      <point x="146.49999999999997" y="267.51666666666665"/>
      <point x="132.11666666666667" y="113.73333333333333"/>
      <point x="132.11666666666667" y="35.53333333333334" type="curve" smooth="yes"/>
      <point x="132.11666666666667" y="-162.4"/>
      <point x="215.7" y="-245.76666666666668"/>
      <point x="383.09999999999997" y="-245.76666666666668" type="curve" smooth="yes"/>
      <point x="421.4833333333333" y="-245.76666666666668"/>
      <point x="459.78333333333336" y="-238.38333333333333"/>
      <point x="504.76666666666665" y="-226.0" type="curve"/>
      <point x="504.76666666666665" y="-55.35" type="line"/>
      <point x="487.83333333333337" y="-61.199999999999996"/>
      <point x="467.28333333333336" y="-65.05"/>
      <point x="446.73333333333335" y="-65.05" type="curve" smooth="yes"/>
      <point x="379.0333333333333" y="-65.05"/>
      <point x="352.7166666666667" y="-27.73333333333333"/>
      <point x="352.7166666666667" y="54.13333333333334" type="curve" smooth="yes"/>
      <point x="352.7166666666667" y="110.41666666666666"/>
      <point x="366.09999999999997" y="261.81666666666666"/>
      <point x="366.09999999999997" y="322.25" type="curve" smooth="yes"/>
      <point x="366.09999999999997" y="454.93333333333334"/>
      <point x="332.95" y="536.15"/>
      <point x="191.9333333333333" y="556.7666666666668" type="curve"/>
      <point x="213.13333333333333" y="527.0500000000001" type="line"/>
      <point x="213.13333333333333" y="563.0" type="line"/>
      <point x="329.18333333333334" y="586.3833333333333"/>
      <point x="366.09999999999997" y="659.6833333333334"/>
      <point x="366.09999999999997" y="792.6" type="curve" smooth="yes"/>
      <point x="366.09999999999997" y="851.8"/>
      <point x="352.7166666666667" y="1001.9666666666667"/>
      <point x="352.7166666666667" y="1058.25" type="curve" smooth="yes"/>
      <point x="352.7166666666667" y="1140.1166666666666"/>
      <point x="379.0333333333333" y="1177.4333333333332"/>
      <point x="446.73333333333335" y="1177.4333333333332" type="curve" smooth="yes"/>
      <point x="467.28333333333336" y="1177.4333333333332"/>
      <point x="487.83333333333337" y="1173.5833333333335"/>
      <point x="504.76666666666665" y="1167.7333333333333" type="curve"/>
    </contour>
  </outline>
</glyph>
<glyph name="bar" format="2">
  <advance width="411.93333333333334"/>
  <unicode hex="007C"/>
  <outline>
    <contour>
      <point x="306.2833333333333" y="-412.09999999999997" type="line"/>
      <point x="306.2833333333333" y="1426.0" type="line"/>
      <point x="105.65" y="1426.0" type="line"/>
      <point x="105.65" y="-412.09999999999997" type="line"/>
    </contour>
  </outline>
</glyph>
<glyph name="braceright" format="2">
  <advance width="536.7666666666667"/>
  <unicode hex="007D"/>
  <outline>
    <contour>
      <point x="31.999999999999996" y="1338.7666666666667" type="curve"/>
      <point x="31.999999999999996" y="1167.7333333333333" type="line"/>
      <point x="48.93333333333334" y="1173.5833333333335"/>
      <point x="69.48333333333333" y="1177.4333333333332"/>
      <point x="90.03333333333333" y="1177.4333333333332" type="curve" smooth="yes"/>
      <point x="157.73333333333332" y="1177.4333333333332"/>
      <point x="184.05" y="1140.1166666666666"/>
      <point x="184.05" y="1058.25" type="curve" smooth="yes"/>
      <point x="184.05" y="1001.9666666666667"/>
      <point x="170.66666666666666" y="851.8"/>
      <point x="170.66666666666666" y="792.6" type="curve" smooth="yes"/>
      <point x="170.66666666666666" y="659.6833333333334"/>
      <point x="207.58333333333334" y="586.3833333333333"/>
      <point x="323.6333333333333" y="563.0" type="curve"/>
      <point x="323.6333333333333" y="527.0500000000001" type="line"/>
      <point x="344.8333333333333" y="556.7666666666668" type="line"/>
      <point x="203.81666666666666" y="536.15"/>
      <point x="170.66666666666666" y="454.93333333333334"/>
      <point x="170.66666666666666" y="322.25" type="curve" smooth="yes"/>
      <point x="170.66666666666666" y="261.81666666666666"/>
      <point x="184.05" y="110.41666666666666"/>
      <point x="184.05" y="54.13333333333334" type="curve" smooth="yes"/>
      <point x="184.05" y="-27.73333333333333"/>
      <point x="157.73333333333332" y="-65.05"/>
      <point x="90.03333333333332" y="-65.05" type="curve" smooth="yes"/>
      <point x="69.48333333333332" y="-65.05"/>
      <point x="48.93333333333333" y="-61.199999999999996"/>
      <point x="31.999999999999996" y="-55.35" type="curve"/>
      <point x="31.999999999999996" y="-226.0" type="line"/>
      <point x="76.98333333333333" y="-238.38333333333333"/>
      <point x="115.28333333333333" y="-245.76666666666668"/>
      <point x="153.66666666666666" y="-245.76666666666668" type="curve" smooth="yes"/>
      <point x="321.06666666666666" y="-245.76666666666668"/>
      <point x="404.65" y="-162.4"/>
      <point x="404.65" y="35.53333333333334" type="curve" smooth="yes"/>
      <point x="404.65" y="113.73333333333333"/>
      <point x="390.26666666666665" y="267.51666666666665"/>
      <point x="390.26666666666665" y="324.78333333333336" type="curve" smooth="yes"/>
      <point x="390.26666666666665" y="409.43333333333334"/>
      <point x="419.6499999999999" y="448.06666666666666"/>
      <point x="497.3666666666666" y="456.3" type="curve"/>
      <point x="497.3666666666666" y="659.3166666666666" type="line"/>
      <point x="419.6499999999999" y="667.55"/>
      <point x="390.26666666666665" y="706.1833333333333"/>
      <point x="390.26666666666665" y="790.8333333333333" type="curve" smooth="yes"/>
      <point x="390.26666666666665" y="849.3333333333334"/>
      <point x="404.65" y="1001.2666666666667"/>
      <point x="404.65" y="1076.85" type="curve" smooth="yes"/>
      <point x="404.65" y="1274.7833333333333"/>
      <point x="321.06666666666666" y="1358.15"/>
      <point x="153.66666666666666" y="1358.15" type="curve" smooth="yes"/>
      <point x="115.28333333333333" y="1358.15"/>
      <point x="76.21666666666665" y="1350.7666666666667"/>
    </contour>
  </outline>
</glyph>
<glyph name="asciitilde" format="2">
  <advance width="821.3"/>
  <unicode hex="007E"/>
  <outline>
    <contour>
      <point x="558.1833333333333" y="514.5" type="curve" smooth="yes"/>
      <point x="696.5833333333334" y="514.5"/>
      <point x="749.1833333333333" y="606.75"/>
      <point x="749.1833333333333" y="749.0999999999999" type="curve" smooth="yes"/>
      <point x="749.1833333333333" y="802.1999999999999" type="line"/>
      <point x="585.4499999999999" y="802.1999999999999" type="line"/>
      <point x="585.4499999999999" y="789.5666666666666" type="line" smooth="yes"/>
      <point x="585.0666666666666" y="740.5"/>
      <point x="573.8333333333334" y="712.5"/>
      <point x="527.2333333333333" y="712.5" type="curve" smooth="yes"/>
      <point x="463.0666666666667" y="712.5"/>
      <point x="365.5" y="779.5333333333334"/>
      <point x="262.1166666666667" y="779.5333333333334" type="curve" smooth="yes"/>
      <point x="123.71666666666665" y="779.5333333333334"/>
      <point x="71.5" y="687.8833333333333"/>
      <point x="71.5" y="543.6999999999999" type="curve" smooth="yes"/>
      <point x="71.5" y="491.45" type="line"/>
      <point x="235.23333333333338" y="491.45" type="line"/>
      <point x="235.23333333333338" y="502.23333333333335" type="line" smooth="yes"/>
      <point x="235.23333333333335" y="552.2166666666666"/>
      <point x="247.23333333333335" y="581.5333333333333"/>
      <point x="293.45" y="581.5333333333333" type="curve" smooth="yes"/>
      <point x="360.4666666666667" y="581.5333333333333"/>
      <point x="455.18333333333334" y="514.5"/>
    </contour>
  </outline>
</glyph>
<glyph name="exclamdown" format="2">
  <advance width="399.3"/>
  <unicode hex="00A1"/>
  <outline>
    <contour>
      <point x="289.35" y="600.4333333333333" type="line"/>
      <point x="109.95000000000002" y="600.4333333333333" type="line"/>
      <point x="80.05" y="-276.93333333333334" type="line"/>
      <point x="319.25000000000006" y="-276.93333333333334" type="line"/>
    </contour>
    <contour>
      <point x="202.41666666666669" y="1022.9" type="curve" smooth="yes"/>
      <point x="119.93333333333332" y="1022.9"/>
      <point x="82.5" y="971.0833333333333"/>
      <point x="82.5" y="878.5166666666667" type="curve" smooth="yes"/>
      <point x="82.5" y="861.5166666666667" type="line" smooth="yes"/>
      <point x="82.5" y="770.3333333333333"/>
      <point x="119.93333333333332" y="717.75"/>
      <point x="202.41666666666669" y="717.75" type="curve" smooth="yes"/>
      <point x="281.5166666666667" y="717.75"/>
      <point x="322.33333333333337" y="770.3333333333333"/>
      <point x="322.33333333333337" y="861.5166666666667" type="curve" smooth="yes"/>
      <point x="322.33333333333337" y="878.5166666666667" type="line" smooth="yes"/>
      <point x="322.33333333333337" y="971.0833333333333"/>
      <point x="281.5166666666667" y="1022.9"/>
    </contour>
  </outline>
</glyph>
<glyph name="cent" format="2">
  <advance width="587.9666666666667"/>
  <unicode hex="00A2"/>
  <anchor x="328.25" y="0.0" name="bottom"/>
  <anchor x="328.25" y="1001.0666666666666" name="top"/>
  <outline>
    <contour>
      <point x="436.24999999999994" y="904.95" type="line"/>
      <point x="436.24999999999994" y="1158.0833333333333" type="line"/>
      <point x="241.7833333333333" y="1158.0833333333333" type="line"/>
      <point x="241.7833333333333" y="904.95" type="line"/>
    </contour>
    <contour>
      <point x="436.24999999999994" y="-171.16666666666666" type="line"/>
      <point x="436.24999999999994" y="104.06666666666666" type="line"/>
      <point x="241.7833333333333" y="104.06666666666666" type="line"/>
      <point x="241.7833333333333" y="-171.16666666666666" type="line"/>
    </contour>
    <component base="c"/>
  </outline>
</glyph>
<glyph name="sterling" format="2">
  <advance width="685.2833333333333"/>
  <unicode hex="00A3"/>
  <outline>
    <contour>
      <point x="46.166666666666664" y="587.6500000000001" type="line"/>
      <point x="582.5" y="587.6500000000001" type="line"/>
      <point x="592.65" y="756.0166666666667" type="line"/>
      <point x="56.31666666666667" y="756.0166666666667" type="line"/>
    </contour>
    <contour>
      <point x="232.9333333333333" y="207.91666666666669" type="line"/>
      <point x="232.9333333333333" y="215.45" type="line"/>
      <point x="336.5" y="254.41666666666669"/>
      <point x="395.4" y="317.23333333333335"/>
      <point x="395.4" y="489.48333333333335" type="curve" smooth="yes"/>
      <point x="395.4" y="622.4666666666667"/>
      <point x="358.6166666666667" y="809.9"/>
      <point x="358.6166666666667" y="950.2833333333333" type="curve" smooth="yes"/>
      <point x="358.6166666666667" y="1045.4333333333334"/>
      <point x="392.95000000000005" y="1093.5333333333333"/>
      <point x="482.34999999999997" y="1093.5333333333333" type="curve" smooth="yes"/>
      <point x="528.9666666666667" y="1093.5333333333333"/>
      <point x="573.5833333333334" y="1086.3"/>
      <point x="620.8166666666666" y="1070.3666666666668" type="curve"/>
      <point x="606.5166666666667" y="1267.6833333333332" type="line"/>
      <point x="558.9166666666666" y="1285.3"/>
      <point x="492.08333333333337" y="1298.15"/>
      <point x="422.1000000000001" y="1298.15" type="curve" smooth="yes"/>
      <point x="209.25" y="1298.15"/>
      <point x="125.56666666666666" y="1190.4"/>
      <point x="125.56666666666666" y="981.3333333333333" type="curve" smooth="yes"/>
      <point x="125.56666666666666" y="837.3333333333334"/>
      <point x="162.35" y="654.4499999999999"/>
      <point x="162.35" y="503.05" type="curve" smooth="yes"/>
      <point x="162.35" y="334.21666666666664"/>
      <point x="132.41666666666666" y="276.25"/>
      <point x="65.75" y="210.35" type="curve" smooth="yes"/>
      <point x="55.78333333333334" y="201.15" type="line"/>
      <point x="55.78333333333334" y="0.0" type="line"/>
      <point x="642.1999999999999" y="0.0" type="line"/>
      <point x="642.1999999999999" y="207.91666666666669" type="line"/>
    </contour>
  </outline>
</glyph>
<glyph name="currency" format="2">
  <advance width="845.2333333333332"/>
  <unicode hex="00A4"/>
  <outline>
    <contour>
      <point x="422.11666666666673" y="262.1" type="curve" smooth="yes"/>
      <point x="619.9" y="262.1"/>
      <point x="719.9499999999999" y="377.6166666666667"/>
      <point x="719.9499999999999" y="589.9666666666667" type="curve" smooth="yes"/>
      <point x="719.9499999999999" y="653.6333333333333" type="line" smooth="yes"/>
      <point x="719.9499999999999" y="864.5999999999999"/>
      <point x="619.9" y="980.1166666666667"/>
      <point x="422.11666666666673" y="980.1166666666667" type="curve" smooth="yes"/>
      <point x="223.95" y="980.1166666666667"/>
      <point x="123.9" y="864.5999999999999"/>
      <point x="123.9" y="653.6333333333333" type="curve" smooth="yes"/>
      <point x="123.9" y="589.9666666666667" type="line" smooth="yes"/>
      <point x="123.9" y="377.6166666666667"/>
      <point x="223.95" y="262.1"/>
    </contour>
    <contour>
      <point x="422.11666666666673" y="427.90000000000003" type="curve" smooth="yes"/>
      <point x="352.84999999999997" y="427.90000000000003"/>
      <point x="322.75" y="477.0833333333333"/>
      <point x="322.75" y="581.2833333333333" type="curve" smooth="yes"/>
      <point x="322.75" y="662.3166666666666" type="line" smooth="yes"/>
      <point x="322.75" y="766.5166666666667"/>
      <point x="352.84999999999997" y="815.7"/>
      <point x="422.11666666666673" y="815.7" type="curve" smooth="yes"/>
      <point x="491.0" y="815.7"/>
      <point x="518.7166666666667" y="765.5166666666668"/>
      <point x="520.1" y="662.3166666666666" type="curve" smooth="yes"/>
      <point x="521.1" y="581.2833333333333" type="line" smooth="yes"/>
      <point x="522.4833333333333" y="477.0833333333333"/>
      <point x="491.0" y="427.90000000000003"/>
    </contour>
    <contour>
      <point x="654.1833333333334" y="451.3" type="line"/>
      <point x="528.9666666666667" y="331.46666666666664" type="line"/>
      <point x="679.3166666666667" y="129.1" type="line"/>
      <point x="817.2166666666666" y="232.86666666666667" type="line"/>
    </contour>
    <contour>
      <point x="323.8" y="341.0" type="line"/>
      <point x="190.9" y="449.3833333333333" type="line"/>
      <point x="28.016666666666666" y="232.86666666666667" type="line"/>
      <point x="164.91666666666666" y="129.1" type="line"/>
    </contour>
    <contour>
      <point x="186.51666666666665" y="791.6833333333333" type="line"/>
      <point x="317.2666666666667" y="902.9833333333333" type="line"/>
      <point x="165.29999999999998" y="1106.5833333333335" type="line"/>
      <point x="28.016666666666666" y="1003.8166666666666" type="line"/>
    </contour>
    <contour>
      <point x="518.6666666666666" y="892.3" type="line"/>
      <point x="644.2666666666667" y="773.4666666666667" type="line"/>
      <point x="816.2166666666666" y="1003.8166666666666" type="line"/>
      <point x="678.9333333333334" y="1106.5833333333335" type="line"/>
    </contour>
  </outline>
</glyph>
<glyph name="yen" format="2">
  <advance width="773.5000000000001"/>
  <unicode hex="00A5"/>
  <anchor x="386.01666666666665" y="0.0" name="bottom"/>
  <anchor x="386.01666666666665" y="1278.0" name="top"/>
  <anchor x="30.48333333333333" y="1278.0" name="topleft"/>
  <outline>
    <contour>
      <point x="433.93333333333334" y="516.5" type="line"/>
      <point x="693.25" y="516.5" type="line"/>
      <point x="703.0166666666668" y="676.6666666666667" type="line"/>
      <point x="466.68333333333334" y="676.6666666666667" type="line"/>
    </contour>
    <contour>
      <point x="84.63333333333334" y="386.66666666666663" type="line"/>
      <point x="74.86666666666667" y="231.8" type="line"/>
      <point x="693.25" y="231.8" type="line"/>
      <point x="703.0166666666668" y="386.66666666666663" type="line"/>
    </contour>
    <contour>
      <point x="287.8333333333333" y="676.6666666666667" type="line"/>
      <point x="84.63333333333334" y="676.6666666666667" type="line"/>
      <point x="74.86666666666667" y="516.5" type="line"/>
      <point x="322.9666666666667" y="516.5" type="line"/>
    </contour>
    <component base="Y" xOffset="10.483333333333334"/>
  </outline>
</glyph>
<glyph name="brokenbar" format="2">
  <advance width="411.93333333333334"/>
  <unicode hex="00A6"/>
  <outline>
    <contour>
      <point x="306.28333333333336" y="578.4" type="line"/>
      <point x="306.28333333333336" y="1426.0" type="line"/>
      <point x="105.65" y="1426.0" type="line"/>
      <point x="105.65" y="578.4" type="line"/>
    </contour>
    <contour>
      <point x="306.28333333333336" y="-412.09999999999997" type="line"/>
      <point x="306.28333333333336" y="436.1166666666666" type="line"/>
      <point x="105.65" y="436.1166666666666" type="line"/>
      <point x="105.65" y="-412.09999999999997" type="line"/>
    </contour>
  </outline>
</glyph>
<glyph name="section" format="2">
  <advance width="651.2666666666667"/>
  <unicode hex="00A7"/>
  <outline>
    <contour>
      <point x="349.16666666666663" y="431.2166666666667" type="curve"/>
      <point x="455.73333333333335" y="341.81666666666666" type="line"/>
      <point x="454.96666666666664" y="394.00000000000006" type="line"/>
      <point x="542.5666666666666" y="424.65"/>
      <point x="588.3166666666667" y="498.81666666666666"/>
      <point x="588.3166666666667" y="596.4" type="curve" smooth="yes"/>
      <point x="588.3166666666667" y="619.25" type="line" smooth="yes"/>
      <point x="588.3166666666667" y="753.1166666666667"/>
      <point x="528.0666666666667" y="808.7333333333333"/>
      <point x="396.80000000000007" y="888.05" type="curve" smooth="yes"/>
      <point x="314.18333333333334" y="938.9166666666666"/>
      <point x="278.93333333333334" y="966.1666666666666"/>
      <point x="278.93333333333334" y="1019.6" type="curve" smooth="yes"/>
      <point x="278.93333333333334" y="1027.9166666666667" type="line" smooth="yes"/>
      <point x="278.93333333333334" y="1080.0333333333333"/>
      <point x="308.3333333333333" y="1108.2166666666667"/>
      <point x="380.43333333333334" y="1108.2166666666667" type="curve" smooth="yes"/>
      <point x="455.58333333333337" y="1108.2166666666667"/>
      <point x="516.65" y="1079.6000000000001"/>
      <point x="564.5666666666667" y="1046.05" type="curve"/>
      <point x="550.2666666666667" y="1237.0" type="line"/>
      <point x="503.96666666666664" y="1268.7666666666667"/>
      <point x="431.83333333333337" y="1298.1499999999999"/>
      <point x="337.9166666666667" y="1298.1499999999999" type="curve" smooth="yes"/>
      <point x="157.06666666666666" y="1298.1499999999999"/>
      <point x="58.33333333333333" y="1208.4666666666667"/>
      <point x="58.33333333333333" y="1047.6499999999999" type="curve" smooth="yes"/>
      <point x="58.33333333333333" y="1035.4166666666667" type="line" smooth="yes"/>
      <point x="58.33333333333333" y="916.4333333333333"/>
      <point x="101.88333333333333" y="836.5333333333334"/>
      <point x="243.93333333333334" y="753.5333333333333" type="curve" smooth="yes"/>
      <point x="361.59999999999997" y="684.1500000000001"/>
      <point x="399.26666666666665" y="652.3666666666666"/>
      <point x="399.26666666666665" y="568.6333333333333" type="curve" smooth="yes"/>
      <point x="399.26666666666665" y="536.1999999999999" type="line" smooth="yes"/>
      <point x="399.26666666666665" y="490.4333333333334"/>
      <point x="387.5666666666666" y="452.3833333333333"/>
    </contour>
    <contour>
      <point x="298.48333333333335" y="743.1" type="curve"/>
      <point x="191.91666666666669" y="834.35" type="line"/>
      <point x="193.3" y="780.9333333333334" type="line"/>
      <point x="102.61666666666666" y="748.05"/>
      <point x="59.333333333333336" y="676.7333333333333"/>
      <point x="59.333333333333336" y="577.7666666666667" type="curve" smooth="yes"/>
      <point x="59.333333333333336" y="563.2333333333332" type="line" smooth="yes"/>
      <point x="59.333333333333336" y="434.43333333333334"/>
      <point x="118.31666666666666" y="369.45"/>
      <point x="244.48333333333335" y="289.4166666666667" type="curve" smooth="yes"/>
      <point x="337.38333333333327" y="231.56666666666666"/>
      <point x="367.5666666666666" y="204.15"/>
      <point x="367.5666666666666" y="147.48333333333335" type="curve" smooth="yes"/>
      <point x="367.5666666666666" y="139.16666666666666" type="line" smooth="yes"/>
      <point x="367.5666666666666" y="87.66666666666667"/>
      <point x="339.08333333333337" y="51.63333333333335"/>
      <point x="264.3666666666667" y="51.63333333333335" type="curve" smooth="yes"/>
      <point x="182.5333333333333" y="51.63333333333335"/>
      <point x="116.38333333333333" y="81.4"/>
      <point x="60.25" y="117.10000000000001" type="curve"/>
      <point x="73.93333333333334" y="-84.21666666666667" type="line"/>
      <point x="124.91666666666667" y="-115.21666666666665"/>
      <point x="201.9" y="-143.83333333333334"/>
      <point x="298.95000000000005" y="-143.83333333333334" type="curve" smooth="yes"/>
      <point x="495.03333333333336" y="-143.83333333333334"/>
      <point x="588.3166666666667" y="-46.38333333333333"/>
      <point x="588.3166666666667" y="121.96666666666667" type="curve" smooth="yes"/>
      <point x="588.3166666666667" y="135.81666666666666" type="line" smooth="yes"/>
      <point x="588.3166666666667" y="271.7666666666667"/>
      <point x="545.3166666666667" y="339.15000000000003"/>
      <point x="416.54999999999995" y="413.33333333333337" type="curve" smooth="yes"/>
      <point x="303.73333333333335" y="477.8833333333333"/>
      <point x="248.3833333333333" y="518.5"/>
      <point x="248.3833333333333" y="607.7" type="curve" smooth="yes"/>
      <point x="248.3833333333333" y="636.2666666666667" type="line"/>
      <point x="248.3833333333333" y="684.5"/>
      <point x="260.08333333333337" y="721.9333333333333"/>
    </contour>
  </outline>
</glyph>
<glyph name="copyright" format="2">
  <advance width="1142.0666666666668"/>
  <unicode hex="00A9"/>
  <outline>
    <contour>
      <point x="571.0333333333333" y="-18.383333333333333" type="curve" smooth="yes"/>
      <point x="893.2833333333333" y="-18.383333333333333"/>
      <point x="1072.8833333333334" y="164.13333333333335"/>
      <point x="1072.8833333333334" y="501.9166666666667" type="curve" smooth="yes"/>
      <point x="1072.8833333333334" y="776.0833333333334" type="line" smooth="yes"/>
      <point x="1072.8833333333334" y="1113.8666666666666"/>
      <point x="893.2833333333333" y="1296.3833333333334"/>
      <point x="571.0333333333333" y="1296.3833333333334" type="curve" smooth="yes"/>
      <point x="248.16666666666666" y="1296.3833333333334"/>
      <point x="69.18333333333334" y="1113.8666666666666"/>
      <point x="69.18333333333334" y="776.0833333333334" type="curve" smooth="yes"/>
      <point x="69.18333333333334" y="501.9166666666667" type="line" smooth="yes"/>
      <point x="69.18333333333334" y="164.13333333333335"/>
      <point x="248.16666666666666" y="-18.383333333333333"/>
    </contour>
    <contour>
      <point x="605.5666666666666" y="305.0833333333333" type="curve" smooth="yes"/>
      <point x="660.1" y="305.0833333333333"/>
      <point x="707.4" y="319.0833333333333"/>
      <point x="737.3166666666666" y="339.93333333333334" type="curve"/>
      <point x="747.85" y="480.0" type="line"/>
      <point x="722.15" y="462.3"/>
      <point x="691.6833333333333" y="448.8333333333333"/>
      <point x="653.9833333333333" y="448.8333333333333" type="curve" smooth="yes"/>
      <point x="582.8166666666666" y="448.8333333333333"/>
      <point x="551.9666666666667" y="493.6166666666667"/>
      <point x="551.9666666666667" y="570.6333333333333" type="curve" smooth="yes"/>
      <point x="551.9666666666667" y="710.9" type="line" smooth="yes"/>
      <point x="551.9666666666667" y="788.15"/>
      <point x="578.4333333333333" y="832.9333333333334"/>
      <point x="648.9833333333333" y="832.9333333333334" type="curve" smooth="yes"/>
      <point x="687.5333333333333" y="832.9333333333334"/>
      <point x="716.2333333333333" y="820.0833333333333"/>
      <point x="742.4666666666667" y="802.7666666666667" type="curve"/>
      <point x="731.9333333333333" y="939.6833333333334" type="line"/>
      <point x="701.7833333333333" y="959.3000000000001"/>
      <point x="658.8666666666667" y="973.9166666666666"/>
      <point x="604.3333333333333" y="973.9166666666666" type="curve" smooth="yes"/>
      <point x="457.75" y="973.9166666666666"/>
      <point x="390.3833333333333" y="877.9333333333333"/>
      <point x="390.3833333333333" y="712.7333333333333" type="curve" smooth="yes"/>
      <point x="390.3833333333333" y="565.2666666666667" type="line" smooth="yes"/>
      <point x="390.3833333333333" y="399.83333333333337"/>
      <point x="456.98333333333335" y="305.0833333333333"/>
    </contour>
    <contour>
      <point x="571.0333333333333" y="115.98333333333333" type="curve" smooth="yes"/>
      <point x="349.1666666666667" y="115.98333333333333"/>
      <point x="224.15" y="248.38333333333335"/>
      <point x="224.15" y="483.3166666666666" type="curve" smooth="yes"/>
      <point x="224.15" y="796.0666666666667" type="line" smooth="yes"/>
      <point x="224.15" y="1030.0"/>
      <point x="349.1666666666667" y="1162.0166666666667"/>
      <point x="571.0333333333333" y="1162.0166666666667" type="curve" smooth="yes"/>
      <point x="792.2833333333333" y="1162.0166666666667"/>
      <point x="917.9166666666667" y="1030.0"/>
      <point x="917.9166666666667" y="796.0666666666667" type="curve" smooth="yes"/>
      <point x="917.9166666666667" y="483.3166666666666" type="line" smooth="yes"/>
      <point x="917.9166666666667" y="248.38333333333335"/>
      <point x="792.2833333333333" y="115.98333333333333"/>
    </contour>
  </outline>
</glyph>
<glyph name="ordfeminine" format="2">
  <advance width="473.3"/>
  <unicode hex="00AA"/>
  <outline>
    <contour>
      <point x="270.46666666666664" y="639.6166666666667" type="line"/>
      <point x="427.2" y="639.6166666666667" type="line"/>
      <point x="427.2" y="1068.4333333333334" type="line" smooth="yes"/>
      <point x="427.2" y="1206.1"/>
      <point x="378.5166666666666" y="1290.0"/>
      <point x="224.49999999999997" y="1290.0" type="curve" smooth="yes"/>
      <point x="161.51666666666668" y="1290.0"/>
      <point x="103.30000000000001" y="1271.7666666666667"/>
      <point x="60.61666666666666" y="1247.5333333333333" type="curve"/>
      <point x="48.31666666666666" y="1112.0" type="line"/>
      <point x="93.61666666666667" y="1135.9333333333334"/>
      <point x="145.53333333333336" y="1155.6333333333332"/>
      <point x="198.60000000000002" y="1155.6333333333332" type="curve" smooth="yes"/>
      <point x="257.5333333333333" y="1155.6333333333332"/>
      <point x="274.23333333333335" y="1127.9166666666665"/>
      <point x="274.23333333333335" y="1071.5833333333335" type="curve"/>
      <point x="274.23333333333335" y="1021.3166666666666" type="line"/>
      <point x="274.23333333333335" y="768.8333333333334" type="line"/>
      <point x="277.23333333333335" y="766.0666666666666" type="line"/>
    </contour>
    <contour>
      <point x="155.55" y="629.2333333333333" type="curve" smooth="yes"/>
      <point x="230.61666666666665" y="629.2333333333333"/>
      <point x="255.9333333333333" y="673.5333333333333"/>
      <point x="269.0833333333333" y="735.1333333333333" type="curve"/>
      <point x="293.3" y="735.1333333333333" type="line"/>
      <point x="275.23333333333335" y="807.6" type="line"/>
      <point x="268.76666666666665" y="779.3333333333333"/>
      <point x="251.28333333333333" y="757.3833333333333"/>
      <point x="222.95000000000002" y="757.3833333333333" type="curve" smooth="yes"/>
      <point x="191.38333333333333" y="757.3833333333333"/>
      <point x="180.06666666666666" y="781.1"/>
      <point x="180.06666666666666" y="816.2833333333333" type="curve" smooth="yes"/>
      <point x="180.06666666666666" y="855.2833333333333" type="line" smooth="yes"/>
      <point x="180.06666666666666" y="896.85"/>
      <point x="191.0" y="917.6333333333333"/>
      <point x="230.8" y="929.8" type="curve" smooth="yes"/>
      <point x="302.0666666666667" y="951.0500000000001" type="line"/>
      <point x="286.6166666666667" y="1060.5333333333333" type="line"/>
      <point x="187.6" y="1034.5166666666667" type="line" smooth="yes"/>
      <point x="64.78333333333333" y="1003.1999999999999"/>
      <point x="28.48333333333333" y="949.2833333333333"/>
      <point x="28.48333333333333" y="846.3000000000001" type="curve" smooth="yes"/>
      <point x="28.48333333333333" y="802.6" type="line" smooth="yes"/>
      <point x="28.48333333333333" y="691.5333333333334"/>
      <point x="69.01666666666667" y="629.2333333333333"/>
    </contour>
  </outline>
</glyph>
<glyph name="logicalnot" format="2">
  <advance width="701.4166666666666"/>
  <unicode hex="00AC"/>
  <outline>
    <contour>
      <point x="639.3000000000001" y="305.1666666666667" type="line"/>
      <point x="639.3000000000001" y="652.6" type="line"/>
      <point x="444.2166666666667" y="652.6" type="line"/>
      <point x="444.2166666666667" y="305.1666666666667" type="line"/>
    </contour>
    <contour>
      <point x="55.46666666666667" y="542.5333333333334" type="line"/>
      <point x="639.3000000000001" y="542.5333333333334" type="line"/>
      <point x="639.3000000000001" y="730.4666666666667" type="line"/>
      <point x="55.46666666666667" y="730.4666666666667" type="line"/>
    </contour>
  </outline>
</glyph>
<glyph name="registered" format="2">
  <advance width="670.6833333333333"/>
  <unicode hex="00AE"/>
  <outline>
    <contour>
      <point x="335.03333333333336" y="532.8166666666667" type="curve" smooth="yes"/>
      <point x="522.3833333333333" y="532.8166666666667"/>
      <point x="619.4333333333334" y="649.8833333333333"/>
      <point x="619.4333333333334" y="837.3833333333333" type="curve" smooth="yes"/>
      <point x="619.4333333333334" y="991.9666666666667" type="line" smooth="yes"/>
      <point x="619.4333333333334" y="1179.0833333333333"/>
      <point x="522.3833333333333" y="1295.15"/>
      <point x="335.03333333333336" y="1295.15" type="curve" smooth="yes"/>
      <point x="147.3" y="1295.15"/>
      <point x="50.86666666666667" y="1178.4666666666667"/>
      <point x="50.86666666666667" y="991.9666666666667" type="curve" smooth="yes"/>
      <point x="50.86666666666667" y="837.3833333333333" type="line" smooth="yes"/>
      <point x="50.86666666666667" y="649.8833333333333"/>
      <point x="147.3" y="532.8166666666667"/>
    </contour>
    <contour>
      <point x="335.03333333333336" y="616.6166666666667" type="curve" smooth="yes"/>
      <point x="206.5" y="616.6166666666667"/>
      <point x="146.96666666666667" y="690.7833333333333"/>
      <point x="146.96666666666667" y="829.4666666666667" type="curve" smooth="yes"/>
      <point x="146.96666666666667" y="1001.2666666666667" type="line" smooth="yes"/>
      <point x="146.96666666666667" y="1137.5666666666666"/>
      <point x="206.5" y="1211.3500000000001"/>
      <point x="335.03333333333336" y="1211.3500000000001" type="curve" smooth="yes"/>
      <point x="462.56666666666666" y="1211.3500000000001"/>
      <point x="523.3333333333334" y="1137.5666666666666"/>
      <point x="523.3333333333334" y="1001.2666666666667" type="curve" smooth="yes"/>
      <point x="523.3333333333334" y="829.4666666666667" type="line" smooth="yes"/>
      <point x="523.3333333333334" y="690.7833333333333"/>
      <point x="462.56666666666666" y="616.6166666666667"/>
    </contour>
    <contour>
      <point x="377.04999999999995" y="723.3333333333333" type="line"/>
      <point x="462.2333333333333" y="723.3333333333333" type="line"/>
      <point x="452.61666666666673" y="809.2333333333332" type="line" smooth="yes"/>
      <point x="445.3833333333334" y="874.0"/>
      <point x="428.08333333333326" y="907.7833333333333"/>
      <point x="369.26666666666665" y="912.7833333333333" type="curve"/>
      <point x="385.09999999999997" y="902.4833333333333" type="line"/>
      <point x="385.09999999999997" y="914.4000000000001" type="line"/>
      <point x="435.7" y="918.4"/>
      <point x="456.38333333333327" y="948.7833333333333"/>
      <point x="456.38333333333327" y="998.0833333333333" type="curve" smooth="yes"/>
      <point x="456.38333333333327" y="1014.0999999999999" type="line" smooth="yes"/>
      <point x="456.38333333333327" y="1081.7166666666667"/>
      <point x="419.7" y="1119.7833333333335"/>
      <point x="339.8" y="1119.7833333333335" type="curve" smooth="yes"/>
      <point x="294.18333333333334" y="1119.7833333333335" type="line"/>
      <point x="294.18333333333334" y="1046.2833333333333" type="line"/>
      <point x="337.2666666666667" y="1046.2833333333333" type="line" smooth="yes"/>
      <point x="361.5833333333333" y="1046.2833333333333"/>
      <point x="372.20000000000005" y="1029.8166666666666"/>
      <point x="372.20000000000005" y="996.5" type="curve" smooth="yes"/>
      <point x="372.20000000000005" y="980.1833333333334" type="line" smooth="yes"/>
      <point x="372.20000000000005" y="946.0166666666667"/>
      <point x="361.5833333333333" y="930.5500000000001"/>
      <point x="335.4166666666667" y="929.9333333333334" type="curve" smooth="yes"/>
      <point x="295.41666666666663" y="929.3166666666667" type="line"/>
      <point x="295.41666666666663" y="857.5833333333334" type="line"/>
      <point x="330.26666666666665" y="857.5833333333334" type="line" smooth="yes"/>
      <point x="357.1166666666667" y="857.5833333333334"/>
      <point x="365.5833333333333" y="843.2666666666667"/>
      <point x="369.81666666666666" y="799.4833333333333" type="curve" smooth="yes"/>
    </contour>
    <contour>
      <point x="229.53333333333336" y="723.3333333333333" type="line"/>
      <point x="313.7166666666667" y="723.3333333333333" type="line"/>
      <point x="313.7166666666667" y="880.7166666666666" type="line"/>
      <point x="313.33333333333337" y="909.7" type="line"/>
      <point x="313.33333333333337" y="1119.7833333333335" type="line"/>
      <point x="229.53333333333336" y="1119.7833333333335" type="line"/>
    </contour>
  </outline>
</glyph>
<glyph name="degree" format="2">
  <advance width="523.5666666666667"/>
  <unicode hex="00B0"/>
  <outline>
    <contour>
      <point x="262.28333333333336" y="791.0666666666667" type="curve" smooth="yes"/>
      <point x="401.40000000000003" y="791.0666666666667"/>
      <point x="476.7666666666667" y="876.9"/>
      <point x="476.7666666666667" y="1034.0333333333333" type="curve" smooth="yes"/>
      <point x="476.7666666666667" y="1055.5666666666666" type="line" smooth="yes"/>
      <point x="476.7666666666667" y="1212.3166666666666"/>
      <point x="401.40000000000003" y="1298.1499999999999"/>
      <point x="262.28333333333336" y="1298.1499999999999" type="curve" smooth="yes"/>
      <point x="122.55" y="1298.1499999999999"/>
      <point x="46.8" y="1212.3166666666666"/>
      <point x="46.8" y="1055.5666666666666" type="curve" smooth="yes"/>
      <point x="46.8" y="1034.0333333333333" type="line" smooth="yes"/>
      <point x="46.8" y="876.9"/>
      <point x="122.55" y="791.0666666666667"/>
    </contour>
    <contour>
      <point x="262.28333333333336" y="923.3166666666667" type="curve" smooth="yes"/>
      <point x="218.65" y="923.3166666666667"/>
      <point x="199.95" y="959.4833333333333"/>
      <point x="199.95" y="1031.8833333333332" type="curve" smooth="yes"/>
      <point x="199.95" y="1058.1" type="line" smooth="yes"/>
      <point x="199.95" y="1129.1166666666666"/>
      <point x="218.65" y="1165.9"/>
      <point x="262.28333333333336" y="1165.9" type="curve" smooth="yes"/>
      <point x="305.9166666666667" y="1165.9"/>
      <point x="323.6166666666667" y="1129.1166666666666"/>
      <point x="323.6166666666667" y="1058.1" type="curve" smooth="yes"/>
      <point x="323.6166666666667" y="1031.8833333333332" type="line" smooth="yes"/>
      <point x="323.6166666666667" y="959.4833333333333"/>
      <point x="305.9166666666667" y="923.3166666666667"/>
    </contour>
  </outline>
</glyph>
<glyph name="plusminus" format="2">
  <advance width="709.7166666666666"/>
  <unicode hex="00B1"/>
  <outline>
    <contour>
      <point x="63.25000000000001" y="161.5666666666667" type="line"/>
      <point x="646.4666666666667" y="161.5666666666667" type="line"/>
      <point x="646.4666666666667" y="342.5833333333333" type="line"/>
      <point x="63.25000000000001" y="342.5833333333333" type="line"/>
    </contour>
    <contour>
      <point x="452.28333333333336" y="442.3833333333333" type="line"/>
      <point x="452.28333333333336" y="1018.2666666666665" type="line"/>
      <point x="257.81666666666666" y="1018.2666666666665" type="line"/>
      <point x="257.81666666666666" y="442.3833333333333" type="line"/>
    </contour>
    <contour>
      <point x="63.25000000000001" y="637.2833333333333" type="line"/>
      <point x="646.4666666666667" y="637.2833333333333" type="line"/>
      <point x="646.4666666666667" y="823.3666666666667" type="line"/>
      <point x="63.25000000000001" y="823.3666666666667" type="line"/>
    </contour>
  </outline>
</glyph>
<glyph name="twosuperior" format="2">
  <advance width="387.31666666666666"/>
  <unicode hex="00B2"/>
  <outline>
    <contour>
      <point x="23.083333333333332" y="700.0" type="line"/>
      <point x="362.3833333333333" y="700.0" type="line"/>
      <point x="362.3833333333333" y="831.3" type="line"/>
      <point x="130.70000000000002" y="831.3" type="line"/>
      <point x="184.66666666666666" y="808.6166666666667" type="line"/>
      <point x="184.66666666666666" y="836.6833333333333" type="line"/>
      <point x="270.51666666666665" y="961.9499999999999" type="line" smooth="yes"/>
      <point x="328.84999999999997" y="1049.0833333333333"/>
      <point x="360.5333333333333" y="1116.55"/>
      <point x="360.5333333333333" y="1196.6333333333332" type="curve" smooth="yes"/>
      <point x="360.5333333333333" y="1210.3333333333333" type="line" smooth="yes"/>
      <point x="360.5333333333333" y="1321.1666666666665"/>
      <point x="299.4" y="1394.7666666666667"/>
      <point x="177.43333333333334" y="1394.7666666666667" type="curve" smooth="yes"/>
      <point x="121.98333333333335" y="1394.7666666666667"/>
      <point x="79.98333333333333" y="1381.5333333333333"/>
      <point x="43.233333333333334" y="1361.7666666666667" type="curve"/>
      <point x="31.933333333333334" y="1229.7666666666667" type="line"/>
      <point x="55.400000000000006" y="1242.85"/>
      <point x="88.16666666666669" y="1259.0833333333335"/>
      <point x="130.54999999999998" y="1259.0833333333335" type="curve" smooth="yes"/>
      <point x="186.01666666666665" y="1259.0833333333335"/>
      <point x="204.1" y="1229.5333333333333"/>
      <point x="204.1" y="1183.1999999999998" type="curve" smooth="yes"/>
      <point x="204.1" y="1174.65" type="line" smooth="yes"/>
      <point x="204.1" y="1126.4666666666667"/>
      <point x="180.71666666666664" y="1078.2166666666667"/>
      <point x="134.3" y="1007.2333333333333" type="curve" smooth="yes"/>
      <point x="23.083333333333332" y="840.2166666666667" type="line"/>
    </contour>
  </outline>
</glyph>
<glyph name="threesuperior" format="2">
  <advance width="395.08333333333337"/>
  <unicode hex="00B3"/>
  <outline>
    <contour>
      <point x="163.04999999999998" y="688.0" type="curve" smooth="yes"/>
      <point x="309.25" y="688.0"/>
      <point x="364.59999999999997" y="764.6999999999999"/>
      <point x="364.59999999999997" y="872.1333333333333" type="curve" smooth="yes"/>
      <point x="364.59999999999997" y="903.0166666666667" type="line" smooth="yes"/>
      <point x="364.59999999999997" y="996.2333333333333"/>
      <point x="328.6833333333333" y="1043.0833333333333"/>
      <point x="242.86666666666667" y="1053.6166666666668" type="curve"/>
      <point x="252.16666666666669" y="1036.25" type="line"/>
      <point x="252.16666666666669" y="1057.6166666666668" type="line"/>
      <point x="329.91666666666663" y="1073.15"/>
      <point x="360.9833333333333" y="1124.5333333333333"/>
      <point x="360.9833333333333" y="1203.8333333333333" type="curve" smooth="yes"/>
      <point x="360.9833333333333" y="1228.3999999999999" type="line" smooth="yes"/>
      <point x="360.9833333333333" y="1334.0"/>
      <point x="305.46666666666664" y="1395.1499999999999"/>
      <point x="182.26666666666665" y="1395.1499999999999" type="curve" smooth="yes"/>
      <point x="123.05000000000001" y="1395.1499999999999"/>
      <point x="72.83333333333333" y="1380.5333333333333"/>
      <point x="37.76666666666667" y="1361.9166666666667" type="curve"/>
      <point x="25.849999999999998" y="1234.0" type="line"/>
      <point x="54.849999999999994" y="1248.0833333333335"/>
      <point x="92.0" y="1262.9333333333334"/>
      <point x="135.14999999999998" y="1262.9333333333334" type="curve" smooth="yes"/>
      <point x="185.54999999999998" y="1262.9333333333334"/>
      <point x="205.39999999999998" y="1238.3"/>
      <point x="205.39999999999998" y="1196.9666666666667" type="curve" smooth="yes"/>
      <point x="205.39999999999998" y="1177.3166666666666" type="line" smooth="yes"/>
      <point x="205.39999999999998" y="1125.8166666666666"/>
      <point x="172.31666666666663" y="1113.3500000000001"/>
      <point x="126.46666666666665" y="1110.9666666666667" type="curve" smooth="yes"/>
      <point x="75.91666666666666" y="1108.5833333333333" type="line"/>
      <point x="75.91666666666666" y="989.5833333333334" type="line"/>
      <point x="132.69999999999996" y="986.5833333333334" type="line" smooth="yes"/>
      <point x="187.39999999999998" y="983.5833333333334"/>
      <point x="205.63333333333333" y="958.5666666666667"/>
      <point x="205.63333333333333" y="918.85" type="curve" smooth="yes"/>
      <point x="205.63333333333333" y="894.8833333333333" type="line" smooth="yes"/>
      <point x="205.63333333333333" y="853.7833333333334"/>
      <point x="188.25" y="823.0666666666666"/>
      <point x="131.61666666666667" y="823.0666666666666" type="curve" smooth="yes"/>
      <point x="88.23333333333332" y="823.0666666666666"/>
      <point x="54.38333333333333" y="836.1500000000001"/>
      <point x="20.85" y="851.6166666666667" type="curve"/>
      <point x="32.766666666666666" y="716.85" type="line"/>
      <point x="61.3" y="700.85"/>
      <point x="112.05" y="688.0"/>
    </contour>
  </outline>
</glyph>
<glyph name="micro" format="2">
  <advance width="801.15"/>
  <unicode hex="00B5"/>
  <outline>
    <contour>
      <point x="721.5833333333334" y="1001.0666666666666" type="line"/>
      <point x="495.06666666666666" y="1001.0666666666666" type="line"/>
      <point x="495.06666666666666" y="190.7" type="line"/>
      <point x="520.6166666666667" y="185.15" type="line"/>
      <point x="512.0833333333334" y="0.0" type="line"/>
      <point x="721.5833333333334" y="0.0" type="line"/>
    </contour>
    <contour>
      <point x="306.7" y="317.95" type="curve" smooth="yes"/>
      <point x="306.7" y="1001.0666666666666" type="line"/>
      <point x="79.56666666666666" y="1001.0666666666666" type="line"/>
      <point x="79.56666666666666" y="-350.0" type="line"/>
      <point x="295.01666666666665" y="-350.0" type="line"/>
      <point x="295.01666666666665" y="-230.75" type="line"/>
      <point x="275.18333333333334" y="64.36666666666666" type="line"/>
      <point x="280.4166666666667" y="64.36666666666666" type="line"/>
      <point x="297.65" y="15.633333333333331"/>
      <point x="324.58333333333337" y="-11.233333333333333"/>
      <point x="382.9166666666667" y="-11.233333333333333" type="curve" smooth="yes"/>
      <point x="454.53333333333336" y="-11.233333333333333"/>
      <point x="490.0" y="30.983333333333334"/>
      <point x="508.70000000000005" y="154.03333333333333" type="curve"/>
      <point x="557.3666666666667" y="154.03333333333333" type="line"/>
      <point x="497.06666666666666" y="282.18333333333334" type="line"/>
      <point x="485.75" y="220.66666666666666"/>
      <point x="453.11666666666673" y="176.16666666666669"/>
      <point x="399.00000000000006" y="176.16666666666669" type="curve" smooth="yes"/>
      <point x="329.56666666666666" y="176.16666666666669"/>
      <point x="306.7" y="224.20000000000002"/>
    </contour>
  </outline>
</glyph>
